<mxfile host="65bd71144e" scale="3" border="0">
    <diagram id="XJr_fOFHATXALooYyGOz" name="第 1 页">
        <mxGraphModel dx="1558" dy="1334" grid="1" gridSize="10" guides="1" tooltips="1" connect="1" arrows="1" fold="1" page="1" pageScale="1" pageWidth="827" pageHeight="1169" math="0" shadow="0">
            <root>
                <mxCell id="0"/>
                <mxCell id="1" parent="0"/>
                <mxCell id="4" value="" style="shape=image;verticalLabelPosition=bottom;labelBackgroundColor=default;verticalAlign=top;aspect=fixed;imageAspect=0;image=data:image/png,iVBORw0KGgoAAAANSUhEUgAABnMAAAOECAIAAAD161POAAAACXBIWXMAABJ0AAASdAHeZh94AAAAEXRFWHRTb2Z0d2FyZQBTbmlwYXN0ZV0Xzt0AACAASURBVHic7N1vkBvnfeD5n1x5l7wYJ7ebTe2VBmoMNRpoHadQV32b3ZAcUm6MSCxJTTltX6pCChxKOoCUJpBiqAxLlmRbJFKCQuFGIoG1/rUkV0Ui7IVIFigNOpZGUrJJ4QU2Lq8wggS0QVVdXe3tZY1UZV/zXuA/0PgzGAwHw/l+akridD/99NN/ph/0D8+f2yqVigAAAAAAAADYoK9sdwEAAAAAAACAHYnIGgAAAAAAADAKImsAAAAAAADAKIisAQAAAAAAAKMgsgYAAAAAAACMgsgaAAAAAAAAMAoiawAAAAAAAMAoiKwBAAAAAAAAoyCyBgAAAAAAAIyCyBoAAAAAAAAwCiJrAAAAAAAAwCiIrAEAAAAAAACjILIGAAAAAAAAjILIGgAAAAAAADAKImsAAAAAAADAKIisAQAAAAAAAKMgsgYAAAAAAACMgsgaAAAAAAAAMAoiawAAAAAAAMAoiKwBAAAAAAAAoyCyBgAAAAAAAIyCyBoAAAAAAAAwCiJrAAAAAAAAwCiIrAEAAAAAAACjILIGAAAAAAAAjILIGgAAAAAAADAKImsAAAAAAADAKIisAQAAAAAAAKMgsgYAAAAAAACMgsgaAAAAAAAAMAoiawAAAAAAAMAoiKwBAAAAAAAAo/iNMeZlmWZpwxs5nZqijLEQW8KyzFJJRMSpaRNfWAAAAAAAANwUY4ysWatRPZzd6Fa+ZCU28cGq0oquGyKiRnJaYOJLCwAAAAAAgJuB3qAAAAAAAADAKMbZG7RBVX0u15BpZ51bUYJhWfGgP5UXEddiIkZrNAAAAAAAAAxvSyJrrlAspm1Fxlsgn81mRUQWt7sgAG5tZtATlVBmgw9HMx6UhZimiIhlBv3R2URmwJcAo+0HAAAAADAKeoMCQDcr7pnagKA5RJ7ZDQ9EacWjYSNdmxpGcc5KNrwyeE92+7Esy7JM04wHg0GPxzM1NTXliVsbLQ8AAAAAoN2WtFkDgFuAGkkmFgZ3WC+t+vVC6wIz6Inmu5JlsyKie/Jq15qevdHNlXBWjSTqrc+UQMgX1qPx5Y3MpGIGp3Sj5XdVVV0u12IotOBkqmMAAAAA2CwiawDQi1NRatEnMzilS7IyVB9L53IoVOpaWozqYYmEQjN2u7HLxgzqhviSrVE0bTmiusP++MKgLqHtfMncslMaxwIAAAAAGBciawAwgBX36Iaq+tLBYLp1+eyybVszRdHsglhpEZnRtOHGP7PiHt0QX7IjlKcEEpGUfWzNinvc4Xo/UH3KEBHxJSveWpGIqgEAAADAFpi8yJplWSLd74GWGV9NFwr5vPToN2VZ5upKuiD5fF7E5XLNznoXFmxfb5s7kZZmJSWrY8ihgW+ijSLl6/sLDN+5yjLN1fSwxQWwfSwz6A5nRY2EvM3mZsV0NGxIxCti+0drxYMrhY5l+byIRDtic2IfnjOD7nBWjeRsmsjVYmtuj+Tag2vKQig5IyLpqG5IJBmaERGnU7obzwEAAAAAxmbSImtm0K0bIqJGGi+NVjzoDxuNEbnVrlk8LTPo1422Ibuz2ayIEQ6LqL5kItYR8LLi/mbTjtoGYd0dblvSUoIuXXts7M9ud53bxlei4R7FVX2R0PIG4nMAtpYV97jDEkkmC1E9Wqw9FCwzGDWkzyNic7s0g27dUH3JXtkrgUxOPO6w21Noe94omqaImGldxNdsG0dkDQAAAAC20KRF1jq0dW8aKUHW0N15XzIz1OhIQzGDno44Xsfueo/F1BEktNs8rBuFZK5/cA7AzaLMhJI5TVNEtFzc455K+XxiGOJL5jL9/kqVQCzWucwMGrqEYn2fRZYZ9+vhrDromVUPrunufEc030wbIpJPm9LS7dSwnThB+sydAAAAAAAYyiRH1tqjZqrqc7lmZ70zCy3vkMFmAlX1hRLLjf6UlmWu1NuVZQ3dM9vavGRm0edziYhI3qgFutT6krpZm2HGRUrxalhN9UVCy43em607E+ncW+N4zJVGWK1PacXQ/bbbA7j56m2/LHO1ICJZwxARVYoly9mjx7hlmSW7hmLFvIgUTdNuG6ez9jQopsSXzHnTfo8n2rdcrlAmU1mIB/2pokgzhlYNrEnW0KekGaNXVZer/oDL541stv7As3/OAQAAAACGdVulUhlTVs1AmG/ICfRsmMGpWm/Q5GJKD9djWHYdJFsDb726braksU3SWN+v72ezVLWd9ejx2dqYrccpqPcsS9j2+GzZzSZOIYAxsOIed2oxmZgprkRTRjbbEg63LHPFHzWyWRFV9S2GvBLVC6HGn6wZ9ETzXflls7UnkWrXeMwVamuj1gjOVecTTbbPJ1pMR8P5RdvwfdzjLrh8hiHJpER1QyK5zMxK+6SmZnBKz29VT1YAAAAA2G22pM1az55HHfp0RMqG9WzvGJaIiLkyKKwmIkogkyxUw1XZ8IoZGEO0qncvLS2WiORrgTwjbcZspgBUAplKoGfWWizpM6qxtR7bA7ipnKViVBZDuYSztOKPpldXZWbBqSlaLKPFqvOmrBadzvZttFim82/XinvcWVVVs1lZTLQ+rizTFK37GdecXNRuPlFnMRruDt1J9anoS4bEMES0WCYpweIIxwwAAAAAGN5Xtibb7FBs3w2bfMlM7/HGan2eRMQX6tv2QluO1KJ8Rtq2G9aGqJHlPvEuJRDy1f6ZL1q90/XULOxo2wMYLy2QiQU0RVG05UTIK4V01O+empqa8gRNSxRFCwQGtf2y4p4pd1giuUwmEVGz4RWzsSLoceu6P977b90q5kWd7YjcSalgO1ijFY8abU8oLcYYagAAAACwxbYosjYG/WNYjcBa/2QiIsrC4tiiVeriQv8XVc3rq/4jW9jcjHyb3R7AuFiWaVmiKJoWiMUymUqlUskllp2Dg1aWGQ963OFsvV2tEkhEVEMPmmY86Jlyh/OuZK7Sr1tmqZAV14zdepulpYLd9wz2wTkAAAAAwHhsSW9QXzK3PNSLnP3439U8+rZEs4q19m4DQ10iosy4RLJSi1ZtqgmH/TvuGDXKCmBSlFaj0bCelepEKote74JT6/PwEhERy4yvRMNGVlXV1geHEkhEUm5dF3XQ7KJSbYQmaqTzYWoV8yKu7uQ2vVClFpwL0XQNAAAAALbGFs0N2mPOvOENaGPR7A1VWDXNQbPb1cNwki9aMuBddjOlAnAr0gIZLSAilmWVVlfT6WjKqI0DaTvoohn3RMPZrKi+SDIRkJUpvXWtEsjkxOMOG9EVr3O5T4TOivvDWfElbb9jGPpZZKbtgnMAAAAAgDHZosjaFms0WZOsEW6ZtXOHsCxzdSWdyufrswUC2AEURVECAU0CEhMRy7Lso2JOcYkvlKuNEtk6uqNlxleihdlELFNZiAf9utvdMuNoG8sMusNZ8SW7Q3fWamroVmhWPGr0Cs4BAAAAAMZgZ0bWRrXlnTkHscygXzcIpwE7QjbsngoPl9TX/KcSiGXaV+bTQU/UyGZFRPVFvPVEgWUzvhIN625DfMlKPYbW6EfabBJnxYMrhXpehpEVdXGYVmhW3B/OqpEEswwDAAAAwJbZ6ZG1oYd0E5G+47rdBFbc4w53RNVUVRWXq2XIpHzeoCEbMBnUSDKxMPgBU1r16wX7VVY8aoiIkfdFkolEZ9M0RQvEtEDMsqzGCjPo1g1Rfclc28zI+Xy9na7LFwktB4bp1W6upHr2JgUAAAAAjMfOjKy1jvO/6SHdbpJq564qtfe7sRk0dCJrwLZTFkLJmcEzFdST9gjAKQuJ5IIyIA7W+hDTYrnccudTTQlkMoHB5ahxLieT4hRRYpnccvecLVosl7N2yGMTAAAAACbezoysiXNWrYbWjLQZ03ZAX6dayxURkc7GKO3pGiPIAdhWijb0dCdK74eQomz0+bTpLwuUZiTPPqud8nUEAAAAAOwAX9nuAoxGmal3oDTSZt+UE6Ixmakv2Tus1poOAAAAAAAAE26HRtZE8/pq/zKicWtAYssyByXZYsM2RTPTxtYWBAAAAAAAAOOyUyNroi1H1Oq/smF/39iaFfe7dbcn2DdRtlAaZ+k6NdvY9WMGdWMrSwEAAAAAAIAx2rGRNVECiWZsze2J2zZLs8z6fJxZI7zS3W/0pvUqdc7WymroQdsdWXHPFHE1AAAAAACAHWTnRtbaYmuSDetujycYN02ryozHg54pt16fj1P1JWM2I4m39CrVPcG4VQ3PWWPvP6osLNaLauhTbQU140HP1FQ1/udLJn19cgEAAAAAAMDk2KFzg9YogUxuJujXjayISDZrZHUjbJNOjeQyAft5A7TliGpUw29ZI+xubK5GclqPTUYsaiKSctfifFkj3F1Q1ZdMxLRScHz7BAAAAAAAwBbayW3WRERE0WKZXDLiU+1Xq6ovmav0CquJVKNzkR5bj5US6FlQ1RdJ5jJ9Jw0FAAAAAADAhLmtUqlsdxnGxrLMUstEBE6npgwdq7Isc3UlXcjn8+JyuWZnvQuBLQt0WZZZKhWL6YJ4vTMbKiUAAAAAAAAmxi0VWQMAAAAAAABumh3fGxQAAAAAAADYFkTWAAAAAAAAgFEQWQMAAAAAAABGQWQNAAAAAAAAGAWRNQAAAAAAAGAURNYAAAAAAACAUfzGdhcAAHaAf/jFL//q7Z99Xij+4//4H9tdFgAAOv3Ob//2nbMzf/J/fPMPvv61ceVJ3QcAmFhbUfGN7LZKpbLdZQCAifbWT955+ZU3trsUAAAMcNtttz1w6sTxP/325rOi7gMATL4xVnybQW9QAOjnH37xy1defXO7SwEAwGA3btx45dU3/+EXv9xkPtR9AIAdYVwV3yYRWQOAfv7q7Z/duHFju0sBAMBQbty48fY7/2mTmVD3AQB2irFUfJtEZA0A+vm8UNzuIgAAsAGFwhebzIG6DwCwg2y+4tskImsA0A/DNgMAdpZ//MfN1lzUfQCAHWTzFd8mEVkDAAAAAAAARkFkDQAAAAAAABgFkTUAAAAAAABgFL+x3QUAgAnH5GgAgN2Gug8AgGERWQOAfm7wcgEA2GWo+wAAGB69QQEAAAAAAIBREFkDAAAAAAAARkFkDQAAAAAAABgFkTUAAAAAAABgFETWAAAAAAAAgFEQWQMAAAAAAABGQWQNAAAAAAAAGAWRNbEs07Ju2mYiMnDDUfPdUEajHbPNPsxRz0PPvXRlaJnmgF1YXUWzzHgwPt6CAQAAAAAAtPmN7S7A5nXFVBRFsYkBKYpiv/mqXy+EKjH7tb2VVnRdkpWYNlRqMzgVnc1lAoqIuaLX/2lfoLjfLwm79ZZllUqrxXSq4M3U92vFg6sLsYAiZtCd9lZimlhmfNUZCChixf3uQsi+hC07sSyzVLItidOptZ00c8XdVXJrNTrc6eu1m86diLmip71tGVaXaH12Ya02DtUyLdEURaSYMgozMdnodQUAAAAAABjWeCJrZnBKN7qWqpFaKKltraqq4loMLQeakRL7zcWXrMTEflUz/1LQ3ZFAjeRChc6F1dzqMSbLNBtBnmJBJF80zZakTq1fFKdGW46o7rQZ04YIrVnxqKEu5qqZal6frq+YgaFicmbQE81LNput/a6qqsu1OOu0pBYyUhZmU/74QibQ2JU/WghlRMRaTWV9ocE7Ka3o0bzP5epYnDcMV7ItwGUV8+LyDhepsuJBfyrf+NW1mPAWGrvJG4b4fC4RyecNV0dYzkwb6uyytC/xeWN999Y81EFxSwAAAAAAgLEZX5s1NZIMzbQvcip2a4vFdCqsu8O+tgZfdps7RWQ5mfTWfi+mo+G8KxLy1tM5FRElVqm0RF3M4FS0ll9LeMWKe9yFZiKrVEyn67/n81kRV+P3fN6QxZzWEZnpEfsT0ac6F/u62rFZcX9YIrlGllos6ZvSg97h2rtlxRXJJRI9G90pgcSiZ8VcqJ4lcyXlCmU0qUabVJeYzZhhV+uwBlco1lkWK543Cu1LVlNZkXQwmK7+PuttjY52lWo5sSClVb9eCOWWnaIopWB9N1Y8n5flWDXoaqSbe/S4w7UIonsqLCK14GraECPvyUfbCpxpKbC5Es76ktXAWroZwgQAAAAAANha44usuWa0Ps23WtZqmhYIeINTeltwqdfmSjMa5CxGw/nZhY4GZVY8uDJTDwzVmlU5Rc0WSvVmXdUg06KzJc9mgzEr7jFaA0tm0Ig2V9V7TGrt8buNMIPutriaSK29W1dsrSu0pEZyIRGZXejVk1UsM76SLohLCivRvEg+KC6XpIPB4vKypLIiEo3mpdrkTVV9IS2mtO7FPRWu7aK792xXx01rNZVVfb7ab/m8kZ9dDvQJDTbLXP2XfYfT1g0CmUqg5ZzXdhv3GL5IbnmhWbIVf3TW2bKhmTakFlizinnJGn5PSkSyWRHdk1eridpjcQAAAAAAAGOwXeOsacsR1UgVLRmi32V/yowYjSBVqZBVZ52iiEtaMi8Vsupiwm5HteZkGwq5mEGPnl+st4gzg1N6PpJM2DffsuIe3fAlK52dE5VAJlmY0qckmYs1NlQCidyCyKrfnVpMJhacUm3p1ffgnTNe74yIFNN5Q8Tn9dYa+JVW9Gy99Vx7tEoJZCqB1mVmUAzdX49A1aJwqoiorR1Eqx0u69EpK+4xCjP1ghu6R5KJ2MBLabS08Ku3ShOftyWFtZqSxYTEPZ564VZqYUkzvioLAU0Rc8WQ1lZpVjxqiBpx1gtZb/xYTEez+cVQvSGkszUWBwAAAAAAMA7bNjdoqZAdnGgoWizpM/SgKbW+gAuKiOb1ZVOrtWZYVjEvrpmOsI9lxoOeKXfKlUxUQ07NRlvZwqplWZa5muouohn06EZjGxHRYrmkK6W7PV3zUFpm0OMOSyRn31ZKi+WSvrzu9gSb814qiqJUT4xTUZqNvkpWt/oWmqZpTkmn8qJK1tCjaXFqmrMYNUTyxWqqUiHbdfjtfMlMTSKiNn9rKbi1msqqzZZitQhmfXOfq+NAeu2mUqlUKrmIqkZylUqlUkn62hKYK2FZXGiPmlUvqBRTqaJIddC1UEug0lwJZ1v/7QsFNE3TNG1httYQsqpXqz8AAAAAAICRjbPNWmePwp59GMUyg7ohaqQliNIxiYD0Gxask7YcUd3R+LIUGoNsOWfVbGrVCgSU7pH8zbhHD2dF9SVzufouzGBt2kttOenzR/3+lIhIpDWGI5YZdOuGr7WZmYiIosUyuVmP2z2VahnbzYr79bwrEpktrAR7tTubXc7kZoN+3R9vbmemDREJu4Mz9d1kw9FqadoalNV6N1pmfCUazi/mMt6VqXSosixB/1TU5XNFIq5wtUOsVcx3TAlQU1iNB2UmNtN68jvmc6hfg1r8qnpCu0cz88Yyy96gX3d7Is22fNWpF6o9Ml2LCa8M1DVImrIQSi5oilQDsbMiYolEvC0Bv3jUUFU12zh1tV6hwFjd2O4CAABwk1H3AQAwrPFF1gzdbbQtaJtDwGiOeFWd6FL1JdsmcMyGo1G1bXtXSIsN2dBICSQiKbdbFzWSq/d5DPnC0VUrEJCuKTK1hUQu0DNop2ixTHd0xjKDft0QXzLnTfs9xdaRwMzgVHQ2l6ksxD1ut0eSmYAmjU6XZrxQEJF83sjWpsOsyxuGeGOBQKwxraeIWPFo3udT87IoUbenmMvMiKiR+t6suMddCLU3JUsXZhOVmGJZpje57BRFiWVylqUoihVPpYqWaLKayrpC7UPTWeZKKpvNivhCCauYF8mn07Wy5bMi0vhtdlkLVONXvmRE9NrYdXbTBNTii/76pKfO5VCo1OyR6VSk0LgJstmsNMZCa/YGrQ6SVu8m6p4KV2+hzt00F1jVvqKhgjsqIqLFcjmhaRqAW97c3J32K9Y/Xx+w5Z1zA9N07Wt9/fPe6+88esQpIlJ878qG8h23ublDe6q9/4ulK50FvnNu7vP1bS0eAGAzRq/4Rsh8cJ7UfQA6jS+y5kvmltvHsmoNXqmR2ohX6aie7Wr2JSK+5KZGmFcCIV9Yz7d0JdS8Pl1fMWekayA1a3XFn8q3b5/NitSiPS1ci4lYNailiLhqpXYuRt3++EIj2hWth5kCmdyMKW27qs+VYAaN6OxyrLUXY9DIz3aO/WWuhGUxOZvKy0IsNhMMlqRjutTuw15etsSy4ivu1Gwu4aw2G1QUEVEWFsW/ai1IR2DRinvcYVHVesTOKrbODWrF80ahc6ZQZWYxuaBpJd9UNL6sBUq95t9UAplM49+KpijOYjQstakprMYsr8V0VGSxPsVrcwC0ajBSGrHKlrNlFfOSzdebzDU2cM5GQgFFqm0CLcsslaRUnymho/XdRtpAAsAEO/LcOz/aa7/qox/+/p+913vLQyt/9ZTj9fuP/l99ImVt5v7snXdO3t4z27nTV/7quENERMqvd3+mvznuPPpnP3rg5O2OlkXPypdr3//+8tVaeeb+7EfvnLz+5B88fmU7ygcA2KzRK77RMy9/9NYriYs2gTPqPgB2xtkbtHfvz5apPzVnJO/WVzqmxdy8Wi/KepMpqU/AqYsvWeloXhVYTix0bF5acUdnQ4mFjlhX84i0WH1u0FoDueBMJaZ1TPyp9JgdtTZl6YBDsOJRwxeqOIup5h7NdPcQcW2brPhT+Von0WoX1my2NnWBsrAobr9f7WixpywkcgFF4h5/7cirQ6ZZplmS9nhUMxSlVZvheX26vhIvGEbXKR2C0pjl1VmMpqRzite+rOqQd6mu0FogoIjUgmellWi0NV6azYpkWxpCbqANJABMti9f+/73V4tdi8f8+f7OhQO3i4jsP3BU3uv6aH5nMHLcIZ88+SePb9839ncG331jySHlj3747cR71W/m5+YOBSJPzf/ojSvKBmKIozq08q5PPvz+8pbvCAB2uS2t+Fozd+6ZuUP5xv6l/cef3b//Gy2xKhGh7hMR6j7A1s2fG7TauiwaX9Y6J8zcBDOoG2okuZhqzViZcYm0jrTfLENjdLVg2rsc0xQpiVSnDRAzGCy2tS6zO4REJOXWPXk1m/UlcwOPw1pNZdXFtmLYxdqUmcXIgiZSbE8mfUYoUwKxTKC1iZcV97hdtYHIau34Ion2cJ+iKCKNEfFqBbFW/XrK5XOJuHyuQjpdyOcNV6jSHorSliOqO2yoG5xMVUTq465VNXuDijRGjKuXx7KkKCKplWBB8nkJZWKatZqSSC5ZcEc7Q2ttpWvvxdvddRYYEUPNYKJUb8gvNtHFY8hbeu4bBx2y9tEnjv17v/Ef5MrVjtVOxSHl11+5krfd+GY4uvLGkkPWnry/9bVnPf/e8rH3jq688w1pP9It+kN23O7YusyBbcRdjcmx+YpvA5l/vp4XuXIxNnco+BdPLf3ojZUbf7jcrAGp+0SEug+wcfMja9XJPKf0ZofKTavG1XIBTVmIpOo9Nc2gRzd8kUg+XG1eZrOVR8+7kp3tmJxeibZPRmBDWVhUw+FsVtTFIYq3Es6qkcTgY9UCAWkJekn35As2LDOdl2x+JT6zHHCu+lv6vlrxqCHt7fi61Wf5LIq62BpQNING2i6xiGQLJUs20LHSssxSddy16u/tvUEb3UGtuMcdzoqIKiKiyuKs1+t1amLF/WFXqKJoVqS1Gy5ws/CxAZNp5Dtz2MDawn6HfPLy8ivOy3uXtEM3rtp3t9m2P5C50w/sF/noh49ctfnO/PLyty/X/32j/t+tKypPCdx6uKsxgbb0tuzMfP29F46J8oun5h84fdfVi+v9E9801H3ApNqOyFq98VNHlKRzatH+3Uubm8U91biaIiJKIJFbUJTqfAO1gdFmClO6R9qHcbPMoFvP247t1pjq01NIJrqGg6vPxmmIL5JLLKyu+HV3SvWFEss9BvFqK15TPaDV/9C627p1U7RYphKzzKDbPSWiRpK18d9qHVVzMytu3TPbK05oNxlBD9VQZTLnTft1t8eXrB3yzKJPuotoWebqSjplZEV0d171LSZigfq57NEbtDHMWnWcteXaNKTBqbArWalOCtHshjtMgQFgV5s7cvr0A/sdIiLXP3jllRc6G531d+j0ydvlI+OKfD734ZdLJ9s6hM4FnzutTDtEHAceeLFW57zywtXP546cPq3JxeWL63N3Hg386MHp6x989/EX1jsKI+UPjYux9zreUgYm6Dy6hf0O+fK1+AaG1+k6IZ2DPR8NPvDggWmxS9B9aP/lH+SrX207CWK98kiMrjEAsF36PcZH8t4jTx745bPHTx+5+MhV6j7qPqCf7Yms1YIkra2puqYWFZHqeGF9mUF3OOtLVhpxI0VKQU91Fs9aWEyL5SIetz6VrzdDM+MePSy136rxvFIxLzLbUrzaVJ/BZgksM74STRnZrKi+SDJXjRMFYpkFb3wlqrvdIqrqWwwtLzRCbPUYXH2/1SH2RYrFdCpsiC/ZP6Blxf3hrC+ZGdjXtFowUSPJ0Ew6qk+lIsnFVPMIY7lIe5zQsixZLWRltj6yW7V3aDbcOoND26yd9alRI7mYpoiWyXmDft3tFhFV9blcUggGG0mrvWullC7MekO5avTNMuMrLUny2aysBAuN32d79L6txj8juUYvTyWQSVbjpHYxTwBA3dGVd87uv13ky7WProtMLz37xkHnW+Xhtz9yYF5kzXxPRNZXPyqfPP5g8M4r9Y/Oe5Rpx/TtDhFxTDuqi6rfsDj3z++/bs6dfu7t4w6Rcvl6W2HKn6xdF5Fpx8mnLp088MTXm8MqD0zQbY9yu5Tfen/onkHO4DtnD8ja9etlEcf+vUvP7lXkDx9pRBvnTl99+7hDvix/dL0sItN7l57de1D74ZHl+ttL16F99X+ddvwv7SdBnCK8XQDAdhj4GB9NsVyWvQ7nnSKfU/dR9wF9jCeypsUqlQ2ubbZQqiaIdaXou0kjb28kshxoGaYr7tfzro65R5VAJjcT9NdH6dIWQrXAmFhxf60HouoLLbTFQYJ1nQAAIABJREFUapRAJrcgtVB8taOi6oskE5mOkI6iBWJaIGZZ5upKNKy76/1IrbhfD0vbNKilYjpdjSctRpKJwIBenqsp8SUHRBarE336IqFEpRZG1CrLZtyvS0tvViWQyYnHnS7FtGq5/CkR8S0uS2lFIsv1PaiR1hkcSivudHMvHSe12k5OLMssrdYPqWa2esoUrXV+UcU54/U2pzn1etuHjuvRKs9ciea7OuVqsVwy6E+XhMgagN3r9oOB57oegmUzXp/F7MhzZ/ffLh/98FvL9W+/505fffv4vEi59uuhRwMH2nMoX1xu9nY5qu0V+cSsfvhe/+sPyseXDnxjLvZ5NcGV5W9fkUMv/uIpx+vfP9L5TfXes38xvfbk/UcaX3ofee7s/tvLr9/fTDl36MW3nzq7cuhK9bP7wAQ27nRO9z9FHfYuKT/81rFGW4BDL/7iqflnnzt6tf4Cs37x8Sd/JVebjQWOrvzd2f2+R+fee6H5AtN1aD1PAgBgvAZVfP0f44NqvZ7Wf1UWmVecIp9T90lLPtR9QIdtarM2PtWxyRrsom8i1ViQ1vxFGZC8tna4ZLW01Qhbn5IoWp/xzlqSBRIJUUQCmUzXmkyle0lnwRSte2HLlkogk2msbZyU6k5bo5Gxita6te1JVTQl0GM61M4ybSQQpsVyTlFaSteRV8fyevKOZIFErnspANwSHNM2H67rX1Pc+egDe6X8VjOsJiLrF4886fjls3vrv99xcP9eR/vmpkjjw7e2X+SjD+tfm3/+/odfLp3cf+/cxWFGj1575dvN78PrhXm89fP3+nsXX/fN13qYDkzQ2/VfDf21/ZevxVu72FTzn3bONY95vX0guSvxtx7cf1yZaSboOjQAwM3Tt+ITGfAY71/rjQF1H7DL7fjI2q1oA7MD7PCd9rLBwtgnn6gjAoAx+vK17377hZ6frKszl/115/qrH649W3+vWL945OsXe2Z/5MC8SHn6wIsrB1qW3n5w4c4X1gd+QV1v6dZamI9+JXN3zrUuLl0XqX64H5ig966m7+i/vsX1Unu69dJ1kY199d91aACAm6Z/xTdI/1pvDKj7gN2OyBoAAGg6qlWbtk07Wj5+l0UcLR1CN8Sx/6lL+7sXfzl8gi6fl66L7HfsGV+Lg+oYz/OO21sXlseUOQBgq23JY3zuDodI2SqNsCl1H7CrEFkDAAB1c6cf3C9tI79UHXnul88O2yG0Q/n1Hz6+avNa0shqYIJuV8xPzu7fqx2RK+P4Ln0u+M6lk7dL+ZPXXjdK1YI4Dzx4cu+AzQAAk2GLHuO1uThXRxlQjLoP2FWIrAEAcCspWeXacMtti+fucAyxcc+3iKsfrj371FLg0Asbm2etWhhZ79mNdGCCHq5+uPbs3vkHTs9dHWII6gEOnT55u3z0w6+1HtrcHbxdAMAOsTWP8bnTz53c2FycddR9wK7zle0uAAAAGKPP3//wS9n/1ItH2pYeDRx3DN72znsP3C7lj+zeIt4zPxLZf+DoKIXxPTrXvvjI6UeP3Dlcgl7eu/j6l+I4/tzKobnOVXc+evnvrtos76ejs89wp0tExKH0mOEaAHATjfwYtzV35PTVt4875JMnvjtCDIu6D9h1aLMGAMAOoywcOjrTvbj0xdXP10XWY99/7cAbS8++86LTuLhaEnHe+xdPLcmXZbm9e5s2c984aDv7gYiM2gllPWasnXxq6e13lCe/f7EoIrJn4UdnT94uH/3qhaufD5Ogd87ffkJ55+z+py5dPvDaKx++XyyJyJ6FBx48udchsvbKe0O/C5WsssyffODR1VdeWP98bu7QvQHfwekhTld1w/0HHp17b/RxtQEAQ+hb8Y38GO/K3HlAU8RRnUi0/MkT3338ykiPd+o+YLchsgYAwM5y+/zJp+Ztln/yxNXH10VEPn/h2P2y8qOlk0/NnxQRKX/01reWf3X6F085+uY7YECZaicU7ZBc3VCH0Pce+Xrp0ZUfLT37Rr3MX5Zf/+HjsfeGTtDTleVvf3Hk9OkHji89u3epsXTD70Kfv/Ddt5S/OL70di2T8kc/fPy7dzz39vFhNjz49vGlt/9uSWTtyT98hAnUAGBL9K/4Rn6M22b+Zbn8yWuvvNI/wjUIdR+wu9xWqVS2uwwAMLn+aN/CdhcBGNns3JzIemFCvlSem5sVkfX1wsgJepudq3aA2czBzs3OjZTD3JFDe8T64uqknGdARP7m49XNbE7dhx1p1Mf4lqLuA26OTVZ8m0RkDQD64e0CALDjEFkDAOwq2xtZYwYDAAAAAAAAYBRE1gAAAAAAAIBREFkDAAAAAAAARkFkDQAAAAAAABjFb2x3AQBgst3Y7gIAAHCTUfcBADA02qwBAAAAAAAAoyCyBgAAAAAAAIyC3qAA0A8dYgAAuw11HwAAw6PNGgAAAAAAADAKImsAAAAAAADAKIisAejFsqyRtxxrQQAAAAAAmEjjiayZwSkbnrhls9bj8XiCcdMauPlU0Oy5qi3/wSXpnX4crLhntLw3uqEV9/Q9CjM4VHZmsHZyJ0PHJavfHzcvMGN/f056YGjQzbDZ3IOeqampKbfbPTU1NeUJmhu8Tafc7q0rHQAAAAAAk2J8MxiokWRopn2RU7FbWyymU2HdHfYlKzGt7+ZOEVlOJr2134vpaDjvioS89XQt+Te22WD6HUVZCPkKxYVNHoWZNkTEiMaXtcCknJDWq18splMp3R1WfclETBuqhGbQE5VQpuV22lQB0tGU7g6rkVxmYk5Qt/HcDLbM4JRuqL5kLuFUFMWyzFW/rrvzw50PK+4PZ32RXKyRdvNXBwAAAACASTW+yJprRtN6vzu3rNU0LRDwBqd0PehtxtZ6ba5oSv0N3VmMhvOzC1q/aIuywfQ7i6LFNh2fMNOG+Hy+vJFatQKTEjlqvfqapgUCy2bcr+v+2WGDW9nseAuwHPe4wytmYILDQeO4GWyZaUN8yUYkTFG0QKYyEw8Ot3WpkBVfqP2qbfbqAAAAAAAwqbZrnDVtOaJKvjjJvcUsa4RBpkbaqLFl39UjbtjBTBvi88aWF9VsatVmO6vHEfRavplD7kPRAomImg37uzoUbmh3I5dNCYR8YqRtusy259d/B33W9lq18fM//D6Hu1WsYl7UWWfHUi3Q1X5wSy68XYE29Kdxs0oFAAAAAIDINs5gUCrc1HYsZrB9aLHuUarMYGNBdZApt7s6yJRnyCHJzJaNGtt07rdnWaYaG1otiz1xq5rvlNsft8SKe1q3bJZz6JGwqoE1TZSF7tBa8wDcU1OeYOPk9FpumY2CuzuG1Rt0yMNQAiGfZAulxtH23p1uiBh6c3S+nolHYnMhZNBN0ra25Zz123CD57/lZqiV0PYO7Nxp9VbpMySfMuMS+6jrwEPouBaeuNV9dTbwl9jzIo5yRTbnBj/88MMPP/zstB/qPn744YcffnbVz3YaZ2TN6tAnpRnUDVEXW0aJyhfNDmNteaJ525ogWauprLTFD8x0rUBW3OMO513JXKVSqVRyyYgY+uDATDbsT88mKrVtfFlDr77Ya16fGNH2wEq0Gtyqb+j2F0L1nfnE0NuaaRVWPFFZTOZyuURHt0gr7nGHjUY5QxL168ag01APrEl3aM0M6oZEcvVDcOXD/qDZZ7mIFAv13VdySV827A6awxzy0JyzautF67G7WC6X9In4krlcLpfL1Tox2iceWleR2y/EgJvEDLZemuRiPuxuBG097nB+0WbDEc5/m153oHTfKrP9bxVtOaJmw+6uiUZac7M/9o5rkQgo3Vdn+L/EARfR7orYnVgAAAAAALbQ+MZZM3S30bagbQR4Q/fk1eo/s9msiKi+ZNsQWtlwNKq2be8KabHxDQOmeX2ip82Ypkn1dd4XiUi4MdaYVczXA2uprBrJ1bu+KVogkyxM6QOH3PKFGkO2K9pyRDXC1Z1pXp+0DmlmraayaiTROnVDormzWCYprTvLGtI2z0NTNZ+WcsYSxby7fzvAargoWc1OWVhUw82hxBonoFGSnCVK7+UiogRisXrW1WNOFS3RlIGHPCxlxtX6W4/dSX1gPUVRBifuIV80mxG8dDRlZNuL3H4huk5+201ixaNGx9rcQrWUtQ0DzVWJSMqdWrUCCxs//x163YE2pU0UU/1uFSWQqSyY8ZVoWHeHRUT1RULL9TL3P/bua9G1ZNi/xAEX0faK2JzYSRlKEAAAAABwaxpfm7V6q5SGtkZWaiRU5aomrXROFehLZjqMeXh2zetrDOxWKmTV2YWA11dvK2OtprLVwFr9Hz227KV9YKrWkJC2HGlpHNaVv93Omk161Miy/VmwKacSCPn6ltFaTWVFzaeDVSsFkeaulBmXZMP+YLOpYDUS0mt5e86WZUnzmAcc8tCsYt5+efvuBmQyVOJsWG9I5cUVSbbPndB2IfrfJHZrlZao1OJMa+tOmXFJtlDa3PkX6XMHjnKriChaIJapVCq5XDLiyod1d6135ah/ID2S9/5LbGNzEW2uiO2JBQAAAABgK42vzVp7m6FOjbkXNWck79ZXvPYtsbaS5vXp0VUrEFDMtKEu5hSRWTVbKIko1RfzhCLSKzxQTWcGp9q60fl6NChroywsqvUmOc0d3XzVwJqvJTzh8qlZo956SIvlkrMrUd3tFhFV9YVqTel6LRexzKA/arTO+6hGqv8f0yGXCllRF+sBo967szvYjSSWIa/kINWbZFCicNSfaluiqi4Z5fzfFIqiBWJacy7fzpkN6oY69pqh/hJloxex14kFAAAAAGAL3fwZDKqzLka3YQgkrdYyxkwb1VYxysKiaqTNYVpVVVsEabFKm+GCMUog5MuGV8xa37fQwP5p3TMzjkGtT2asTdsEmC3NlBZdeb0+NFiP5WbQrRuymMzVBsKqJH2bOGQ7LQNuDdhd15YbSTw+Q103NZLobJ1Za565sfN/cw2cy3dD9+xQf4kbvYi9TywAAAAAAFtmO+YG1WJJXzbsv/nxgeoLfbz+Ol9/oY+3vM7bzpmZNsQ1s5l2QrUuntZqKts5kH/Hzqx4dKid2ZTTikeN3hvYRw9b+5425pxQFC0QSzQ6dNovt4p5USOJgFZvqNjRdbPPIQ/Fint0Q43UuxQP2l37thtJPIL+N4nd2toptFtVX7fB87/50vZixYM282qWCllxzShj+gMZ4i9xQxex74kFAAAAAGDrbEdkrT77YEdsrXNq0S14Mda8vmw4bLSMCL+wqBrhcLZ9SXVcq2qhzGqEp8dwZxvYsRi6O2wTZWrbWdAfzg63s2qrsEb7JcuM+1N9BqXv1SyvEVozg363O9iYC9JaTVUjKb2Wi4hkC42x1MygP5ztztn+kG0LWGea8aDHM+UOS8ccF3121zGJ6MCybVb/m6R6adrWumsXqmOVWGbQ4/YHRzz/w5a2fqtUc7HMuKdfDFaZETH01olBLTPo0dsmld3QH4jN1RnmL1E2chF7n1gAAAAAALbSOMdZ2wAlkIik3OGWGTe7phaVMQ1+1Ubz+sQwWiITysKiGs5Ky+u8EsjkJOjX3VO1BW1znI684+WIaoSlOwChRnKhgt89pdd+7Qwn9ckylouIP+yeClc3jCSSLnfUPq25Es6qEbvBzjSvT/RofDkTSySl5ahFjeRimoj0Wh5IRArte/e1773nIdtou/qq6ltMJhJa67B9St/dKYGQL6zrU0btag0s22YNuEm0WC7Sslb1RXL1eTs7VonqSyb6nudeyzeidqtUZ/occKuIaLFMzhv067Xk9WLWd7vhP5DOq6OIDPGX2P+K2x+j7YkdhxtjygcAgJ2Cug8AgKHdVqlUtrsME8qyrP6zMmyIGZzS8/1CEJZljbYzy7LGV8zeh91jeZ+9DzzkEUvX62AtyyyJsyUgN+Yz06s8vffRb22vwm3w/G+4tNUszOBUdHbgpam2G+19vjdSoq6rM6QNX8QtuOr//o8848wOAICt97d/k9nM5tR9AICdZZMV3yYRWbs5tiLKNOF24SFPLMuStliTGZzSZewtQm9ZvF0AAHYcImsAgF1leyNr29QbdLcx04aokb6zj95qduEhTyjLDLr1vC+ZiGlK7XfdEF+SsBomnWtu1n7FemHApCRzs66Babr2lV8v9F4/e+yoU0Tki2uX1zeS7/i45g7v2SMiIl+ULvcr6i7CHdKN+wTY0UZ/rI2Q+eA8t//JxjOtGzeJLW4VbDsiazeDmTbEl9xVjbd24SFPKqVzCLLqwG8E1obGUDPb4+jzl87utV+19oO7H7nWe8vDFy497XjthPeFYT9XuR69dGlpume2c2fSl044RESk/Frp3Zv+cc119Pno2b2OliVn5fraE98/c2V3f3DkDmkze+zRHz20NO1oWcR9gs2g7tsGoz/WRs+8vPbmjy9esImJbPeTjbrPHjdJJ6o/TAoiazeDFtt1fW534SFPMCUQywRitel2t3joOaDpy//ni3/+x18PTPZbv/PV239vj92a668+8f33v+haPOaPbrP3HpwWEZk/eEyuXe5a+9hzJxzyyfe+9Z3t+TL26PPJs3ul/Mn3Hq8XYO7wheeenj/7Ztq5gdjQIIcvXPXJB98/05ah7cJx+vL//tU///q/D0z2W1/9F7f/6zvs1nCH1Mtw9c1TDimv/UC/eC2/LiLimjt8Zvz3CYABJrvia83cuWfPHU5t/6n5E+fm93s6wxDb/WSj7tu2um/n3CTVMlD9YWIQWQN2CUJquNn++R9//W9/dmZgsr//5gX5vR7rvijkt/rj2tw37nHI2tonjvm9nqNy+UrHaqfTIeXXXt6mT42zjz24V8pv6kcuNLtjrF87c6R07MUfjXkMJEfb9739Fo7PP//6v//Rs381MNnfPPknYv92wR0iInLsxTdPOWTtiROt7zz59Wtnjlw79uIlxsoCbqZJr/iamRfy6yJXLpyfO/zYc0+fOvvmBfnfzzSfb9R9W2jS676dcZOIUP1hwnxluwsAAMC2cd273yGfZB55+edlmdcOb3dxOjidDil/8Nddo5wULj/yra37Oh2tJvsOEZk789C8yNoPbLu9cJ8AGGD92vkjP1gTmX/wjGu7y1JH3TdhJvEmofrDxKHNGgD0x2gzN0H3Sb7RY3kn19GHzzy43yEicv3nL798/kpjw2Eu3OEzS9Oy9vpl+cz1wfVTSweOSbrR3c/16PNnlGmHiOPgAxcUEZGS+fL5KwXX0YfPaHLhkZfyc7PHTj/7kOP6zx//zvn1jsJI+YPXL7xwrePFYGCCdjdExKEoIp8NPg9zh+89ffIeR6+cZ489+uBD1V6NtRNV6HWYYr18QR7sXtj4kNrnKPqcnM3hDulxdPfud8j1Vy+mB5+HR58/Ix90Zjj38IXTcuGRl/KNvbeV/P/71X/5n7f9umsrkWOPPu9pyW2jxcZOQN231UZ+rPV8ng+xO9vM02eeOPDp2RNnjr505sokPNmo+xq4SXqi+sOkoc0aAGCnOvZiMnn2xLxDyuXr5fL0qbNvpR/dSLfnowfnRdbMayKSf/+jsux76NHmrFh7lGlHtUuIY9rhmHY4pp1OERFx7p+fd+yZezh96a1z89OdhZHr5fL1clkcS88kf/n8se7S9k7Q5VpmTWT+mfSjPSYCq3M9mkxeeuZU7TzIfDXnufrquYfTv3zr3NK0lK+Xy9fLsu/U2bfSLx7udZgOxWm7cKij6HFytsutfofIHmVayh+9P8T72x5l3/zBrmPf45ifdzRHe+os+f/8tUzPL528d659q7mHH1ra55BSftRiAxhR3+f56L4ol0UczlmZiCcbdd/m7IqbhOoPE4c2awCAyTR9z+nnnZ0Ly5mLL9UG9Tj6/Ln5aVl7Rn+k/g3h3MPpSyfmRcq1Xw8/dvpgew7lxveTInJM2yfycaY6aMi6+fPyiVMHNdcLtTnmLz+iX5bDF375jOO1J7sGwd137rnptSeOextfAh99/tz8dPm1482Uc4cvXHrm3IuHL1fn6hqYwM7lR447r751aumtT5eul9c++vFF02Yu+aPPJ5dscn7o3tla4vWXQk9YcqX5PeqxF7Pn5k8+Nnft/Hqvw7xmf+xDHUXXydkq3CGzTkffMzSKjpIf/u3FZ+65d/Z8y41XaynwfmHUYgPoZdBjre/zfOAzrad1qywyrzhFChPwZKPu64+bRKj+MIFoswYAmFCOxpfGzR9H/ePg7GMP7pPym82giYisv+R94uOWDJR75vfNt/20fD8phz3zImsf1Dv3Fd7/4Lo49nd+P9nD2st6y9AetcKEWj9frl+78Np1mT94bKgEvRTOH1H1bz2zVhbH/Ilzl9769JfZ9IuHXS2FPKbZ5Hzma2rrh938lbbuCZcvvlmWaaftxHT9DHsU7SdnC3GHiIiUrfH2PWkv+bXMmjgOai1j68zee3Ba1l4/v765YgOw0/exJjLged7/mTYG1H19jmIy6j6R3XKTUP1hstBmDQAwma6/+rjee5iS6qRUZueHqisfrJ3d56j+e/0l79de6pn90YPzImXHwQsvHmxZOt3x/WQP9XZMrYVZs2Rutm1w39J1kWnnnMj6wAT9dlad6ErqA8qcmn8mOX/y1W9VT85hz7zdedgSQx5Fx8nZOtwhIiLiUFwi47sBOi/fZfPjc2f33zv3Um22uDntHoesvVz9Qn5TNzaALv0fa4P0f6aNAXVfiwmt+wa5lW4Sqj9MkjFE1t59993NZwIAY3ffffdtdxEwuY5p+0REZNrhaC4sizhauvttiGP+meR89+LrwycYKL9+Lf/ItfNzD6cvnTj13MPvHxmi+4aI1EfYnXe0Df5SHn7HLTZ/FDvFTrhDCqWyyLxjzzhfLbpc+WDt7DOnTh8+/8g1ETl2+oRDPv5xy+vH7rklgEkwxud505ziEClbpRE2pe6bQLvgJqH6w8QZQ2Tt/vvv33wmADBe//RP/7TdRcAEm3v4oXlpGx2j6ujzn7Z+P7kR5deeCb1v84mzkdXABMNafyn02v7k0rDldD2aTC5NS/njV197vVTdv/PgQ0v7NrjXmrEdxYTbIXfIZfPjc/P7PEfl8ha2lbh24bWT80sHj8m1y7V2Ii9fblm9W24JYAKM93nezLZ19KgNou6bNLvkJqH6w6QZQ2SN11cAwE1XKpVrI+m2LZ5THENs3PMDYvv3kxssjOR7dhIcmKCHuVnXev/mUT3OQ9PhM0vTsvbM3a1HNKeM9CF71KPYHrvjDrnywdrZffMPPuy6MmwjjlYu5/Qw367n3/+ovHTCc1Quy8H5ttOys24JYKcb4/O8xdzD0aVpKb85zDSL7aj7JtCuuUmo/jBhmMEAALATFd7/4LrMP3PhaNvSY6dPOAZvO3vvwV6TtV/LrMnGR5+tFubkYx1j2x99+LGjs8MlsDP3cPrSW8kXD7s6V7SW3z5n16MPH2tZ0tF9w/YsOZSuqcY6F450FNtmF9whIiLXLrx2XRwnonb3yWNXs+n68i+s7ukXZu89ON25ka118+dlmdcefkzb135adtYtAdwKhnmeD8919OH0pRMO+fh7j48QnqDum9AH3a1/k4hQ/WHSMIMBAGBCOe89fMxmwqrSF1cKeZH8C0++evCtU2eTF5yvX3i/JOK897lnTsn1sgz6tDSn3WM7tr2IjNq/IP/C62tLz5y6lHQ+8eSFL0RE9tz77LmlaVmzzl8pDJPARq3nyzPJqwdfffmD978oicieex986OA+h0PWnqh9wK2dh9acTz97bn66LObl9ULta9WlBx97/+Xz64XqOND3ODrOUqlUlvn5g4/NXWsZFNlm4ShHsZV2+x1Sy1n/npI8N991nyztc4isvVybIa76xfupS8+XvvXy5fWCa+7wmeeecQw7HEzh/Msfnzp74pQ0b7whjwvAhvR9rA3zPB8uc+dBjyKO+X0OESl//L3Hv3N5pP5r1H2TV/ftjpukljPVHyYIkTUA6OvGdhdgx/qt3/nq33/zwjDJepzk6fmlZ+Ztln/8vcvfyYuIFM7/h+Py0rOnlp6ZXxIRKa+9qT9snfmvzzik34VrdvSzTXP5g7Wz++a1w3K5pSdFd8rOJdfO/JvSYy89e+rsW/UyXy+/9kzo/LWhE9jIn9f10sNnHjxx6uy+U42l5Y9ffeLl882hPurnoSXntSeOn7lcqK19/E3ncydOXarlUF57JvS4Er10ouUoCucff/OeSydOXcqeEll7Qj1zudfC4Y5iuL+a3/rqv/ibJ/9kmGTcIf1dflj/4pjNffK9x79zufEekH/J+4QjfXbfuUv7zomIXF977bi39OCnZ7uK2ueo5ePM5Y4VoxcbE426byRbXPEN8zzvoyPz6+Xyx6++/PL5y72jANR9O6/u2y03SRXVHybHbZVKZbvLAACT69/9e227i4CBZl0ukfwo0zVuBZdrVkTy+Z4fQwcmsDPrqvZq6HeYtTT2ObtmXQM2F9exw3uk9MXltjS2C2XEo9guu+EOqRp8n2zdhdtRt8St7z//rbmZzan7JtoQz/Obj7pvsuyim6SK6g+brfg2icgaAPTD2wUAYMchsgYA2FW2N7LGDAYAAAAAAADAKIisAQAAAAAAAKMgsgYAAAAAAACMgrlBAaAfpkcDAOw21H0AAAyPyBoA9Mf7BQBgt6HuAwBgWPQGBQAAAAAAAEYxxsiaFfdMeeLW+DIEAAAAAAAAJtcYe4MqC4tqOLVqBQKKiIhY8aA/lbdN6lpMxGqpRMSKe9zh7ND78SUrMW2TZQUAAAAAAAA2aZzjrCkLi2o4vGIG6oGvfFZckZB3pi1VMR0Nd8fb1EgyseAcuIvSql8vjKWwAAAAAAAAwKaMdQYDJZDILShK66LZBU1TRMSyLKW6xlm0i6yJOJX6lmZwShcapgEAAAAAAGCijSey1tmfU43kMoG29X53ajGXCShdm9pkpRuq6ksHg+nW5bPLsSG2BgAAAABkO23WAAAgAElEQVQAAG6S8UTWlEAit1D796rfHXbNKCIjzGVgmUF3OCtqWxfSYjoaNiTiFSGyBgAAAAAAgIkxrt6g9a6cVjyVVSOJUTpyWnGPOyyRZLIQ1aPFWgM3ywxGDYkM1dwNAAAAAAAAuHnGOs6aWHF/OOtLZkaKgikzoWRO0xQRLRf3uKdSPp8YhviSuYxGWA0AAAAAAAAT5ivjzMxcCWfVyPKoMw9o1ckOxDJXCyKSNYysiEixZI3QsRQAAAAAAADYUuOLrFlxj26IZMP+oNkZCSsVsuKa6d/wrGSZ8aDHMzU15Y6mJJTLVSqVSi4XklTU7Z6amvJ4gnGzNLbiAgAAAAAAAJsypt6gtakHRERVxdDd+Ugus9BcW8yLuujsn4WzVIzKYiiXcJZW/NH06qrMLDg1RYtltJiIZZmrq0XngDwAYOxubHcBAAC4yaj7AAAY2ljarFlxv26okVzSJ+IKZSpJnxRaW5eVClnJht2eeN9enVogEwtoiqJoy4mQVwrpqN89NTU15QmaliiKFggwiwEAAAAAAAAmxljarCmBRG5BURQzWP1di2U0EdESuQVFETHThqiqmq0nzlQCvXKyLFNEUxRNCWhaQGIiYlmWEFEDAAAAAADApBnTOGuKYhf8UhRFxAzqhvgWF1tXWHHPlG0LttJqraHalMcTDMZN07IU+7wBAAAAAACAbTXWuUG7Vac18CVjC4PTiohogUymOnNBIjQ729ohdGvLCQAAAAAAAGzQmGYwsGXFPe5wVo3kYppYxc61fecKVRRFCQQ0aXQIpdkagO3CMM4AgN2Gug8AgGFtUWTNMuN+PZwVNZLLBBQRUWZckg37gwWXiEjeyIqvbYNs2D0VHi5v38AUAAAAAAAAwJbbksiaGfTrhvgiuVhzNk9tOenLR/P5vIiIqJFkTGvdRI0kEwvOgTmXVv16YdzFBYDe+NYeALDbUPcBADC82yqVytgysyyzJE5NUcSyrA1MPGCZZsmpacOkt0yzugcAuCn+7b+7Z7uLAADAxvz9f/75Zjan7gMA7CybrPg2aaxt1hSlHh3b2HyeynBRtVrSjZYKAHapu+475hQR+aL0bv6zYdLf7epe+Nmn+f4JOtIAALC9Nlr9Nd3tukvyn33aI9u7jzn3iIiUvrjcKw0AYDfayhkMAADb5O7HfvbTU9ONXyPlj8Ohx97tF/+668/TP3nA0bW4/MYfe1/8tJbn2dY8bdMAALCNNl79dWwrr+jf7P666O7Hzj9/ap+j8fs5Kb/6p4fObyxsBwC4VRFZA4BbzrHzPz01XV57+jtn0p+KiOuR95L3R5Ln5e7H3u2/4drTf3yh1L6o+bX8p+ef+OP321fe+9BPT+0r/9wkrAYA2H4jV38i4nrk+VPTsvb0X3aH4Y6d/+mpfeW1p/+4mq3cdd+Fn0RO/eRi6X87fXnsxwAA2Hm+st0FAACMl/fiuX1SfqP2XiEi+RcPfe9jkX3/52N3Ddz40/xn7T+tK9tX7Xno+VP7ZO1pvrQHAEyATVV/95253yEfh8+ku9bc9ecP7ZO1pw81spXP3j3z9IciBx565O4xFh8AsGMRWQOAW8uxew6IfPjj9u6Zl3/8Slkc92i93wGcToeUS6We6zu4Hnnv3D7H2tNzNi8hAADcdCNWf9Vtz0fmpfzqj+2atn32l94//ePOyi6dWdtcaQEAtxAiawBwS7nbOS1yvfRFx+LP3v/5dXHcsWc8O/FeTN7vKL/R9aYBAMD22ET1d9efP7RPym98p2cT7O75Cu5yOkYsJwDg1kNkDQBuKXuqrxZdw8R8WrouMu20n9xTxKXcIfKr0mcicrfrrrtdd/X+ev+uP0//4ACzFgAAJsmI1Z/I3Y+dfcAhH/7YlGPe+4557zs2uOuoHHvoAYcwzCgAoIoZDADgllP+Ved39jXTzj0ivadIu8Nz/r1zzbnPymtvfOdMZ/jsvgtnH3CIyP0//fR+KV//8MdPnL5c+5L/67//tUayf/W7/1JEVs2fj3YEAABs2CjVn/fMqWkROXDuJwfqiyLnrr+if9NmKoOau/78oX0iH//H858JdR8AgMgaANxaNtU/xTE//eGrT3/n/ZKI7DlzNjJ//0/T0tE27d0Lax6RTMYSEadn6YFzP3nP8/ShM2kR+frX/01HhieO/8nopQGACfbmW3+13UVAq1Grv2P3HBARuf7K9574y+oXRS7vxegPHkj+THoE1+678JMHHPLh92rzjVL3AdhV/tt/+39XM3x/0InIGgDcSj4rlUUcG98ub/7HV0Xef/Hd+lvEp2e++e6x8+vn7j9z7MXTl1tTvnj6TP3fl9PvP/azn576wcVj6dOX5Re/+K+NVNU3Dd48N8qp3PGvfu93//Zv/367C7LD/O7v/ss/+PrX+Jy3Ub/5m79578I9P/tPV7a7IDsPoZPJM2L1d59nn0h7C7V8+rRXLn76gwfOeP+yazjRux/7WWReyq/+aaNmpO4bixPH/4TzNoKv//7X5LYbrTchhsQtN5rqLbfdpZhERNYAoK8dV3fcEHHcseeGdPTirA3t/HmvI/rs3b/sGrn53Z9/eG7fAc0r7/acqeDTv3ztw1M/qKb5xS9+2Vhe+w5/x529SXCD87ZxN1r+i+Fx3jbj1j5vO/HoRqn+7nI6RMpr73eOl5bOfPiDAwfuue9Gum220PvO//TUtHz49KGWGpO6b2w4b6PhY8PIOG+j4ZazwwwGAHBL+cKyH6p5j2I/tHNfpVJ5LGkAANhao1d/v/r/2bv3uKbr/Q/gbxgXURBUvIsyGSLCwTQqQTCnGRIzJ2Vl/vB4BIqMJFHStBIzTFJQiIoCzBOHrFSEIzbJFFMCK04WoYgMh2Fe8pLmBQFhvz++29idbWwMxuv54NHju/e+38/ns8++OXjvczmr00YEE14RbJxG2BcbAABUGG3M2u/X7izd/uNvDX/dvNtirDIBAPQVNmnku89OGu3az3hF9rAvZU4KSuojFz8W6pVySn4M2ngPNlH92VpNL2fCeD5RwSmlYWseHu5EIpJ0woTx/HFUUKD1HGU9rPe6AQwiMhi+QjUA7rfOsOx+63mvzqCPPzEREZvtQ2LF5JrKVRNeEez+p3v9jqef0GVf7J7Xe90D+s0A+Ge8M9BvBsAtp55xMmu/X7sTvL742WkTNiye4eRgZ5QyAQD0dauxuejHuuC3i4+9FWLU5FqPcurgt/WLoyJf5Kcsb5/Dwn8xyp1K1mj8e4D/ct673KP09PIC+W/1+TO5RCUHi+TOOedxJlx+RWefFUvkzwEAADAPQz7+Th84dC4qcvHL/PeXyk/75L8Y5U71OQelV/E+3L3YnY6+rlNaDQAAeh3jzAZ9/YsTUSEPvDB7ItJqAGBGTg52Cx71fnbahKWf/mjutpjR6ZRPjhJNe/frrfwJ430mjOev2CrYOI3qd3wg92eDD39r9an/VX/AYx4WvLyuhKa9uzv/wxU8H8lV+dWKVxW8vK6ExkQpnrM7coxSyQAAAOZgyMffyZQ12fXE3fg/QftH21bBxmlERz+WLKY2fsXX67lE9TmHiM/jK/74mOFlAgBAt2OcMWv7T/yx8plgoxQFANBJCx715h/VbzkxS1Ow3Ju2CjZOe3f3NCZQX7Lj6ZcVv2n3GEPETIFhFnsuWvo0fbhlPTdyPTeSpFetW/lykdxVRUsnCFd8sDFK2zkAAABmYsjH3+mUJxbSBxujItfvbv9ok7+K4+FOROQeuf5d5frOZZ8pOtm7f+MAAAAy4jprGK0GAN2Ek4MdFnykguWhBUQTxvsQ0anTqpmvkynh3oLxJL8YzamipU8UEY33mUBEdFJ5zTXG6ZSXw1M6OAcAAMBMDPj4k3y0kc+E8aTmo61o6QSseAAAANoYLbMGAADdjro/KuSfVRc9rcPX77qcAwAAYCaGfPzh6yIAADCQcdZZAwAAAAAAAAAA6G0wZg0AQBvsKd0Z6D19YSdzw6DfDIN+6wzL7jfLfnWmht4zDPrNMGJ0naHQb4bBLacWxqyBgcpWOfivKjb8elHGklHcjSX615sdWyZiDuvKVnGXZNd1dEXxRr4hFelKlLGEz91puvLNqyRjCZ+7U2TuZgAAAAAAAAB0SxY4Zq1BVOfG9jB3KwwlqiurF7pxQ9xMUnhxWb1qlBPIpbISoZrz3TmBputJdugs/4SUA8VruCF6XCXKyE7M4XhkBLKJyMPNkyoTt5ZFZQRqv6riuGqsQVRHJGyorz1y4LSw5mRlxXHy37y3IFbfni/LTKikzeu5yoUbdhM2iDQkCtkebupO0FRLR+XUNWhPlkmrI27orLSElMziBcn6vE0AAAAAAAAAvYPFZdZKYudFnFxxrGQB29wtMUhZpu+yPPJLrNoeZfyUVsOhTcsSVXJM/pv3ulN2REKl/xQ/uXBlxXFaWFCRLGtGXVn21iO17ScIa4ho08ZV++QLY8dkqOt59XmcIN6UlMRNO2M4QarPyTI7isoyEyr929NYblGrwxP52dnLA/XoruKNo/j5co/9/KdwvHxmxa0Octc/oSnKyM6j8FzFfJzBN2FJ7LyIHLXPSG4JtSf4TwmPy17DlesBzeXQwoKK5JCG7Kh5qneCanVERB4L4iJTIjbtjAnpof9PAQAAAAAAAJiOxWXWerjAmIJwqp1ugrQaEblFlVREKUQasrnzJNuIT1mxVT4TVLeT73vQkyN/8rnak8Ia2aPjlRVEREI6KR8Jn51BKvkX7XmclGDfFJWg+txiSewy5TRWSETilHmJUTtn6pfGCs+tinDXOOBLdw2H9lRSZBS34zN1NmVFbnaQu0q4valyJ9QLG+r2ZRfl5Ef45i8sqFAYVqatHLeo7L0zZSFh6XJ+Cm1O3xrqpniaBHdOOOUcPFS3wDS3JQAAAAAAAEDPhcxaN8MOWWPCaXd1Zdlbz81sH1bWUHucvFa7sYlDx0X1JJcUE4oqiBMnn0nxWJBcskD2SJSxJDiBk1uyhqsQkT3fkM1dV7t6e3IIKedxdKOa8xJlLInIoYUFaxTTWG5R2SuKfFOWZwSpTORsyOa2Z/QiHPKJiCLTz89hXo6bEUZg1ZUWHaeFqzuYi6ov947aJjuB7eHGDQmMyihb5bAsT2VYmbZy1DzlpmGcIFHI9IWUXyRoiNJ7qiwAAAAAAACAZcMOBr3LuaKclEzZtgPFR/LIz5NDxGH7k7BObmUuUa2QprDdNRVTx8zKjNA8Vquh9nhl+yMPN7bcT/3WdcsFJHtIgnXBUaVK5yiXV7wxOKHSf/NeNWlHjwVbN/tVJMzjZzQoPuE2c3V6bkF6bqQfkV9iQXpuQXrucqPmhoSiCqYDzSwwZrMfHT94qMPNHAzk5jmFKk43dHwiAAAAAAAAQO/SOzNrdWXZsUv43CV87hJ+7M4ShXxEQ0nGxlUZDcyBhnPaz1Q4oW7nqvYz5cqR1LVRtoulqFh6IXejUsmijI2rMqR7X1JDduzG7GLljIZIUrJSRSSqK1vFXcKP1byTo8eCrZv98viSjTJFtUKaMmumB5FHEG9KZZGgvcxDeyrJZ4zaEU+i4p1832V5U1ZsNWgEU0nskogc8vKUm3gYGrWQUoIdNO7yKSreOIqf7x+Zrml7AXbs9mNMck22bSgTDwnkhgQSVRJxPEICuSGBXE3DsgwiqhUScTy6wRxJtmnTe24ePkQnz2GHUAAAAAAAAABFvS+zJspYMsp3WeJJ8vLhePlwKCclwnfJquL2E+r25OedLs3mzkvbw5xDFTkpEb6SbJRU2SruvIiE/AriePlwvE6mRPguyRaI8nIO1imUk7uKOy+NOYfyE339VxWTKGNJMF8oqf14foSvQkap/nR+3p5z0kcNtTn5RbWkpP50fp7cAKK6Pfl5pxtEGUuCfZflaVuWnoiIHRu1kPIjYssU02duHj7yg5Iaao/TwjlKkxwbSjI28h38g/kpFJkuXZ6/oSRDkvtje3KI8iMclvC5S/gOy/LUDOZqKIn1j8ihhQXbFYaeeQQml+xNnFKZ6OuvMu6soSRjSTCTVtO6AagkuZazLFg5WVl2IIeIhAeK5YP5EVxpalXxZ5VyA7SpP12pbWRfFyrZl2/SHJ/7eD9mvjAAAAAAAAAAyOl966yxY9fnehJXtgtkxnQ1a1TlpNQW7C2QnpM8Z+Mofn5E7PTz0uROSeyyvOO0sGBvsuScNTHFG4P5+UTy22sS5eRTQUWBJIsU4cmdl8j3z6Pw3EbpYmHL2XzflMStZVFa00Ydy1m2fEp4btV2bse5lcDkgvA8fnb2nFnya4Rx54QT/0hJRiCXmFmi4bmK8y5LYudF5Pj5R6YfWx4ovwha3Z78oqciokKIQtYcq5peLzhy4DTbc3VUHCdQoTF1ZdlRyxKP+yVWrVez5lodzSypmJmxJDhhHv90+taMQHZ7+bSwYO/sfev43Gytr4sTV7L9fOjOVVEH64jap6kWH8kjIqrM4/tT+/vl5+/D8ZKcIazJqayYEr7Qh4jI01NrJQoa6k6SppF9WoiKd2buUxz+NT4iuX04nuhQcZny28hx0zTaTlRXdmhrdmIOUeR0hcm5xw9mxqoMMhs/PSY20IAF5tieHCJhXR3pcIMBAAAAAAAA9B69L7NG5MZVyBkFxmz2y0tQXL9/yoqYELlERkhE4pT8xJPnRBTIJqK6nWk55L9ZlqYhImKHrMmNzI/IUaxqyoqY9rrcolaHJ/LzFZYn81gQF5kSISvZcOFxJWt03aGS2U+TX0kUHidrXsj0hbQsLSOCG0vZm/IpMl2pNG5GxfmMDgpmewSyYwNVmyEq3ricn19BfolV22cKlgQncNpzi0SSzUN90s9nbD/muXE5f1kwpUuTmG5RJduJSMSJihMSEdVtWpZIK3JXj5Evv25fduJJtjspb7NA1JC9KX9hZHheDuUWUBp/Hn/z3gJPIuLEZcgaULYqZxk9JZ/bMrHag3k5lQqRyOnJJK39eH4iP1/5ksj08xmyE1KCHZR3U1U3pq+y5iSpYBMZeb+F3kAsNncLejL0nr7ERCRGv+mN6TH0m77Qb51h2f1m2a/O1NB7hkG/GUBMZIVfGwyFfjMAbjkNemNmTQfKA5GYdaakj4SiCvJLDFVOxHDnhFOOUFs5HLY/KSwxRsw8uxzFvJ4BlMYrdcAtanV4ET+fFLYgCJwdSXl7SkWhpHa/y5LYJWlqMjVUcZzo+Dr+HpUnfGZtlW5CyuawvSJXSB7GRi1MWCY/AFCUsS7xuF9idiARsUPWFFRNL1HJ/rA9pAPl9hHRGG6IwgnutdmJ6tpGxbmJx8NzV1NeDlHImoICWqUytbYTZKuP6ZcVZcduPx+r+ekpK3Kzg9yVgvID1qaEJ66eznTGgU3L8ig8V21SdcqKrSULOpeubdd9VpQDAAAAAAAA6E56Y2atoSQjN21PfoXCkmTm39+xK4lqhRVElJBbEtuelOEuX+HvmxLsSxSZXqCyBaf7csmoMUXnDmyqrPGZFTdnjMpTbu1pHY8Fye3j3ZjpqMv44/cWxLpR3c7lCZX+m/dGybI2HmpGvUk11J0k/6eUc5r1pyuJZqmenL0p33/zXi7lSgIha5JDiIpVTuxm3D3ctGbE2DNDJLk8LoXn8fPTMiK4XTbgDgAAAAAAAADa9brMWkM2d17icfKPXJG4egyTzKnbl52Y08FlFkWSzFrhlZCikJRhpqbm+CUuVzNhsH3UGJGouIwkyR23uk0pNeODmHXrRMUN7BAdUjwha45tFgYnzFvlmU78lIopK47pmhhqqD1OXqvVnaxmvbOGWgqPi3VTSqUxO6K661afdsYZb9gZzBzkhHXZodujTDmgrP50pbE6DQAAAAAAAMCC9La9QYtzE4/TwoKKgowFUSGB3JBAbkjgzPF6FsJh+1NlkUB5E0lRrZoxXSbQUKd25qPOl2dHpVRMWbE1dkHMZr+KhHXtO5MWb4zIIaLKxKidKkvftxMVbwzmL8ssVtlDs27ncv48fmyZlmtl2LHbcyMpj89MZtR10qIoI1vtlqMaOiQwWd00yfrTlQZsO6AWO3SWP+UfMOsgOG5G+kKqTNxaZspKyg7kkP9TQWZLIAIAAAAAAAB0U70ts0ZEyqmZssyESk2nqucRxJtCFQm5JQpR/cvpmJvnFKrYU6qQq6orLTqu6fyOSRc1W8AmYseuT5xCtcIGIhIVbxzFz/ffvPdY1Qr/4ynBXPXJNVHxxmB+vtLuDRIeCwqq0r1OLgvmbiypU3dxu4aSjI1pknGC+RHcnR2dT0SSoXYUGaV2cJb/eB1HvZUdyNH95I54jPEiqqlVSTJ2qcCYzX6Us2yV6RJ8dedqVNYHBAAAAAAAAABLnQ0qOlRcpib9wgnkctj+lJ+4defM5QvYHg2i4tLMTQdrpviRfrkqt6jsFUW+KRFcSlwdMZNDJCxdzk8hvcvpuKKZT/klJqQEx445tjyQ7dEgKs5dzhfSFEPLK94YrLComXTnzYwlwQmV/pHpBbFuRAsKqojvmxLMpWMKo8kaSjLWRSRULixQl1ZjeAQml+z15M6L8BUuLNierLJYm2SRu4T8CvJbuDl9a2wgFe/M3JQS4ZviPyU8LjuC66Gh5LqyVb4pFRSeq7wDpiTVqH6KqApRRnYehecabVUy6bYPsarD7jTfhMaetsmOXZ+4Z17ipp0xIfLN0NQAN42drIFIcLBCfhtZAAAAAAAAAJCwyMza8fxEfr5q2H/zXm7sgq2bRcsTUoJzUoiIyG9hwfqtteuC9c2IeSwoqKJVUSmJ/PxEppzNe5M9c0fxjTwhlB27Pff0koicZcHMCK8p4YlV2z22+kcYUFbdTj4/nyTpMxnpwnOb9xbILbhWUCDi81OCuaLc7DVcD9lpfolVFUxWTlTXQET1wtyi40RPyVfjFlWy1yN2XQR/4+yqNdIskiSJmXe8koj8I9OPLZeu2hayIDlkQUzxxuWb8iN884nIP3IFb07QzBDZKv7SZNyU9k0wRRkbM09Lnq7Jya8gP54uW1BIFphbr88+qh1gtn3ILF6gnEbUdhMaffCXW9Tq8ER+yvKMoPY3UUMDKDL9fIZeDSjLNHanARgPi8VKeuet4GCFlHtTU/Py+NW//vqbuVoFAAAAYHQTJ/5ja+ome3s7WcTGxvaXXyuXLl3e2tpqxoYBgMVl1rgZFecztJ3Ajl1TELuGSQyxmcE7IdvPx8qed4sqqYhSW6xSyGNBcsmC5LoGkawchel46srxWFDQuEClPfK1q6mIm7H9fEaDqI6I3CTZKIVz1DdYDY8gXiRtVRzzVRI7L/G438KC9crD0ELWFFSx+b4pB4RMdswtanW6h2y8Vd3O5b4pFcyZU1SHgLlxM7YfW07SHQ/KVjksyyOiKX4LN6fHxAaqLtfFDllTELKG6sqyt2YX5aQk5hykKsmS/CWx8yJyyD8y/ViG/IXCGunaal6RK+KWL9BlIFjJ1oMVxhywRkTSbR/2lSWHtHdshzehJmpuMx1PCFlzvnGNgQ1Qd1u2Kz5i1FF+AMY1efIDfP4c1fiK+FcW/fOFrm8PAAAAgImsiH9lxIjhSsFHpwVNnvzATz/9zyxNgq5nZ2fn7e2lFKyurmlubjZLe4BhcZk1HbH1nBCnkYdsaBWzgwHHwyRbNLqxjVCsW1SGcgKFm7H32HINhSslXEICuZqeUkeuzMCYgvQYTmDHL8EjMCojMCqDqK5BJD1ZbQvZsdsLYlWv14ATkVtA7kRsJt+n/HRgctVeUSfuB25GxbE68y61ZkqciGONbti7ALorKysrIvr91uWlx9KYyGRXz7cf/hcTBwAAALAYzK83b/346c9Xa5nIh8Fxo52G4teeXiVt23tc7jSlYEnJ0ZeWvmqW9gCjt2bWOkmUsWT56aitCqOoyjITKikyqqdNmjNKzq4D7BCVxdG085BP5XS6hR5ushFtGnKInc0cGS1R2w11unMATO9a09/X7v0tOzZvYwAAAABMR+nXntFOQ2VP2dvbPTh5ktL5J36pbGxs7Lr2gYkxabWT1+tlEZ+B7qq5NuhiyKwZqiJnWfBJv4VPRc32JKo9kpaQr359fQDo2cTmbkCPZure01S+uCe/cT268WaEfjOAWO6/oC/L7jfLfnWmht4zDPqtQx3+2pPxfqrS4rNE9OOPFf/8V0xbW5tJ29YT9ehbLurIFtlxeXgGddXLwW8OmiCzZhB27PZjoWWZUdl5CcvyiIjIP3JF7vIFPW3AGgAAAAAAAFiAwMApRHTiam2rNI/mP8Tr4Yf9MV0UwNSMk1lz7mt7q7HZycGu41MtBtsjMLkkMNnczQAAFbcasX5n7zLJ1XN/2LvM8UB7J/M2BgAAAMB0PgiOu950izlW+2vPK8febxVLMmvfz0u3trLuusYB9FbG+d/sH24Ddn5XbZSiAAA6qehHYdikEeZuBXSFU6eqq0/XENFAeyfmh4l/9VW+WdsFAAAAYGSyX2/kf+2pP/f7qVP4S7zX8R3Ilv2Yuy1AZKwxax8ueTh4fbGTgy3vYU7vGrkGAN3Jrcbmnd+d+vJo9bG3QszdFugKt2/fefa5fzo5KXxh29ra+tdfN8zVJAAAAABT2FckKP2+nMViySK+PhPu3L1z+/YdM7YKutj9+/dtbGyypq9QCpqrPcAwTmZt9KB+x9aFvP7FiZS9FUYpEADAAM59bf/h5nLsrZDRrv3M3RboIk1NzU1N18zdCgAAAACTU/ru8MaNm2SlvJr8Q0PGt4pbmWNMBbU8y1597cUXligFP/5ku1kaAzJG28Fg9KB+eS8HGas0AIBuA7vfdAZ6T1/Yc8kw6DfDoN86w7L7zbJfnamh9wyDfjOAwj/jTU33+vbtu3XqUvkzWltbidqM1b39nZwGDHCRjzTeu/fnn1eMUniX65G33KFDJYcOlZivfvzmoB72BgUAAAAAAADo2Za+vPzFFyOVgjnb/93a2nuMRFoAACAASURBVGaU8kcMH1aw90tn5/5K8ZiX4kqOHDVKFQA9FDJrAABa4SuZzkDv6QtfBBoG/WYY9FtnWHa/WfarMzX0nmHQb4YRt3ddefmP5eU/mq4qf/8HmbTaH3euMpGR/VyJKOyJkJKSHphZwy1nGDG6Tg1k1gAAoJtydnb28RkvH2lrE//0U4WxvnoFAAAAAL0UN/yU+NO/mePZox9a5/9P87YHoDtAZg0AALojBweHr778t7v7GKX4rl1733jzbbM0CQAAAAAAQAkyawAA0B0NHDiASatV/FnDRIb3GzSyn+vUqVPM2i4AAAAAAIB2yKwBAED3denu9VdK32eOh/cdlD97vXnbAwAAANCbjeo3eJTjYNmxeRsD0E0gswYAAAAAAAA9yeDBrq6ug+Qjt27dPn/+jy6oeujQIYMHuypVfe7c711QtXmJ29qIyGeg+67H18nH29qwoD30dsisAQAAAAAAQI/h6ckp2rdLNR4Z9XJpaZlpq+Z4FBXtVo3HxMSVHOmB+2Pqo/ibQzO+Lvb19ZEP3rp1Ky39Q3M1CaCbMFpm7f79+1evXm1ubm5rw5ZtAGA2ffv2HThwoI0NvjawEMP6DnxoiBdzPLzvIO0nAwAAQG/wyMP+zEHtTckgNU/nkUQ0gzvN1Jk1f/9JzMHpG5JBauNdRhPRdG6wxWfWmpubl8evNncrALoj4/zxef/+/QsXLgwePNjV1dXa2tooZQIA6Kutre369esXLlwYMWIEkms9XUtLC3OQHvSKfPzevSZzNAcAAAC6l91nj6b88hVz/LTHoysmzu+yqgtEpcknvmCO57GDXpv03JAhg52dnW/evNllbQCA7sM4f3lev3592LBhgwZhNAEAmJO1tbWrq2tra+vVq1eHDRtm7uZAp/z555XXVr0xj/+kfLBN3LZ58zZzNQkAAABArRncR/fsyePzn719+4652wIAXc04mbW7d++6u7sbpSgAgE5ydXW9evWquVsBRlBYuL+wcL+5WwEAAADQMbdRI4cMGYzMGkAvZLTZUiwWy1hFAQB0BovFwoKPAAAAAJZtnPMoT+dRsuOurHr8gNHeA0Yzx94DxhDR7ZZGR1uHrmwDAHQfWIcIAEAb7CLeGeg9fYnl/gu6Q78ZTIx+M5Rl95tlvzpTQ+8ZRq9+u996n4j8Bo39bOZqxXirqfu/5f59IhrvMno79zX5uFgsJnP8o4p/xg3WBf02dqz72LFs+cjtW7eP//CT6Ws2IdxyaiGzBgAAAAAAAD1G/t7/PvTQgxyPsfLBa9evf/hRlqmrLijc/+CDk8KemG1vb3f274vNbS1EdKPp9qh+g53s+pq6duhBPDke+4t2q8bf3pD8n7wvur49YFLIrAEAaIdvZToDvacvjL4yDPrNMOi3zrDsfrPsV2dq6D3D6NFvTU1N8StWd3yeCbS0NK9+/a1JD/ix2e676747d/syE/8gOE56Ckat9RSm7bdxXhzm4OjFSuZg2nA/IvJ/8IH/5O00adUmhltODWtzNwC6lCCGxYoRGH69MC2IFWRAAYK0GIFQUoQgJigoTdjhFTFBhlSkK2FaUFBQmunK74kEaUG6vDMAAAAAAL1bU1MzEb026bkPguOYHybe0tJi1nZBt/Pt+Z9XlX/C/Lz146fmbg6YSm8ZsyYUakgYcDicDq/s8ByV8nW4QmdCgaBWNeoZGkpqnyBPz1Aj1q6EEzY/ID6+UJAZGqrHVcK0pPgs33GZoRwi4nh6U3n8FkFcZgdFlJerKUkoJKqtrT1TWFhdVVVVXl5OAak1pXH6vmDBlvhySt2h2ALlm0Tnd1EoFNQyb4U+nd/hPanjTdVRORqfVy43NGx+Urwu7wwAAAAAQG+WsOqNta+vtFbcxG/fvq8bGs6bq0kAYEa9I7MmiPHiaZhyH13Uqi2PIIjx4lV1mLpRW35AQPTaHUwyqTOE+5N48So5poDUGk9K4sWXBwQEyIXLy8spuqg1U1apUJC2pbC6/YSqKiJKiokplC/Me2WmutenPiMTNj8gPj4pbaVnmOpzGnI/gi3x5QHtaSxO3NroeF5S2spQPRJighiWQhcHBAT4+vrOX7s2zFP/LhamJWVRdJFi9RpukoDo1LUr4zTUIRSkLU6KV0oBBkQX6fC+a74nJalCHW+qju5tYdpiL9X7R7U6IgPfGQAAAACAXqam5syixS+YuxUA0F30jswaEVFAatGOME+VsNGGd8mVX1tbe6YwaVdWFs8rq4PMXcc4caWtcQoRYVqQ1y5ppTvkk37CtCCvXd4KL/JMdVVVlexROZMEqqIq+Uj03ExS6QbtGZl4L694laD60WOCGJ5yGit0ZWqAV/zitDD9BptFF9Ws9DTCeEDh/l3lFL1Wzdsif5PU1taeOVO4Kz4rnpe1S12yTJgW5BVfTgHRRTUrQ6XDwwRbFvOyeF4dZ2OVq5PT/gJ1vKm0lcOJ21HTngSt3b+YF0+Kp8v3Z+jcaMratV8Yh9QaAAAAAABA5zw6wm/aCD/meNqIieZtDJhO78msEXkac46mtvI5HE5oaGhcpiCGxcvq/AggoSBty5mw9mFltdXl5LuWwyFfKq+uJbmkmOQZuWs5cZml7Xk5YVqQV7xvUWl7WkaYFiSXIhOmBS2uXss8rZiR0Y1q/wrTgnhZFF2klF3kxO1I3aU+tybJVzF4rCwiouii1rmSCozwDmpOrJH8TSJ5F+NWCtIW8+J5XqSYzhLEeMWXU3RRjXzGjcMJzSxtnRsTVEi66fCe1PGm0laOmqc0n47UmjpYoLMz0HsGwLKwhkG/GQAbGHSGZfebZb86U0PvGQb9ZgAxkRW6zlAm7re7d+4Ska21TfIUheGNd+7e7cFvGW45DXpTZq3Lha5MDciK73ya4syurPjqudLVrwSFWRSQ6klE3gG064yQZJkd4ZkqCpivOnZJ+rTSrExVtdXyExsVsy+CmKAk7/YRcsK0IK9d8zsYmCWI8YovD0itUTNqT5Jb8woipTI4YWuLxhFRYRIvi1KL1o4jIk9PUreinIFqq8u1dZNKS0PjSouqldJZwrSkLKLoIrWzPkMzS023UJmxbipNPL0DKEsxYQsAAAAAAAD6OHLkWErq+xMn/kM+ePvWreTkVHM1CUwHmTUFQkHalqRdVUREvvPXrozrZIKEM86X2ideSqoQCvYr1tFRCoNJQvFi5rZmhkrTZ2EcYpY8k0uxCPfvUh6yJv/CFvPiywNSawzKxwhimKFncqOzwtZG7+J5sXZpmvYoFMR48bICoos0Jd84caU1FOQV7xVUrTDVkhMayiESFPKIoseFSndKMF5mTXimish3nF7dEJpZFJ3Fa1/cX7h/VzkFpK40x0r/6m4qoxcvn7AFAAAAAAAAvYjF4o8/zjF3K6CLWJu7Ad2IICbIixefVU6+vr6+vlXxPK+gtDOdK7EwSzGJI0wL8vLixVcxVVBWPM+LFSPQvnUjMSvLUxYvRiBNnzFFcsZJ5oMyaqvLKXquUrJHKEiLCWKxvHjxFF0kTYIJBWkxaQKhpAjK4rGCgoKCgli8LArwVh7MJWQ2D4iWn0RKRJzQzNKa1IDyeC9WUJpQ+ZK0IElaTesic5y40prUgPIsnleQUi8ICrOIqKpQIB/M4gWpF6PcAG1qq8vVvMqOeHoHMAmn9jKY9GaXU7mpjMzTO0D+rgIAAAAAAAAAzXrPmLXyXVtiqpWD3nNlY8YEMbwshXWzMlemBXnFZxFJNt9U3maTNG6qSdKRafFZJJ/rkk6OlI3iylwpiPHiJe3veCU2ZtBUUtrc+fJrhIXOjSZeoSAzNJSYjEt0kWIiixk3Jr/GPuPMrqxd81fGhRKFZtbUzK3dX1hY7e29du1az1CFoUrtQ912qFlzTUhhpa1haWrGnZ3ZRdFFNXMLFwcFJWl9Xb5rS0tbw9JiFu86Q9TediaxRuVZPBa1vyMBAb6+vpIzqqqyyssDoqN9iYi8x2mtRLHRBgxZI2kKUjJLUnhGxzFjHd0z1fsFAuW2e3qGalgETe1NRdTxva0XDFoDAAAAAAAA0FnvyaxReZWadIi3JJ8jTEvKooBUxeXoJetrSR+f2ZWVpbhZpvymmuXxXizl7TIVB20xC6TtkE+icUIzW1t1az6znyavnOQX3w+dG028pLSVoXGUlqSaWKPQzNbWzA4K5nBCOXGhqkPLhIKYxbyscgpIrSkN2x/kFe+ruIS/MG0xEyutGRezmCe/xD8nrrSUiISea9fWEhGdSeLFS9dMkzlTmBRf5e1JytssMG9GdHR0VhYVFVESzysotaZ0HBH5rs2UNUAQk8Wj+Rozm11Ap+xcB/dMVnz77SU7oag1U/ebSnKetnsbAAAAAAAAAEyl92TWAlJ3aFluv7a6nAJSVab3hc6NpixJ0oITV9oap3Jhe/nRqWvnMqmjwiQ1sycliTXDZxBy4tZG7+JlkcLqXtKtHMNI7X6XgpigJHXDq8rLicoXB+1SecJ3/g5psorj6e0bnSp5GLc2Op4nXeqNiEiYtli2HQInNLO0Zq5AJY/D4UhHXxUSUfuaaQzPM0nxaod+CbbEl0cXraWsLKLQzNIiiuncnFylRhlrSJYuZXR0z6QW7QhTnpcqP2Ctw5tKWo62e1tPBg7qAzAJKysra2vlVQtadf1CAgAAAAAAwOR6T2bN5LzDpDMpQyk6S3ErSaMQnqkqJ6L2dfSJpEPZvLyIootUd6T0XCkZNaboTGFSeZXvfGnSRuEK+TF7me3j3ZjpqLwg75rSOI40rya3HQJHzag3uYar2YyztrqcaL7qyWlJWQGpNaG0RVZzZiiRQOXEriU8U0Wy5dkUpoZ2iidHw8xPCZPfVADdGIvF2vzeOzye8j8ua9Yk7t5TYJYmAQAAAAAAKMEOBqYQmlkUTeXxi/VZWL8jkmRWajRlJcmXy4lbG02kYaNKDidUxpPIU3IY5k1M0oaJe7afpGUQVmgms2FBjECyXtwOXVM8tdXlGgZBqYnWVlP0WpWShWeqDNh2QC2DVuhnNgOV7VkQOjeaKKuwS9N9prip1DFshwcAExg1agSTVmsTtzE/TDwmJtKs7QIAAAAAAGiHzBpDQ7pF56XqlUnSIFvkci+d2nNROvkyLm5laoBCekUQw8si6ijlIhTEePF4W1S3IRWmLVbdmVMDTlxpUTRl8Zhpibrm1Zgl7FS3HNXQtaGZ6iY8ak7O6Y0TNj9Az6yYMG1xvOJmoExqLcnUWS5Fam4q4xMUZplt21MAdf64c3Xq3mXMz/xv1pu7OQAAAADdGovF2rw56ddfyuV/Kn46Ni14qrmbBmCxkFljMOkWXoxi0kKwJb5cwwUdCl2ZqlgiU4VyMkaYltZxVkuWV+MQceJ2pAZQda2QiISCGBYvKyC1poYZThakPtMjZLYIVdyfQdqquNKaIt8qXbJrQkFaTJJkwf0sXpAO7ZY2Xd0oNCLSfWiUoFBdcs5AspXWdCIUpAV5xZdTdJHCGL3QlakBVB6/WE2vCdOCWDrmKvWlclMZHVZZAwAAAACzYbFYr8TGrHvrdfmf55572tzt6km8vb3mPhnmoKh/f6dXl79s7qYBWKxetM5a9X6BQHVdMfL0DOVIEla7vOJ5QZS6dmWYJ1Ht/sW8eAoIIENza5IS21fGkgS8gqqLdqz0JCKq3bKYl1UeQGFa186STL6ULWom3XkzLcgrvjxAMnosrrSGgrzivYKoRmE0mVCQtpgXXx5dpC6tJikvNLO0xjvIi+dVpWGFfKEgbUtSfFY5BUSnFu2ICyVB2pakeJ5XfEBA9NodK0M1rRUmFMQwSSnVQoX7d5WT71qdMjhCZt9To60vJt32IU61xPab5ExhYTVVMTt7BkQX7VDuPk5caVF1EC+L51UVnbp2bpinJxHV7mf6iaLXdnaDBPVUbirlZiuQ3Nt6EO5XuxMGAAAAAEAXiI198eWlL6jGr1//65tvDnV9e3qu329dXlzyHnPsPWD0B8Fa9lUDgM7qPZm18qx4XpaaeHRRa6Yk8VVaQzGL4+N5WfFERAHRqTWZ47aweAZOCGWWQIvnxS9OCyuNU6iC5yVtSYC2lBcRkTAtSM3kSyarRgGpcmk0SaqHydwxZUqSb6k1rcxZQqGQiGprt+xS3jyAE1daMy5mMY8XM7e9PUKhYP+WpF1Z5ZLsUo0shxYalxkat1IQszgpi3ktAdGp8+eGhbUncqTJuID2ZJ0wLWZLteTpqqyscjW7GqjvgfZdSI2E2fZBYScIhtJNEhAQEJ26dmWchjcoNLO0Zm7aliTZLcNcpCYNZ0QqN5Vqs2Vk97auBFuM3dUAncaysmZZWcuOzdsYAAAAMKlBAwcS0dm/L+4VlTKRFRPnE9GgQQPN2awe6G5rU+P9JuZYdgAAJtI7Mmuhma2tmR2fRpy4zNK4TKFQSCTdszGztVW38nWsWK6K9kq0NSlsfjTtUMwAMYPY1CRwJIPP4gtrmWc4cWuLxnlKtyUQpi32ks5uDVAdAsYJzSytWUnSJgliWLwsIgoIiE4tUptc4oRmloZmMjm0XVnx8Vm7ZOPlBDFevCzVtGFVlTRL6astY6VAsGVXuTEHrDFNj1sbHc8rFGTK7Wiq602iWFBoXGZoXKYkZ6nTOypXnWEnKDZUv2Zz4kpbNX9dJSg06thAiyEmsbmb0IN1pveYK4f1HVg6L92IxXZ/YhJb9gs0BTERod/0x/QY+s0wlt1vlv3qTA29Zxj5fttd950ss+bRfzifHdTTPxxnzpju4+MtH/n771u5//m8tbWtM8Xq+894j+5Do0NvGAC/OWjSOzJr+tE9O9IVVXDiMpVTIaGZNTUrNRShlDoJlUsdac+qSNrVfuXKoqKVuswmlCaXSCgUSk9W20JOXGmp7oOQPVcWFZEnEYfJ9yk/HZpZUyPsxBsVmtlaIzTeUmhdcM90Ac+VNa0W8ULAQjQ0nN+zp4DPf1I+KBa3pb//kbmaBAAAAKCvhx/2z/woTTU+YIDL1m0ZXd8eADA6ZNZ6pK5I5HBC9ZwUqNCoTreQw5GNaNOQQ+x8DUgiKUKPQPfS1ta2es261WvWmbshAAAAAIYbPmwoc5BT/TVzMHv0wyP7uY4aNcJ0lY53GX34yVTm2MHGznQVAQAhswYAAAAAAADdx8oHnhnrLMk68dlBXVYvL2z2iy8sUQq+/8HHRtk8objhp2xpZu38nSvr/P/Z+TLVOlMrLCv7ITDwEaWE2qef/sdENQIAMmsAAAAAAABgfrV1dURkbWX99Nhp8nHR2XpTV81isbamJqvGt6Zs8vnHQ6au3YiampqWRMXY2/eRD4rFbY2N98zVJACLZ5zMmrW1dWtrK4vFMkppAACd0arLxiMAAAAA0M3k5u68dvXawIEKO4HW1Z09/sNPXdaGRYc2MQc21tbbua+xWD1vMEpra9vdu3fN3QqAXsQ4/0zY2dldvXp16NChRikNAKAz/vrrr759+xqtOGx90xnoPX2J5f4LukO/GUyMfjOUZfebZb86U0Pv6WO817iVCXFubqOCpgbIgnsL9u3b93VXN0VMRNQmbqu9eZ4JsKys5Z/qpBC3h87fvsIczx79sKTYzpfcK/8Zd3Tst+ndt10Hu8oHz9aJ1iUmtbS06FpK7+s34+iVt1yHjJNZc3V1vXDhAovFGjBgAEauAYC5tLa2Xr169erVqyNGmHBFWAAAAAAwim3bkj08xhLRWLa7LBgcHHj8+I9Xrlw1V6uM6+LFy8xBpPcT8vHzf1wwR3PUmDBh/NChQ+QjV65crao6Za72dGjpS9EhIY8pBR+c/EDVyVOff/6VWZoEvZxxMms2NjYjRow4d+5cZWWlWIwEJgCYB4vFcnZ2dnd3t7HpeeP2AQAAAHqbPn0ciOi9E19cvHudiWydupSI7OwsZzvLH3+siHkpzmeCt3zw71u3cnM/N1eT5AUGPPLvf3+iGo+Ojj3y3bGub48umNuj5I9fvhSWMJFXJz413mW0Jd020LMY7Y9PGxsbDw8PDw8PYxUIAAAAAAAAFu/45eqLd68xx5fuXh/Wd6D2803H2sr6s5mvM8fts0E77dChI4cOHTFWacb1wKSJzMH3l6qYg6nDfIlo0uSJ3Tazxvj1Wt2v1+okx1fPjncZbd72QG+GYR0AAJbKOzycQ0RUI8w/Wa3Xlb4+3kRUpf4qw4sFAADoQkb7HGQeqnGyuqozDYTupK2t7dtvSx57jOvpPFI+fqD4oLma1JV2nC7++NQ+5vhf42e/MIFn3vYA9CzIrAEAWCDfhMK90e6yh8mi71bFL8s/qde19Vnz5r53Uu1ThhQLAADQZYz5ORievnfTo2rPFGU99/hmC/mSydbWdv78eUqT6Soqfu7Oi20Zl1gsXhaXwOGMVYqfOSM0S3sAoAdBZg0AwOKEp++NdhcdfiM+Zl8VEfm8+s3efyXvTadxy/I7vNbn1VS5P0WMViwAAECXMe7nYP6yeTUqY9ae2LQ3mr792kLSakS0PnHt/PnzVOMzZoY1NJw3de3bpi6VrbNmxqmgLS0t1dU15qrdso33Grdjx8cuLi7ywdOna/65+MWbN28aVuarfk/NGDmJOfYbpJwSBehKRps6DgAA3cOcjzc9SqJPJX9OENHJbY+v/o7o0ZgEDZNZ5IS/8i82fZeVVW/cYgEAALqK8T8Hq05WK/7QE4+5k6jkawsatT3Wg01Ep2/8/qXwCPPDxIcOGWzSeo8f/4GIRjsNfWSoN/NDRL83nL9+/S+T1gtKpg73nTqs/cfo5S9a9PygQQNZLGv5Hx8f75DHZxpQWun35cyB36CxzA/zsKLiZ6O1GEAfGLMGAGBZwmfNIDr88TaFlV/yP8p68dHox0J8N2tdESY8PXkGHV697GuPwmgjFgsAANBlTPQ5qHDaS9FsOrx6m+V99m37dY9sSXjvAaO7YBzQ2jfeLtp/YPbsWd98c0gW/O23k42NjSaq0d7eXinS3NwsFotNVJ0qZ+f+ERELrBW3Rzh0+MhJMy1fy3S1p/PILYExCvG7xn8L3jvxxX/ry5jjNZMXPjHmEcPKOXLk2OzQeQNcnOWDl/+80gXjKwHUQmYNAMCi+HqMIaqvU57KUP31t/XR0WPHEWn+M0DyJf/7+UQJRiwWAACg65joc1Be+OOPEn1XjKUQjKG1tbW0tHzcOM+jR7/vguqiohavem25UnDXrr1vvPl2W1tbFzSAiNLTtwQGKGeUXnkl5pEp080yUi83d+eoUSNHu42SD164cHH7p7lGr6tV3NYqbpMdd6aourqzxmgRgHEgswYAoF3XfYdpFOM83ImOCE8qN7uqrp7IneMjJg1TV3wTomZQfVb81ioi6RyA9kIMLbaH9V43IJb7L+gO/WYwMfrNUJbdbz341Znoc7Cdz6sxM0iU9WG+xl7qob2n5eWY8BX5+Hg/+mjwg5Mn9ekjGUrW1tr2n7wvbt++bYrqXnzhX8xBS9t95sDW2mb+/Hmbt2z9668bpqhR1aiRI4iouOGn87evMJFI7yeIyMnJ8fr16/qX19k36P79lg0b3u1MCboxzw2mVQ/9X9Xs8JuDGsisAQBYHNHZM+qfcPfwIvV/Ufi8mhrtLsp69j0tS8Z0VOwzzzyl9IQnx0OH5kK7oUOH9HdyQr/py9nZ2cHBAf2mL/s+fWxtbNBvYIFM9DlIRES+T8xgU32WdO8Ci/nsc+jjQETPcrjjB4xmIsxU0FGjRt68+beJKnVxcfn880+Z42nTpsrijz4a9NZbG9ReYm9v7+TkKB+5f//+jRu6LoFvbc0iotCi1TeaJZm7A7xkZ7t+Y9nsvwe1v0xHR8dVq+JdXQfJX3vx4qXNm7c2Nt7TsS5NbG1tiSi7+mtZZm326IdH9nN1HzPaztZWr6IGDhxAPeSW69+/v9r4kCFDzNX+HtFv3c3AgQNMN1O7R0NmDQDAknhz2IZcFv7KEjYdWbVZ0wIfOhXr6OioFBk2YrghrenF+js5OfR1QL/py8HBwc7ODv2mL1sbG2sbG/QbWBYTfQ7KPPlKtDsdfkOWgLOYzz7mr2XuyAe4Ix+Qj9v16WO6VzR82DDmYMfpYuZgjNNQ7sgHRo0aqbZSR0fHN9YmDBmsvKnCBx9l/e9/J3Sp0dpa/Q5+Q4YN7evYT/YwfN6TDz44SemcMWNGP7vgmQMHDupSkRYsG5bauOuQwfpOj3RyciIS94hbrm/fvkT0+uTnV016jokwK805uzibq/09ot+6Gycnp9bWVnO3ojtCZg0AwJJUC0VE+v5RIV2wWfOKMToV+9VXe2THzHf4x46W6tmU3s6T4zFsxHD0m76GDRs2efJE9Ju+HB0dn3AdhH4zAEY6dGMm+hyUnfnYDKLD3/xXFrCYz74TP/+y9KVoOzs7+WDp9+VHjhw1XaVjx7KJ6Pdblz8+tY+JMJm1xsZGtd3I5T7KpNWuNEpmbg52cCEiH2+vbVvf16XG+/db1MaPlx+Xnw065WF/Iipu+OmzGkkebanvk1OH+f5+7vfOv7/3NIx6q/jpf+fO/a5XUZMmPUAkPnHi1042qQtcv3Zt0iQ/R0dH+a0bhMK6zMysa9cMmAPbWZ4cjx76v6p5MbecuVvRHSGzBgCgTY/76BATEXusJ9FvinFfD3dmRWeVV/TkJ5umk2h7utyCMeoPOir2lsqSKD2u98wOq4UZBv1mGPRbZ1h2v/XoV2eiz0EiIvJe9eJ0oiMH5M60mM++W7dvJ2/eau5WSGhfxun7S1UryzKZ46nDfLcExui77JMdy8aOJZl3aWdtq1ojc3z274tn/75A0uOpw3zJeO9vlPcTstmgI/u5qrZBRz1lyauqk9UPPhREZCUfFIvFXbZxhKoe0W/dUE+55boYMmsAABblTF09zXD39FFeR4ZZ0blWZfkY34SoGUTEXlJwZonSU9F7K6PpyGvjluXrXywAAIBZmOhzkIjIJ+QxNomyPsKmoD1dszYZpAAAIABJREFUYeg7Zqz9/B8XRo92C3F7SCl+69Yts7Sny7S2mi2JBmBqyKwBAFiUqq8Pi6KXPPaEd/JJ+cVivD3ZGlZ0rjt8+PBY5SB7+gw2iQ4fEZHkEr2LBQAAMAcTfQ6SZC229r0LwFhGOw391/jZzPEYp6EmrWtLSvpbb65WCub+Z6fueyBoMXDgABZLYQ21GzdutrQozz99ZdmKRRHPW1kpjN46dPjI9et/db4NAGAWyKwBAFiWk8XfipZER78UvlluvZjwl6LZdHj1tiqV06vyt72g8uW7b8J/Z0TTt+8vS5Z9t69nsQAAAOZhos9BenL2DKLD2ckYpm08VtaS7NILE3jy8QsXLmq5aojDgCEOLtJjF71q/OLL3V98uVvHk1/yeVI2smxs/w5Wu3/2maeS3lmnFDzxy6+L/vmC0l6KN2/+/X5Gpo5tAIAeQf3eKAAA0GNVJ398hGj6e8Xp4T7evj7e4QnpB6UryMj4hqcLz1QKM580brEAAADmZpLPQWbSqPzeBdBJjo6OOdkfqcYrf6uKezVB7SVisZiIPJ1HFoa+w/y8Nuk5WdyISkq+Yw7G9h/O/DAPjx77XtMlC56bzxxcb7rF/BDRpAcmcjxURkQCgMXBmDUAAK164hKde5ZxxOkHk6e/t3c6ExAd3s5/UfGLeg93IiL2WF8xaRtxJv/ydSlWy+WgIywMawAsxW8Y9FtnWHa/9fRXZ/zPQe+wx9xJtD19j5ZTlS6BDgwdPHjkiOFEdKPpNrNfZB8bOztrG08OJ2Lhgg8+/EQ1X3bsWNl/9339yMP+8sG7dxtTU983brdXVJwICp7Vv7+TfPDGXzf/vHJF+4VLSt6r/kuyv+enM14b7zKayJS3hJjICrecodBvBsAtpwEyawAAlih/2ax8Il9vXyKqqlYz+eW9Jzlfe1OV+sViqt57kvOeIcWCBRswwOXZZ55SChZ/861IdM4s7QEA0MbIn4PVyY/7JZukob3d3fv3XOwd5SMODn1effXln0/8Ulb2g9LJ9+/fj49XXiXNRC5dunzp0uWuqQsAejpk1gAALJf25JeGPyc6WyxYqOysDyZO/IdS8MUXIwOnzlRaQQYAoLsw0ecgGI8VWRHRl8Ij31/6jYmkBL5ka23Tx76PWdsFAKAHZNYAAACgY2PGuBHRvvryG823mUjEuFlOTo59+tgjswYAAJ3x05+nf/qzhjn+8c/TU4f5mrc9qubO5a1763WlDT3zPv8yJSVdftbqQPv+g/r0Z44H2ffv0iYCgPkgswYAAAC6+rCqUJZZe9I90Nmun3nbAwAAPZqDjb25m6CT11evUFp2jYhiXoz897/zrly5StJdFLYExiidY/TdFQCgG0JmDQAAAAAAALpUU3OzuZugt+cObrh272/m+Ouwd22t2/+a3pScmrJlo42Nwt/X3xw8dOrU6S5tIgCYAzJrAAAAxmRlZbX81dioqH8qxTclp3722edmaRIAAEB3c/78H6+vSXwt4dUBA1y2BMZUSGeD+g/xMm/DtLjd0ni7RbIAwq2WxoH27aPYfvjhp6DgWWZqFwCYGTJrAABgIYYOHeLuPkY+0tjYWFnZ1dstODg4LF0arRpPWBlnAZm1CK9ZN5vvMMeYCgoAAPoaMMBl1qwZsodlZcfDwmaTYkKtta3tzJlaMzROMxsbFhEVPbFRKT5ggAszGxQAejNk1gAAtMPqGJ3Rdb03cuSIbw8W2draKsXf3vBul+ezxETUJm7j/ncF87gvy17A2yR7SofLu+Ndd/HSZRcXl+c9Z8oHm5ubm5qaukGDxXL/Bd2h3zrDsvvNsl+dqfXg3rO2tn5w8gPWLJZ8sOb0mRs3bxqritzPssePH6cUvHHjZlzcStlDUf25CxcuGqtGo+jTR/1epdOnB5s1CYh/xjsD/WYA3HLqIbMGAAA9WMjjj7355morKyt7e3smrXbiquQX3EmunkQUHDzVLCPFmlrvN7e2MMcsK+uub4DRRUUtXbRooVKwaN/Xd+/eNUt7AADA6NasSVj8z/9TCjacPz9nzvzbt28bpQomrbavvlwWmeMe4OLi/H3ZcaOUr6NFi55f+tILSsFtaRlffLFby1Xvnfhir6iUOV416Tk+O8hU7QOAHgWZNQAA6MESE9cOHuwqe/j9paqVZZnM8dRhvqpbdIHBLl/+c/PmreZuBQAAmNC0aUFEdL3p1rlbl5jIJFdPt1Gjhg4ZbKzMGmPjz3my4znuAUYsWRcsFuutN19Xja9PfENTZq2mpnbixH+oxu/euWPkxgFAD4TMGgAA9GBWVlZEtKTkvbH9h7/xYIS5mwMAANDjLT267dyty8zxl7PeHO001LztMR3e12uYA5aVdWHoO0RWms48VX1abWatrQ3T4gAAmTUAAOj5/my8MdC+v7lbocDBxu4ofxtzbGuNT1sAAIDupU3cdu3e38yxZazbAADmgt/1AQDAckx2HTd5sKfkWHrQxRobG//zn53/938LlBJqmZk5ZmkPAABAd/Oke6C5m6ArFst607sb5s7lEdFrk557bdJz5m4RAHQ7yKwBAIAlaG5rISIHG7sPguPk401NTV3cErFYvP7td9/dlKIU7/qWAAAAGGCyq+egPpKR4MxUUG9vr2HDFOaE1p/7/Y8/LhhQ+I2bN12cnV+f/Lx8sPHePUMba3IeHmPnzXtS7VNnzgiLv/m2i9sDAN0QMmsAANDj/Tf0nWv3/r57/56ttQ0zUuzEiV9bWlru3m3csGFT17dHLBYjjwYAAD0O8+GlOixr27bNqidzZ4Q2NJzXt4qIiKhFEQuUgrdum2EfAGsr6/1h7zLHstmg7777Nnf6NPnT2traiOiPO1ef/zaJiXj0H76d+1ptrfCJsHld2F4A6L6QWQMA0AbL0nZGF/Tel1/tfnnpi9ZW1oMdXGTBQ4e/e2lpXGtrq+nrNzKx3H9BL2L0m/5wv3WGZfebZb86U+vRvbcyYc0ba16zZrHkg/2dnLy9vYio4s8aJuI/xIuIvMaP+73hvJ2d3XvJG3x8JshfcvPGzVfiVl68eEm1ilPVp1evWacUjIpc3JX91trW9uVXe5595qmB9k7y8YPfHpr/tPpkWVNrS3Nri/T4PnNg9vca/4x3hmH9NnLkiGefeUopWFCw76yovtMt6gFwy2mCzBoAAPRIAwYMeH31ij597L89dES2lddPFT/vK/r66tVrPTGtBgAA0MWsra1HDB8me3j71u3Vr7914eIlZqAW4+OP0r29vVYd/+TohUomkhzwwrThfsxx2BMhc3hPqJYct2zp6tffIiIrKyv/ByfZ2dnJP1tbW/fnlSva27bw+WfDwmbLR9paW9dv2FRbK9TjFaojFovfePPtrdsylOLu7mNmh8z6487VF79LZSITB3kkPRLZyerAkny24xN39zFKwQXPzQ+YOuP+/ftmaRJ0B8isAQBAz2Ntbb0xad3js2YqxWfOnP7jjxWXLl02S6sAAAB6lnc3rn/6Kb5ScPeeglWr39SxBGtrayI6eb1+w/9ymUjYmCkR42axrCXzK1+JjYlbtlTpqlu3bz82i3f16jVNxbq7j3l7/Ruq8S3vJc2d96yObdOira3typWrSsExY0YT0bV7f8v2DJUd6MjKymr5q7H/+leEUjxp43tffLHb0MZCNzJixHAi2nG6mFnhl4hemMAbOHAAi8VCZq03Q2YNAEArDHfujM71npWV1cLnnx0ydLB8UCQ69/335Ts/3+HuPlo+3ni/ycHGnogcHfvpXi/HY+w776yztVP4NDz07ZEPP8rqVNMNhkH2hkG/GQb91hmW3W+W/epMrUf1HpNWu3T3uiwyrO/Ap5/ir1qlQ2ZNbh7+uVuXz926LDtuP4EoaGoAEbW03f/1ah0T9h/i5eTo6D5mzNUr1xRKk2Nna8scvHwsjTkY23/Eionz7e3tdO9hFst6w4a3mAbI3LvX9Oqrr52qPq3+FWkwtv/wo/xtzHH73t8q5zs5Ob689AXVy1e/tuKLneoza/37OyVv2jBo0ED5YK2wbt26JJ0yNVgNwWCd6LdPaw7IZgf/a/xsW2ubXvRG9J5Xqg9k1gAAoJtatOj5t95crRrfvbuASau1iSVzVaytrB1s7P9svDFEbrU1XbzzzrqHHpqsFHxgot93R0tPnqw2qNUAAABdzdHR8fnnn7G2tpIPlpQcramp1eXyeQfekh2Xh2cQ0fPPP3vmjORaFxdnInpoyPjG+5LNeR4aPJ6I1ieuXZ+41sGhjy5VvHLs/V+vSTJrHz8a7zdorC5Xnf374s9XJM240aT3LgcPP/yQ6pJYRLRqVfw/F6vJf2ly48ZNFxfn9oQaERF9krVD0/lt4rbH9iUwx062DoWh72gpPDY25vHHlcfgP/jgpN8qT37xJYa5AfQMyKwBAEA3xYy3v93S+HntISbywgQeETk79yei3WePpvzyFRN/2uPRFRPnG1AFM1ptW+Wek9frmUjW9BUk91U5AABA9/f++1umBU9VCq5cEffQw4/+9ddfBhS44W3lmZhPj5329FiFTTOHDh1iQMldiUk1/nHn6ivH3mciDw3xen3y89bSmapq+Q0aK9szlNnioK7ubMSiaPlzxGJxc3OzphLu3m+SZSFlu45qYmdnS0Tfnv95d913TGTFA894Oo9k4gDQIyCzBgAAXefxx2cOcFEYViasO/u//53QcsmO0wfypJk1R1uH5z2Vv9ftvJPX66uui2THPgPdjV4FAACA6biPGU1EJX/8cv6OZFuAiHGzrKys+vd3MiyzRkT1ty793XyXZWUt/7F45crV2to6IhoxYpi7+5j3TnzRh2W3zC/8iTGP+EpPG+001IDq7Ozs1q9fy6x0RkQODg6GNVvVxTvXLt6VTDuVHahVXV1TVXXK13eC0p6hO7/Y3dTUZKz2qPXrtTrZmL5fr9V5Oo80aXXQSS9O4DVLt4hVGswIvRNuAgAA6CKLFj2/7q3XVePPPLtIe3JNR/pOBQUAALAkH54sPH9bklmbMXLSyH6uOl44vO8g1WDGbwXfX6piWVmXzksXk1h484Kn88jGxsaIRVFElJ31gbv7mD8bb4huXYyeEOZgY6+UUPvhx4r0tM0sFmvsWDYRrZ684EbTncprdRVXatROBV248Nln5ocrBcf2H/7htDjp8QgdX47B7ty5M/+ZCGZovMz9+60GZyfB8vzecJ7jMVbpi94/r1wxxfYFffv2nTTJTylYUXHC1HleMAAyawAA0EW8vb2Yg+8vVTEHU4f5EhHHY6wBmTUbK2vZDAv5qRa/n2vobEOl+HN5b765Sin42Wc709I/1OVyb2+vObwnlIL//izv8uU/jdM+AAAARb4D2VunLu1rY29tZU1E3x7cJxbTiRO/LIlceueOmnXKxGKxlZVV/uz12osVi8Vrfsje9fg61acu3Lk278BbLvaOr016brKr55tvbfjhh5/u3m3ctjXZ3799JVN3p2HkRA+4eizyepyJKGUH7O3tiOjk9foPTxYSkYONfdLDkfYs20munvKnfXf0e136wWDNzc2qe4bqy9HW4fCTqcyxg41dpxsF3ciiRdFPPz1PKfjf/+5vbW01bkUslvWn2z+S/5+Icfjwd9EvxBq3Lug8ZNYAALTD5jedodB7Q4ZIdvlkEmoy7u5uGvpZTEQv+sxxtO3LPJZ+QygmIj47iM8Okj/7WGnZ229vbDh/Xt9WZk1fIVtnTW7Oi/jNN1e5uCiPg1u27KXPcj/v8Ovrvn375u/53M5O+ffpadOm8uaoWU1ZVqncf0F36DfDoN86w7L7zbJfnamZs/ee95zpaNs+j5JZUMzff/K04EDBgW9Uz399zVuJ69b26dPnr6ZbTdK9Dm+3NHK0zUZUeIF9WHat4rZr9/5uabtPRK6uA4cMdm25f5/50N9xurj2puRzOemRSCL69dff7ty5c+TIsd9+q+JwPB57jEtED/k/aM2yJqKfr9bKtiz4vPbQv8bP3rfv651f7GIibW1tFRU/69vD/kO89s5+mzke1neg9CWY5G26ffv2V7vyn5kfrpRQy8r+VHuNKybOnzXqQeZYbkyfLo3ETo0GM6TfLl++/MEHmUZviiobGxsmrVbxZw0TsWPZ+g0aGxQUYO53HLecGsisAQBAFxkqzaxVXjvLHDC/O7LZbLXnN/x+nohsrW0Wjw+Rjx86fGT06NEcjod88Nq1a+9s2HT2bL1eTTr0bckDE/1IIaFGly//Kao/J3v43MENN6X7kQl4m3Qs2W3UKCatJtt+wdbaZr7Ho8OHG7L6TC80YYJ3374Ki+w0/H7+8p8Y7gcAoNGicY+PcRpKRG/9+OnhPySDwTdOiZo2XHlCmcyuXXtDHp/F5U6ru3mhVDqi/FW/p4iI3X/47ZZGltbF/rcExihF4pa9LP/w8B8nZJm12pt/eDqPfOON9aeqTxORk5Pjfwu/sre311T4vdZmIrpw4eIPP/ykpQ1anDx5SlR/ju0+RppQk8jPLzSswA61tbWtXZu4YYPybwt3797VdEnpsbKI/1tACgk1IqIKYyyUAT1dS9v9V0ol+2/YsWy/m7vVvO0BTZBZAwCALsL89vzJqaJPTx9gIi9OmKOUNZOX9/mXTc1NQ4YobD1WX39u//4Du3btNUqTPvwo67uj3yvtBCqqP3fjxg3Zw5tNd24035YcN99xtuvXYbEhIY99+ME25li2EsdfTbeN0ube4Lnn5ie9ozznqKWl5bFZvPPn/zBLkwAAurOLly6PHu02xz2AedgqbmsVt0mO29q0X3vl6lUi8h/i5T/ESz7+su9c2bGYxDE+c4ioX7++/Lm8u42Ne/ILuNz2rUJvtzQSETNcjvn+bJzzqD5aJ0L269eP+cUg98xBIvId6K408bPzbty4+eScpwcOUkirtTS3mPR7mra2Ni15NFXfHioJmT3XxcVZPnj50uUGfN4B9BzIrAEAQFd4Zn44s4ax7sRisbEyaFqcPHnK6GU+OSeMOfjjjmStlpH9XAfYOxq9IkvFnR7MHMgPb7S1tfX2Ho/MGgCAqpdfXh4ZucjaynrWrJljx7rrde3bb2+8evXa0KFDngqfS0SlF6vGD3Bram0e2W+w7ByWFWvmyMlENGjQoJSUTUT01183zp37fdCggY6OjnvOHt3yy1fMXgdt4rYXv0slos9mvq7LBpdXGm98WFVIRIu8Hp/k6hkxbpZsj1GjJNruNjbelfvgmDYtaM3rK5XOyf3Pzry8Lztfl8GEwjoz1g4AnYfMGgAAdIWZM6dreqrx3j1j1WJvb89iseQjLS0tLS0tHV4YHBTI8VSYXnr9usaV1Cp+OiY7Xv/2u599lqf2tLU/5LRPxnkkijvygQ6bAfJWHf/k6IVK5jg54AUts5kAAHqzAQMG9O/vxHwX5e09fuxY9362Dh1eJdPYeC8lJY2ImMxaQrlkDanpIx54d0qU7LTihp9srW1mjJwkrdRlwADJUqShox/e8stXagt/d0rUmRuS2aDaE22/XBUyB0oJtePHf9T9tXRoy+aNgxSHsBHR2+vf3L//wI0bN41YEYBR2FrbPCQdTGpnbav9ZDAjZNYAAKBLTRzkMXGQJIc10XUsGe+rWj8/3y92/ltpxZbzf1x4Zv7/aZ/3ERg4ZceOT1TjjY2NRCTgbbrZLFlnTXUqaMLKOGa3tcOHv+twWwMAAADjmuA9ft++3UrBNZOfXz3pOebY2krbQmkyVlZWSpEjF36RHX9/qSrxp3+72DkymbXnDm5g4i52jpmPLre2sna0dWApVlR1XeTpPHJkP9eR/VxlwTax+NLly2obUHnt7EtHt3007dW//rrxcuxyJnjt2nXjjudisayJ6OVjaTekK6jmPbaGiKx06yWALtMmncedHvSKfPzevSZ1p4OZIbMGAABd6pGh3o8M9ZaPNDc3qz3TxcV5vsq+5t8cPHzu3O9qz3/m/9k77/AoqjUOfzPbsi272WTTOymkFxJqKCGEJlVAkA5KBwUVC1cFLCA2FBQQURQBRVAEEem9BxJKSAgJ6SG9l83WuX+c3WGzuwmbDnje57neM9+cOXN22OzM/M5XJjyPZDWZSjsgl8l2dnKMGTRg927Ta+kId3dX1NiTdgY1nveMYpHMBw/SAwMDoKGgdjz3hjNf6melPYTH43267iMASElJHTFynOZx6WwyG5k8BoPBYDAtIHpgf9TQzz8ADQW1O3fuhoWFvNMwClKj0az436pLl66gzQXzte5pXGajJQUQlYrarGqtOlbJrgUACwb7+MjPkIUkSLR+djznerGsYq7/CIqi3r324wSv/qHWXuVl5QYu4VKueLrvYLoNAAqFosUlC8wkvTK/uRlUMZgORqlUvjxn4exZ0w3s33z7XafMB9M0WFnDYDAYTMdxsySNftZ3F9pZsvlXr8bt2LHbZOdt328KCwsxMC5ePH/2SwsSEm41pmF9mvDb/owLqP1W2KQxHlFmzu2vjAtf3dYu+2dVF7wZNunOnbszZ2mrnonFohPHD1Up6lbF/Xx+zFcAcDQnjk4LPdyth6+vt8GCv7NA6iyQ0m0AOHjwnw+M6oVhGiPEugtdlZX2c8RgMBiMMT/dO/pd0t+oPavr0Ln+IzZv/n79V98gi7ub67FjfxsftebjVQsXLkXtbt3CUePUqC+ae3YKqFplvUAXgrql/zL9vXKN8lReQj/HYLAGlVpF25FjOAAsCBil3z+/oKC5E8BgnklOnz53+vS5zp4FxiywsobBYDCYjuNOWYZ+5iwA2P7TTrnctFu7h4cbABzOukovLE/2jhEIBL/v+WXHL7tXr17TARM2CPCkgNLoqq19eP0XuvLaUNdIfe8A1GdBwCiDt4UjR4/jiFFzkCuUADDZO4aurIpozL0Rg8FgMAZoKEqtVqM2x4IDAEqNauIxbRSnm9BufZ+FLi7OBpGkSo0KgGCSJAAQQACAQqNik8w+9oGTvQdymWwAIAnSWSCVq5XFMm0d7SpF3dBDb6HVrFpVvVytFDAt2AxWTk1RubyGLggOAOfOXhwzegS9uX79Rj8/36ysnJCQoFu37gAARVHbf/ql3a4KBoPBtAtYWcNgMBhMR6BQKgFgmk/sNJ9YfftjywvUquppAUuuVnIYLAAYMniQsbLm7OwEAMHWXej+1haW5s+Qz7KgXcxaWcfziy82uLu7CfgNokviE26dPHmmNcP+d/j443VCoYDP4+kbr1+PP3fuQmdNCYPBYJ5eukdGAEB+bWl+XSmysBmmXwOVGhWPaaFvYZNMAKCAWhL0PLIIWdy9g1cCQLWijkEyAIBFMkmd1/a3d/7an3FhVeSMIS6RLgJbSzZ/VeQM0OVVmDBh7IQJhnkePvp43ekz57dt2942n9YMdsX+r0KuXbTDoaAYDKb1YGUNg8FgMB3BmjWfiUUiHr/ZWsmELv2b2BsbGyOVWgNA9+4Rffv2AYChrpFDXSP1+7w0e8bIEcNvxCfcu3cfAO7du2+QDtnB3h4AYp0jYp0j9O0SiYQgiHHjxliJRVwuDwBEbP7l57953GeFzMyskSPHN7aXJMk3ly/z8moQ3lhaWtoxXnhPBYWFRbNmzevsWWAwGMxTQ4P8A3ypmUeV1ldtvntQwOIuDR6HLAayWr1a8fqlzd/2fRX5r+XVljAI0o4nQSqakM3THcV5VTcC4lDm5SEukdBQtyorK5dIrADgaI42jRrqExQYkJSc0oxP2woO/XNk6pRJEo5QwhHSxkuXr1RXV3fMBDAYzDMJVtYwGAymKajOnsBTjf7Ve5hfMHX6yy07fPPdg6ghZHGn+sQCgEhk+eMPm+0d7H19vA2O+jvzcj/HYP1HeXd3N3d3t+7dH6lmMbEjMjIy6U1nZ2fUMEj/bCWxeuut1+a8PMvk9J5z60k7x6FQUMq8L8zY50fPmWNizNKy8v37D5o5CEYfSu+/GPPB1601PNvX7dn+dO1NB189lHV0kHP4IOdwAzs9k8amVKuU/ZN1RV9ZG3F4BWrYcq1+jF5OAEFrbafzbq64ui1Q4vH9gNcB4ERuPLIHStzteZJox7AqZS0ARNp2PZR15Xrx/c9u7lkeOvHQoX9X6taNYgb2/3TdR0dz4lbF/YwsVwqTVkbMaHqSbcuq1Wt27tpjYMzKylaqVCb7P/ngx4YWg69by8BfOZNgZQ2DwWAwTzo7Uo6hxtb+r6GGhYVF//59DbpRQH196489D85E2vqK2Pwfkg/n15WhXe92mwoAFwsS+9gHAsDzY0ft/+tgenom2pv24AGYSv/MYjKNZTUKAK3VvxM+Wd9eW1tr5pMGj8sFgIK6ss9vaiuWTujSv4edH4/HNedwYxgMxmvLFtva2uobMzIyN2/ZRlH44eeZwtXVpauvj75FJpNduHgZ/0NjMP9Zdu76rWeP7q6uzvrGvIf5xtnKXIV2+4d+gNr2PInxUDKVorS+CgBsLERf91kEABwG67NeJjyI75ZlvnftR9RGWpuUK5JyRQAQ7RRqxVn8b/Y15I8mVyjoBKOqzlavvLp42tnb6VtKS0uRPzsGg8G0BqysYTAYTJPg19XWoLt6DAZj6auLpFIb/Z0P0tO3bfu5CUWgqLDYSizWt/BZXAD46d7R9KqHyPJB91kAkFtT7CyQEkBY6rmq/ZN1lU4o87LfcHue5IubeyEU+tgHLlo4d9HCuYOHjEpLS9efpwE+Pl4AIFMpimXatwJXoR2S1WpqaiiKQiGius/IPHTwjxkz5xYVFTd5UbRcKEi8WJCI2g586x52fo8WAZv5rZs3d/aC+XOM7cXFJXv37m/eWE8vRkuofD5fKGyQL09eLy+vqOjQWbUpLi5OZ079a2z/8suN33z7XUtGfNqd1rhcJsdCw+SwCFApVZq6akphuhxKu/D0XjdzeLY/XXvTplePx+N9/NH7UqkNQZBsNgsZs7NzNmzcolQqHz7Mr6qsnj5jTmCY6P4EAAAgAElEQVSAf3BwoNDyUYTjzBlTU1JSi4tLAEAsFlFAEUAYCGqHsq6YPKmXyAlFet6ryAYAIYuHXLmboFhW+U/WlUhb3wCJe6iNV6iNF7JXlFeYe0Ha+VsXERH++54dxvbZsxecOXu+fc/dfqDlPvwH2zLwdWsB+CvXCFhZw2AwGEy7s3DBnEWL5hrbS0pK9+//u7GjZr+04OKFE8b247k3aGVtZtehnpYOb135/sPuszwtHZo1K29vL6SssXTvKiaZdPyDIl35s4PDPpJyxQBAkgwDFzMmk+Hr6/3ChOdbqHG0ArFIBADpVfm7U08iy5KgsSI2XywWdfBMnhxcXJwOHtwrsjQsYTHpxZnXrl3vlCm1Hk8PD9Q4l68tsNvLzp9FMiMiwhs/CIDDYVpJOSJbUigmeXySzWewLRhcNsFkEwzWRQ7XcepyAgiKJAgGCUACUBRQAAQBJAAFuqzkeqA39Db/fK1FVV5UuH9rZ88Cg2ljFi+aO1qvmCaiW7ewsWNHAcBXX327YePmrl19Dh783ZzR6lUKDVA8JgcATuUluAvt3+s2TcA27TF9tTB56cVvAWCgU9jHPV5CqdxsuWKTnYtk5d8l/R1fcn9D1JLCwqKzZy8AQEVl5fr12uSk0dH9Jr4wDgCGuESiQTRUh/6U0D+V14u0Od0ibH0BoHuPiKdYWQMAAD6f/+EH76EcdjQpKanrPv0SBQtjMJj2BitrGAwGg2l3xFZiAEivyt+TdhpZlgaP5zLZBi5pBuTnF6DGwsDRqCGxEDbeHQAg2jm0UFbOZXKa7na7ND3Y2pPe7NOnF5hK/8xisQDAks1TqA0DWAxktdTK3MTSzLGeUU2ft105nHXlH533gaelw2TvmE6cTKfTr28fJKtVKmqRBaXeGz9+TLsqa2wbW7bUjSW2ZvCtSC6X4HApJovBYhDAoBgkCSQAAIn+RwcWI3SbBmY90gD6fvxbQ1sS+j+n2e+2bMJqAILNgQbn1NfSTE7lSZTVAIB6MqeFwbQOjoUFAFwsSNS/gdIrSRMmjN2wcbOHhzvaPJx1lUky3IX2XiInVKyzUFYOANWKOi+REwBYMNmg+5kZ6BRmcC4uk/3Pc2sBgEU2eEnUUBQAeIucUElQAAiQuMc6d9O1PQzGefAg/e133te3ODk5/rBtE70ZZtMgR2pVVcdVD/jl/vFNiQdQe7rv4AUBozrs1O3HsqWLxowxlF/79euTknL/z/0HO2VKGMx/DaysYTAYTNNgd+fW0CB78sHMSwczL6FtT0vHiV4DGvYBkiQ/+OC9/v0e6VMqlYrJZE7ziTXzfB5CBzr92XsRU/NrtXnWUPzLzkHvoEzMaLV85owpg2MHAoCnhzuYSv/MZrMB4JeYFbRFpnoUa6bRK1/gLXJ+qDuXGd8ZCgDGe/Zz0EXloOxvese24bfuv/MFNp1RV8Tm3y8pu5JamJJXUlhRV1pH2E95nSAYBIup1Ye0aky7izJGJyBMb2J1qKUQZAcHqDzbf1zP9qdrb9r26lEAEFeUEqfztIorSvG0dPjx3pHZXYfqOlAAcDrv5oc3fvm893wf8aOca3ZcK/TfnfdPTPUZhIwEQG5u3pYt2xQKhdZCEH379hkxYph+xUyaCwV3rhffj5D61KsVAJQFgwO6bAw0NUoZ3eYL+EFB/vSmWq1Wq7V3zLXxu1EDPQZUV1f/9dehdZ9+MWXKi+3/rWti/Jac2tHRAa3A0RQXl9TV1bVgqFZAAYAF1wIAzuXf3p+urbf+Vtgke56Ey7XAf8tNgi9OC3jaE0m0F1hZw2AwGMyTQkRE+OQXX2hs782SNFehnYQj/LD7rPSqfGRE6/bOAilqxBenhkm9kGISZuMdppcWhgKKLnCGhLbIyG7649ertZmbAUDMEfCZFqDn8QQAIjaf9oZ7/9r247k3UPvD7rMHOYf3tPMDgJCQoMd+zNu3tenV9AQ1AIC4uBsAwOfxdv7yg7Ozk/6u3Ny8RYuXVVZWEQTh6+tNkqT+XoMn+6cdvlcg296bI5IQliKSyaQYTIogSK0K1qjslADgNPtR+dczJty7tDA4LawUgXniIR/fBYN51vEQOgDA6bybdNqEl/yGAwCXyQaAg5mX7pZlvhM+uaKiYvevDQJI/9x/8MOPPgEAd3fXPb/9AgBdrVz9rFzR3vji+xFSn1slD0rrq4a79QCAOpWcQZAcBgsAUitzUytzZ3UdGmnrCwAhwUEH/mow+M6dvwFAelW+wQJbQUHhylUftdvFaEdeeGHcJ2s/MDBmZmWPHTuxsrLKnBEYDMb8+S8bh3D+/vsfLZvSlYKkK4VaR+YrhUljPDrTjx6D+a+BlTUMBoPBPCmg0JWS+kobCxMJwkJtvM48vDnAMdTT0kE/pRoFsK6nNn9/uPRRgMnu3Xuionq7urr8kX4up6boVml6saziu/6voTTMNUrZF7e0z/3jPfsHSNzvlmUuPr8BWVaETxnp3gsAhh56ix7w8vPfNDF59HYREzOAwWCo1eomet68eXvosDG9enV3cnKkjbW1dXK5nCCIQYOie/fuaXCIq6vLjOlTNmzcvHz5svnzXjLYW1JSCgCLg8Z6WmoHRK89nYNAIOranWPvQlpKCAaHZJIUQQAQLQ4gJLAXF8ZMNE393WEw/xGQ09m25MO0shbtFOZp6WBtIQKAsvrq1Mpckweq1WpU7sDHR3snFbH5P0a/qd9HRWn/yv5IP/f5zd+7WDruHLQCALxFzt6iBsVJUekDAPAROZMEaXxf6ywibX2R/AcAkVLfFo8zdsxI1MirLUENJ76Nu5urX1ffK1fjzBlh8eL5r76y0NheUV5x7PjJFk8Mg8F0ClhZw2AwGEwHsTR4XBed9IN0K5NwGVq/sEOZl0vl1SyCYcFkj/HoQxKkl8gJpYxB4S2IxmSXq1ev+/r6uLq6HM+5cav0ATKW1lchZe1q0b2s6kJkPJEXHyBxJwmSdkljkgzUODfmKzM/3ec3f38jtFGHO2NWvr/C2Lh9+w6CIADgaE7ctuTDyPiy3/AhLpEESQLA8GGDAUCmUuTWaiuQeoucbGysUdtAULt3L8X8+ZjEQiLiBg3k2DszWDxgMSkkfjaeCMwkWBd7tjH8Ohh9PShUBYECShc8QhAUUKABIDUUEBSlAUqjIQiKAoqkKAsOh8ViMkkgSZJFadgMglKqUu8nq2R1lEKhqa1U1deqqktVdTXQ0VFXGEynsTR4XJTOzRnl3bdk8wz6RDuFPufWk0Gadt501SUSNZOCurIKRY0DzxolqaxTyTWUxooj0Pe2flD1cOnFb5cFj3cT2sXF3bh27bqN1GbiC+PSKh/OOvUp6uMtct4R83azTt0EHA5n07fr+/Vr4I0llysWLHzl/PlLTR8rr5cDQFex64aoJQ3t9Y0d4uribGtnq2+pqKjQVhUHAIBF57+OL05F7U39XjXIH9c0qGB6dnXhnxnaEM6lweNoOwaDebrAyhoGg8Fg2p3kZK3EYyCopT1I199kMpkAwGdpYzZHGKlvqLAATWpl7j9ZV1EbPY/+m31tmGt3c6YU4xQWo0venFtTDABhNl6nRn1h0M0gizMAqNVqBoPBIEkGoX17QY0qRa2G0pCEWfFoXbpo8z0fzdGubA90CmORTG9vr9KycjQlNCt6eosXzVsw/2UU+Dn91Fp6774hq5z4Nm+99S5FNch5kZ2T21iqftLBXRLSj2UtJdkWWrHMPDoqIxlGT5/S6lJAAQUagiCAIAmCAoJEZe8pFkXUKWWgVGnUGlDVa+RytVymkdVoaqtVtRWK8gJVWQk0UhtOIBCMHDn811/NKinYMQwfPuSbjV8a23/44eeP13za8fPBYDqdK5evzZo5DXSCGs14z34AYGVltff3nUKhNjnau92mNjYOcmpWagwL8jRGbk3xkgsbB7tErI6cCQConKi/lTu9FzWuFianV+W7Ce0iI7t98MFaCqiJL4yjGsnB5GnpsCJ8Ct0GAEtLy4kTx6MbqzmzCgsNjo7ub2Dk8bgLF8x9rLJ2+crVhIRbVlYNSifdvp249fsfTfYPDAw4eMDEz+NLLy88ffqsObM1h9/STu/XKWvuQrvWhHC+GTapv2MIavew82uDyXUITCZz5fvveHi46xsLC4vee/+DujqZyUMwmCcQrKxhMBgMpt3Zt29/YKD/9GmTDexTp05iMhgTJ40HACaDQScXoygKuW79mnYKCUY97fw9LR3kaiUKuqxWyoQsbm5NMV0r7XmPKFehnYfQflvy4Zf9hjc9n+L6ytL6StTuKnalS4LKVNpczigfDQAoNapBfy9HbSGLe2j4GjSflREzVkbMaOn10HI67+aquJ9R+9zD2x/3eEkikTAbSZrGYDCaePG4FncjKysbADgSa2H3EWxrO/APcAocitSXJsQwrJKZB6X9D0VRBAVqDajVGkoFaqW6rp6SVWlklcrigtqiLE1FRWdP9ekGCQQylWJt/C5kGeXeO8LWVygUdOq8MJhO4/iJUyNGjrOysho7ZiTtq6VWq1UqlVAotLQUdutmWOITAF72G05HgyINS6FRy9WKgc5hc/yfM3miIUMGBQb4A4CLixMAsEjmWI8oAPjp3lE3oW20U1ihrPyr23+u7fESAAhYXCTVWVtY+uoKJgQFB6B4UmNUapVSqWSxWAYLbHZ2tmvXrAaAu0nJW7Z8b+Y1uV2avvCc1qM8XOpt4INmEpHI8q/9e1BhIn1yc/NkMtM+a911yVhvl2pXAVFV8aioXm2orLUJV6/EoTS1BoLaLV1e1yeZF1+cMGXKJGN73sOHX365sePng8G0DKysYTAYDKYjiOqjfZjWV68GxUQPiolGm/ryD6Fzo5JwhEh7iitKWd9n4c2StN/STq/vs7BYViFkmchD39XK1Vv3iD99+mSUyGxL/2Vl8mp6QADYlHiA9jhbHvoCh8EGgNul6fPOap1lQqy7bOm/DADkaqVCrURGOckEAIVCUVNTa2kpRGUEUIXQu2WZlwrutvYaAfj7d21s108pR7ffO/Jb7HslZeqSRDdGvRdBMQBgUvIJAICYGU6NHfksq2c6twiKAAJAo9FoNIRaTalVakVtpL9PSBeXXt72AQ7W+sdEdu9bWlpmYjDME8OJ3Bt0hRAuk2PgqoPB/Hd4+eWZkyaOpzerqqooCj74cA3yz1rxzvKXX555Lv/27vvatFxLgsYGSNwBINopNNopVH8oNslgk1z61nn432P6e3v2iNy86Wt9S4hNlxCbLvoWO67VS9pqpPCS3/CXjBax1ny8GgAooLxFTnTpA5R/Ta1SDxk6ukePSDs726WvLgKAW6UPKAryakvchXYBEnc7W1swA5QYQU2p1bry3Khh72Df9IFCoRDJartTtdfKgWcd7RTq4eHe9IF70s58dXsfak/0ikYO8jTOfGmRrIJum/MR2oO/Dx3Oys62Ejdwx8vNy3vwIKOzpmQ+FhYWAJBambfxzp/IMsV7UA87PwuORafOC4NpHlhZw2AwGEzHMen4hyi7Waxzt1WRM+lARLlageSthBJtvhIRW+Bp6dDTzr+5p6AlM/1lfCSoISiglgaPQ4ljWgBBkCtXfgQA69evI0myQlGr1qjteZJfY999bCgoSZIvvviCUCjw9TWdiqVCUSNmCwBgtt/whBuspLwKlUr9U3LVT4DKXPZ4IRG9C1k8C2oZBRRQFKUmVSqVRqWpqdSU5pel3aEKTWfXbgIHB4du3UIPHfpX35hxr+v45ctKUyvOpT4y7tu3H8tqGAzmqcDOznbFO8uN7WvXfBDVdxC9ebvkAZ1L9FbpA6SsAYBMrSAJggCCTTIB4Pff/8jJza2vl1+5ck2hUKampumPSStTW5MOWVtYjvPshzb/0gUqsknWcLceXiLTizj6WfxRvRrD0gcqVWZmVmZmlo+P99JXF6VX5c8/ux7t8rR03DXIROJRk1haCk3aHR+nrCEK6so23tmP2khZM/O8xmgoCgDeCTd0xtdQpiNhG2NZyHg3oXbyrQkFvf00uKc1QVzRvbgibeYQH5GzgfOdvZ3dy3NmEg2zV/xz6Eh8ws2OmyIG0yRYWcNgMBhMJ7AkaKx+fi8kq1Uqahee066Zi9mCf0d80vQggRKPpcHaxXxXoZ3B3vy6Mgee5Ny5i/369QGAiwWJTnwbd6E9AQSS1R7oImXsuRI6udtj4XItvv76M3pTX7MDgAsXLvWN6k1RVHVNTXz8TUtLYVhoCL33+edHjxz5aJE/2il0qGtkdg4rPZU4n0z0PfGbmXN4QkCBpiQBTAbDgsmUini12fcS/90jL6vs7KkBACQl3Zs1a15nzwKDwWBaCK0jTDr+IWrYcsUbopaQDLMSenIZDSIfX3hB62y1c9dvO3f+6uPjhTbz8wurq7Vu3Udz4rbfOwIAcUUpn/Sco9So1iVob0xsBquxqtOvXNhIayIbo5YgJ9PMzMyamlpkVKnU77632pw5G2NrK9Wvo+3h4dGycVBEubWF5faBWskP5VElzE812pCPP163/st1HA5H33j27IXr1+PNHCH9QQaaxkSvAfr2jMyslk3pGWbr1o2BgQEGxlkzp4V3611R8UQ8cmAwWFnDYDAYTCeAnmWnnFhTJCsHABGbv2/IKuNuHAZrincMACDnNQ6D5cCTgC5rjJQrNngeTa/KV1Mab5ETAFQpahx4EiSrAYB+OTMEXagUwWVy6NqgdEPA4tLlQdFTuEqjPvPwlgNPEiBxLygofH7ci+5urrt3/4T6REX1jorqjdqrVn304osT9d3TCmWyyZsO55ZXUwSd37nBQ/mTAKXRgFpFyWvr8zIrEs9RlVXGfRYvmv/aa0sAYE/aGWRB/xDffpt548mQ1TBPNSPde9F/g4Ocwzt3MhhMB+Dj483nN6j1mZenXfspllXQlaxlKjkAMBnaNziRSAQADnzrEGtt2CYd7Pl90j8zuw4xLsIDAFOnTJqql9ZKqVRevXo9NDQIAEKtvT7sPrtaUUfHWhpAUVSVsg6tTt2vyBWx+XY8K5M933v/o4sXL5vx0ZvCxcX5xPFDLKP0o2E23hfHbkBtMwsHTZv6IgCwSGZXsau+ncczLLFqQIiNJ3156QYAJCXdGzJ0tDmnboztP/1SWlZmLZHoG1PT0i5dutKaYZ9JbKQ2ALA79SQde4vCci0sLADwUwfmiQAraxgMBoPpOHg69cqSzQeAGmVdjVIGABYMw6TCCAsGe3HQWHoz1MYr1MZLv0O9WnGlMGmAY+it0gfrEn7NqCoAgPFd+r8eMoHN0D6LXyzQhkiE2/jQpQkAQENp9jw4AwC2FqIY527eIifj2qBgVB70YOal75P/4TI4fw5drVarCwoKIyO0SY6vFiajBopi6NWn19pzaen7bpiIDGlesEhbQAFQGo2yti4nq/LmSagyoZc1l5/uHf0u6W/UrlTUzPUf0foxMf9x7t3Ter4YCGq3bt3pjOlgMB3B+HFjPv30YwOjUqlcsWKlyf4oIrJPn14TJowFgHGe/ejgTZpaVT2KShxxeEWdSo6M6B5HAYVK8SBNisViRUVpE6Ha8azseFZ0ESFjCIL4/ObvH3afBQA+uqymLcDT0mGUe29d27GxboGB/khWu1uWiSx0rKuBoNZYFQIaVHz8aE4cXfhoafD4YGvPJlzW5AoFAHQVu6K8qzQKhaLpc5kJRVEHDhxqk6GeASZ7x/iItN+oxnJr7kk7TStrU7xjpFyxyW4YTKeAlTUMBoPBdBwGiVdoUKYSEZsfLtV6eKF0Y4/FgsHmMjgAkFqZh2Q1GvS0fLMk7a3LW5El1KbLN31fpTuQBPmi10D9QyhtJvxHm0dzrg91idTv87xn34FOYcsubjKYyYnc+Pcu/8Z4EESoWQC3zJl8W0JRlFqhLC8viTtCFeSY7MLj8aZOmUT6W4P/C7Tx/LmLd5OSW3ZOGwtLOke1lCtq2SAYjD63bt0ZNWqCh4e7vrG8ouLChUudMh8MpgMYOHAAaujrRywWy8u7i8n+SPbqo6sLZFC5EhHlEMggSQCoU8llOmVNplJwmeyrhcnoFsZmsM6OXg8AKkqdUp5Dn5ogiKM5cUNcIunyoKgzaghYXADIys459Pfh0aNHODs7OfOl+QJt/kq61rY+PB5v27ZN4WEhoBd9aZChTCaTNXZ9TufdXHF1G2qPdu/9dvjkGqVs1L/vIos1x3LvkJWPVbuUShUAJJdnJ5dnI0tyeXawtWd1TU1jh/z++x9Bgf5dunjqG4uLS779dmvT52oCDw93R0cHfUtFeUWL78LPBjduJKCGgaB25eq1zpgOBtNCsLKGwWAwmI7gs8+/+uzTj0mSgTZ5PG3EioQj3Nj3FRTdCQDf6ilfCApAqVGySRYAKDUqZER+ZGpKwyBIgzS3NO5CBwAItfG6oIsZuZD/GLcXAgi5Wqmi1AwgLZhshVrV3yEY7dJ/4RFzBEt0nnR2o+bEW9v3/fg3AGBCe4atEQSTACcbS5vi+wd/aMlj/fr162IHDTQwvrl8Wc9eA4qKips1lJeXJwCMcO81wr2Xvt3KCi8gtw3e3l764VqInbt+M0g6/kySeDcp8W5SZ88Cg+lo/nf1h1N5WolhTY+Xo51C0Y+AlCveE/sesku5hqGXm+8e3JGirfK5MHD0NJ/YIlm5LdcqQtqMirobbu/f++AMau+Iecdb5HS5IGmISyQAvBlm+EOEKC4qXv/VNyEhQc7OTo31oenfP6pnj0hje25uHop8VGs0JSWl5k9YwOKa9DFvgnq5aae2vb//2dghSqXy7Xfeb9ZZmiYoKODAX78b2xcuWnrkyPE2PNHTRXz8zdjBI+ztG9SgKCsrS05O6awpYTAtACtrGAwGg+kIjh49cfToCXozLfUOSZIHhn0kVys5jEcpVFSU+o5u+Z1JMIKsPQkAJKuBUWCmmlL/mX7+eY8oBsnwETl76+II6IACANDoksWQBBnlEGQwq4sFibRkhoIZOQwWB1gAQAFFT2zR+a/ji7UFJtf0WfzlrqQKmQLgBgAwbcyqR2YmBAAAweUwVQWZzzmyX3ttSY1S9l3SIQCw5YrHePQRsnh//aUq6hEJALl5D3Nz88wf3N3NFQAuFiSmV+UjyzSfWAAQi8XNVdY8PbU5pO9VaBf/UeYaB/OqszWX6Oj+BnXfcnPzzp670B7nekL4dfd2ScPkOwDw3HNDIiL7dsp8MBhMx8Pn8ykAwqhEj0KhePXVRRER4QCAUp71dQjyFbugLGC2XCsAuH8/zbOLB5PBaNmpBbp8bcagtKcREeGffPJhdnaOydBRjUazYP7Ls2dNq62rW7lSG+h6sSBxxdUfUHugU+jKiBmJiUm0dDVnzmxzJoYySGg0GpVKRRspivrs86/M/WwNqa2ta9mBLSAsTFvR6Lqu4APy0urVs8d/WVkDgAcPMh48yHhst6XB4+loUBwKinnSwMoaBoPBYDoBmaweZWtG6pVSo0KqGZNgOPO1sSRizqOA0N9ST03yNvS3YpMsV4GtitIwgBFs7bkj5m2DDsMOvV2h0AZ6HBmxDr2B6PPTvaOJZdqHuT72gQES94zq/Ie1pX3sA/XDQgGAkR5JKDhAwfvJbVni3YrPfXt0994eDgb2ceMng2MvANj34Ny+B2cHu0S8HjIB7RozZuSYMSNRe8iQUalpD5p1xk2JB9N1RVH72AfS3oLNor6+HgDWxu8+mKmN0VsRPmWke68mwmpazMgRw/WLsdIsWPDq0WMnjO3PBkhW++LWXtryesgEY60Ng8E8w1AU9cKx1Ugpk3LFqyJnVMhrxBwBn89/9ZWFqM8Yj6jrxSmf9jKsg+zj46VSqQHg1KgvZCptpCTKNFqrrGcQJAAwGqYqE7MFb4VPcuLbAMBsv2GNzaq/o9aVe/y4MY31IUmyd++eqK1Ra9BvtUKtUqiVyKhQqxo71phAiXugRLuc4y9xB4Bjx04uXLTU/BFolgaPG+qq9Z4zKGXQYexLP/fFTa3nGkoL20TnyMhuPt4N0stWVFYePnwUZcr775D+IMPezi7aKVTfWFtbS9efxWA6HaysYTAYTFP8t55c2pomrp5MJjOogwYAFwoSo+wDTa5DPqwrA4BiWcWSCxuRJdK26+shE2y4In2XtyYws9uBjEt70k7viX3PVWh3+Hb6p4fi1BQFYNd4jmNzYTIYIc6S5WNDxh9dhSzOAunewStVGjUAqDTqvLpSB56ETTKPHD1eWyez0pNRethqI14TSrSuc2E23gAQHBJ032xlrbF/Dqr53/P0jEzkLmHA5cvXTA7Vv1+UQf/6+vptP/wsl8sfey5vH+1LxV8ZWie1MR5RAODl7XVEp6xRev99ltj34CzdRm9fbfsZn9Xr1jE829ft2f507U1zrx7qHyBxp/1xAiXuAFCpqM2tLcmtLQEAB541AIg4AgAollWgVY2X/IbzmJzFgWNNDiuT1QmFQtAJajQxzuExDSuEuAqkgRKPWV2H9rYPQBYJRwgAv9w/vinxALJM9x28IGCUyRMNO6Rd1hJx+L/FvqfUqE7n3QQAZ4HU38qNy+M2dkF69Ij8/fedxcXFu3btcXV1cfdwz8jI1O+gUCoBQMoVfz/gdX37kCGDEu/EzZ235KLZZTRPnzk3a+Y0MBLULl81fdtqD5p7Fw4PC93z2w5ju4OD/ffbftIf85n/g5234NUJ48caeEeeOn22let5z/x1aw/+I1+5FoCVNQwGg2kSfOtoDY1fvYqKShsbawPjiZwbJ3PiUXtl5HTUQMnU5vo/BwAijmBj1BI08N+ZlwCgi15NsdXXf0YNEVuAyrHrwyS0QTGoVGhPWz8GaTpMhsz3mrLhtBkf7zHYiARb58Ras1g3biTIZPVcrkVkZLe82hKDbiX1lfY8CYMg3QS2yDJ0SOzQIbGoPcg53FvshAJdP7qx858s7VvEe92mDXfrERjgf/r0udLSslZNtHcXSwUAACAASURBVPnSWmOr5ZSpofz9u/60/Tvjzs5OTu80UvnOmK1Jh7bfO4LaFfLamV2HAOid67/zoIeltSeHZ/u6Pdufrr1p5tVTKpUAMNk7ZrJ3jL5dwOKiWx4AlMtrQFeZ52DmpW3JhwFguu9gFslErscJJamJuuQGKNJfKBSqVComk1kiq0wqzwIAd0t7V92NRp/xXfqP79Iftf/OvHw893qsc7eRutqd+shU8jcub9HPiFqpqKV9wxEskjnYJeLRduO3GCsrcUS3MAAYNnQwAEyZ/MKECVOv6/LZA8Cpk2d//HFH//5RBmUECILg8XgLFsy5eNFcZe38uUsDBgy1FFkyGAwrsXYBr6y8vKy03N7OrrCwqCO8wJo4g6ldnp7uqEEvLD3n1pNFMn19fBr0b8H6mA4Wi0WSDVwXVSqVWq1u4XB6kCQ5e9Y0W7sG37eMjMxff93b2CFNUFNds337L62flSH4h65ltOIr9wyDlTUMBoNpGnzraA2mr15goP+JE6fq6urc3V2FQiFBECqNhkXCqsgZjQ2Ecr6wSSbt0Tbdd7B+Bw2lGe/Z/91rPxbUlYl1yhqDJB9FuxAAAG9c2oKUtWMjPxOS3Hn+I+hXkVM3yhfEXaEoIKElycIIgqDY9SrP6wCUA8/6z6Gr6ewz7u5u1dXVLBYLAJz4NgeHfYQOQZ+FJAjQlUujM6DRQZrOAqnJUmuIGTOmxMYOfHHyDJlMm5u5srKq6RJp031jjc7SwkckPyvX1Mpc1O6qLRJqYiipVCuhbk06hBo97fyDrT0dHe1b9/dFYWmtjUb7L1y39uDZvm7P9qdrb5p39dau/cxaYsXna/MV2NnZopyVTJJhUC0RABad35Cgy/upz6bEg3Ryg3Ab7wCJOwAwmUwAeOfqNnrXtgFvoF0ItHalP06sS7dop1A2yQQAg6wIAFChqIkvTi2TVyOnNpOoNOqfU472cwzxFjnpbBQARDuFnhujzYZGZ001cMSOjOx2/UY8PZRAwLt567asXrZo4byEktQl5x85ra/vs5Ae2UyysrMJgvjyi0/ojAo0O3bsWrnqY/OHag3dpb6Run9WXaOpu/DhrKvrEn5D7cSyzHe7TTXq38KbeO9ePXbs2MZomIzvTuLdKVNmV1dXt2BAfWbPmva//5koB19XW3fg4KFWDt524B+6loGlNRNgZQ2DwWAwHYqDg/3fB/cZGLlMNqW7SaNHeblamVdbciT72vwA7RPw6H/fRQ1rC8sfo980qGZAEmSAxH2u/3MfXH+0qnlo+JrGpnGnNL23fUCEra8VaTtr61GKAoDy5n4WJoN4Y3iP54LdAaBOVb/h9v5xXd4GABbJAJ1YBgBSqY1UakMfZRDuaqur9ZZelT/lhPbJ3t/K/YfoNwDgjUtbAGCSV7Tx+xXC0dHh7Jlj9OatW3cmT5lVV2ciJXNBfoGPtxcq96ZPVVWVuR9Yh0qpAoAxHlEoMPORXdVo6pyrhcm001lyebbupQjTFK+HvtDZU8BgMO0LQRB9+vTSL8nSv39fBwf7hJJU+jdznv9IWg5LLMugWv1OWy6vseIIwCjVGgBYMNigU1okFoby2bmHtx87OEmQ25IP36/MXddzLrJcunQlKfmev19Xgxv3gcxLn8TvRm1U2NRgqB0/bwsJ0ZYeUms0al1JIjXVQqcqNpuNZLViXeAtm8ESsfmTJk0wqawtWjh3UMOa2kql8uq1674+3vrG+vr6Dz5c+9jypvL6egBwFdpt0Lki6uyPT4zQHsycOQ3JavqF14MCA3r16n7s2MlWDm5rJwWAMnn17vvavA2Lg8bSdgzm2QMraxgMBoPpUGxstBrTlcIkVGIMob82rtSo4ktTe9n6LwwcjSxl8mo6AQ39bH2vIntVnDYCdKhL95ldh5ANXxIooAggTFYu+9/VHxwKo3OKm537lsVkfPliVKirA/LAyoPEexVkV7Erg2C8Hf6iQefTeTe/S/obtWd1HTrEJfLEidODBkUDQG5NMXJGq1TUMgjSZCE2mUqBPOwGOoUBQLiNd36d9sE9XOoNANWKOiGbV6Go0VAUAEg4wpCQIF9f74SEW8ajvfLqG3PmzGY0jPs4eepMQUFhcy/C+q82uro6i60aSITJySkHDrTXQvRYj6gKuTbgaKxnVNOdm4ulpXDNx6uNPs69tWs/12g0bXsuA+zt7ZBTCU1JSWl9fX1aWrqXl+d4z376u9LS0tt1MhgMpuN5afYMk649cUUpcboKkuE2PrSytjR4XK1SJlcrwahetjHoJmhsTyhJG+gUejjr6r70swDwfsR0d6H9Kxc2Jpdryz3/NPAtJ77NcNcew1176B+o0Bgun4jY/CMj1tFtk9OorKwaNWoCk8lcvGje4sXzf7p3hM1gTfaOeWiUHsEAJKvFF6eiW15bodSoRunW6tgM1tnR6012Cwz0f+MNE3USIiO7GRstLCzmzlvc9Hn3/fGXn19XL+8u+sbS0tKvN2wya97tw1tXttKC6bpec/s5BLfh4Lvvn9iVqhXpJBaWBvHOGMyzBFbWMBgMBtMJ3KvIRsEmt0vT1ybsJoHobR+wKFBbaIxFMnvZakW3rOpCN6GdyUGyqguzqrWqUFZNAQAEW3uuipwhZgsAoFJRe+7h7ZHuvT5J+PWN0BfQG0iUQyAAXD0jVlGQA82Q1UaHu74x7FHSmXP5t2lvggdVD9f1nEtXSJh+8hMAGO3Re5xnvwYzrC4EACSrAQCS1a4WJi+9+K2npeOuQSuaOLtCowSA4W49hrs1eMlBfgszTn6CZEeDMB8DKiurPv/8K7M/cVOUlpZNnzGH3hwzZuTqVe+6u7kOG/rI42Dnrt8+++yr1meuKSsrAwApV/xm2CR9u72d7eDBMQ8f5icmJrXyFK+/9spzzw01MPbp3fNuYtJf7aYVAsD0aZNXr37XwJh4N2nixOkvTp4xfLjhlA4fPtJ+k8FgMJ2Ch4c7AMhUiv0Z55EFqQ8WDPaK8ClsBhMAUKpNxFgPw6UFVFx7mm/sXV1yA4MbQbRTqK3OV1p/V3JFNpLS6tUKAKhRymqUMrSrWmnC8VmpUXWTem/q96pBKKiBoFanqgcAawtLtOnl1WXnzh9RG/k7q6lH3mfm8FPKkbZV1swE5XAAgDlnvkCNAIk7ncX1rStbUSPStut4z348o6JMxqjV6lWrmx1zOtytBx3M+5xbz+YejsFgOgasrGEwGAym4xAIBEsWzwMAPouL6nNlVRdmVhUAgJ+Vm3H/PWlnfrl/rImgTgMceNaogBoA5NeW2nGtAMDaQohkteyKyi9/zaUoE7VHTUIwwD4y0wIAAN6ImfSY3gAAUKmoRanHSutNh1hqgEqveqjSqA3KkwGAp6WDp64gg4dlg1xvm+8etLEQRTkEAUBiWQYK3EipyIlxCgd4/NN8e/O/FW9aWhoGDS2YP2f79l+Ki7UuCT3s/Ob5awN7e9r7mT/4zz/v4nG5jo6Ozs5O/fr1oe1TpkyaMmUSAEyZMisjM7s18+dYWADAidz4g5kXkWVF+BR7ngTZ24/xE7QV/QrqtDUo7HmSwAD/Ll0879xJ3LFjV7ue/Wmnf/8of78GX6Sq6qpff93b3m6GGEx7sPHOn/t1Weq7SX18xS79HIPdhWYl/UwszQiTevdzCDb2NqIoIAgwdhRSNSea8uzDW/0dQwCARTL9rdyRUVZfz7WwAIAiWfmMk1qfNTue1U8D3wKAl/2G0yf18HDz8Ghwf3/Jb3hOTTEAhNt46+eGa3oaEba+F8duQG3SKIi1/bhblklPkuZ6UQrt5yVTyQ38i9uKMl15IoOFpbKyZievwGAw7Q1W1jAYDAbTcbz33tuxsTEAhtEpBBBjPPqYPAQh4QjpxP/0SnjToJz6FMBc/5FZ5ZXTNv1rpveUBZvx7/IJjd0gjfM9I7Kzc1xdXR47OAnErvsnjmTHfRA5K9ZFG1Gi0a3eG3iucZnsz3vPR20ek4MaR3OuF8m0T9WTvBrkf+lcJh3/kNYTDz+3lg5TKigoQg1tQU8d2Tm55gyr0Wi+3bQVAN568zWkrJ3L177PoNfIkJDgVipriLiie3TsVVxRykj3Xq0f0xxmn/6UjsDaPvBNY8kVY0xERPhP27ca26U2Nl99/W3HzweDaXOQrPZ35uX4kvvIsjJiBgBcKrjb2z7gSmHyD8mHV4RP9rB0+DnlWEJpGvrJHeoSqZ/KEyVCqK6uqampsbOzJUkyuTzrevF9kxVCjSmrr1p5/eeE4tRg6y5f9J7P1d2GAFApaAAAK46QTjKA5iBgcV/yG44sW5MOIVnKRSBdHvpIHnIRSAGgh51fD7sG+rhcYSLjWGJZBgoI1RfU1Gr199//aM6nMIZFMmknPrbO3/wJ5NTps/97d1WAv7++saKy4uuv2zJ6lEOy6IvAIdv4aiwOGivRPbPhUFDMsw1W1jAYDAbTcQiFAtRw5jdIYTvVZ1CgxMPkIRXymgv5d6IcggwS/wPAEJdIP50M4aoXMXq75AHKBRNh6yunqCFr92jMEtUolVfCih5jR7r3Mtk9qTzL38otv7bUWSDt5xBMe2D1cwwGAIlEQve041oNc+0OADO7DhnoFGowQw7JpnuKOHwxW1Ahr/kl5fhQ10gpVyyXy7OycwiCcHF2srCw6GMfaDCN10MmGFgELC6KrEGaI5vNho4FpUBuGEkkk3CEkRHhh/89lpJyf/KUWd26hekfUi+r/7lFPlmb7x7ckaKt2GAy4zXmv4Czs7bm4C/3j6MGEhTc3E24vmIwTxel9ZUA2nWaIznX4nWVQEe59w6z8e5tHwAAhbKyxLIMJHXVqxXfJ/2D+oRYd2mgrAEBAEKhgL75+lm50R7ir4dMWBY8TkWpkUr2Y/Sb9G84Sv0psbBcET4FlSJF57pUeLe3XQAAcLna3KAskmngV15VVb19+46JE8fb29vFFaUklmWIOQKDnP2IujpZbm6eQqmoral1cHC4fOXqzp2/GXeLsg86kHHxYOYlAG0NcS/vIABQq1tYxwAADujW6hCtT1zQHgQG+peUlJ49d562FBUV37z5+CISzeKD7rPadkBERkYWahgIapmZWe1xOgym08HKGgaDwWA6k5HuvUKsPa04lgAgUyl+uX+MTTLHd+mPHuu7WDq4Ce23Jv2zJ+3MKI/esc6P0gZTAERDQY1m1fUdKNM/P62fXPm40DACorwdl40IpmuPgs6l7l6F1pMIuRH5W7mBXkIZAw8sgYCP9u6IeceRZ81naQMJTc6QpqvY9d8Rn+hbUlMfjBw1HgCEQqFBmmQnR4d+/aLQC4Cjo72/vx+qzLBr0P/0u/G4JoohtCscjmktb0B0v8P/HgOAy5evXr58tWMnhXn2OZoTtynxAGqnVz1EHj0YzNPIFJ9BtGNyb6MFFWP06xIMdY104GuXdoKtPWl7saxi4539qD3ZJ8akPyxJkGw9RzD9Wjp5tcVOfKkDT+Kgy+/5sLb0QMbF/NrScXrBjxpKu3SFvLnVavUby985fvxU//597e3tDIb9IfkwajgLpENcIotLSoYMHYUsc+e+tHXrDwbTq6mpEQgEBtJPTU1NizU1uVy+avXH8+e9bGD//IuvGzskQOK+bcAbdBs1Imx91/XSVj6NlHZt2WSapnevHrt2bTe2z523+PjxU21yis1bvo+ICOc3zBAXdz3+woVLrR/8119/r6utM6gEmpmZ1VaTx2CeNLCyhsFgMJiOwMnJMTKym6Ojg/EuWnv6KeXIjpRjzgLpzK7a3O0Rtr4GAZIURWmAYhCkiWpnAJWKWhGb/7xn338vl2fnquXwGFlN1TX+Re+erwT3A4DLz3+jv+tc/u23Lm8FgFCbLpv7LaPtQraJvGa1qvq3L29bGDjKz8rVW6T1psmpKXIR2G64/eelwrvIsjBwTD+HIHu+ZLhbj1CbLgCgVqtVKu0bglwul8vlf+4/iDarq6tPnTpjcKJfdv4KAGFhIX/+8SuyVMhrNNpKBiBmC0iCSEq+1/SnboxpU19cvtywDtrmzds2b/m+iaMEAgG3w7W89uCd8Mm0dBth69th53XgWVfIa+l2h50Xg8E8CRQWFQGAE99mcdBYc/prKA0dFIm8s8d4RI1pWNZg74MzE7oMyKkpogPximWVXXWubIezrq6/vQ+1J3lFv+Q3/Eph0qm8hGqFrKe9/2j33key47649XtPO/8Pu8/Kycl1cXFOLMv4K+OiE996Xc+5BvPRj9CkgDpx4nRj0klebcm2hsraYz/s9BlzZs+abmD8cfuOxx5oDIfDQe7Ve/fu37t3PwAoFAqVyrDUqT6ZmVkFhUX2drYmSwMZZLUTiyw/+eTD6urqL7/cIJPVt2CGBoSEaMc3SIAQHhbaVuJUQsKt8G69H9+vpRw42I4lgDCYJw2srGEwGAym3RGLRUf+/UsgEOgbZSoFAUASDDaDYXzIw9pSHpMj5ggM7ARBMHRr9Qkl2hiZMF3mYwGLqwL4bl8pNBnZwWGQJ95+oUpRt/h8Zjdbn6YnH6BL2HyxIBE16AhNuVrJIpkkQfCZFp/1nlsur06tzHUW2HIZbAAoqa9yEdhaMNl0ETRbrggAZvo+cnZjMBgM3cevqKiYPmOOsfhIEMQLL4yTSm1oi4deyNvUk2vo7Gb/PLdWwhG2OIP7u+++ZRxJ+uaby37cvkMuN5H7BiEWi5Dr3KHhawwiidqDfg7BmdUFqN3fKF13y7h08crEF8aBkaB2+/adNhm/MZCrx8c9XjK0N6dqHgaDear59tvvFAqFRGKFNieMf14sFuXWFKP60asiZsQb3ekAYJR772BrT+Tmll6VjyrnuAhs/a3c4otT+jmEAEC41CdcauIGV90wch8Aetr597R7lMyrXi2vUcpQAlAejwcAIrbAW+TsyLcGAA2lOZV3E/Uc5BwOAOtv77NgsBcEjLpz++6rS5frn2tD1JK7ZRkchmm/ZmuJ5JNPPkTtrr4+Z06fvZ+apt8hIeHWkoTXH3cJH09oaPDve36ha30isnNyJ0yYUlRU3NhR5eUVw4ePuXrlLIvFWnDuK5VGDQBKjWrbgDeYJOObb7YsXjyf7hwQ4B8Q4A8AHA7n/fc/bP2cEb/cP0575k73HbwgYFRbjYzBYNoWrKxhMBgMpt2xtrZGstqd0nQPSwcBi/vKhY1xRSmLAsdM9Rlk8hAKqApFrZgjqFbWCVm8w1lX6beLd7tNBYAj2XGrr/+MLLO6Dp3rPwIA3vz17LWMwiZmYsFmHl8+HrUt2bxv+r5iyeYBwDd39u9KPYns63rNNa6wtjv1JB1WM8U7BjkXcPQyH1sw2AYORwyCAIC5/iPQ3Gjy8h46OTkCwNr43cjCZrBeD5kgkVjZ2dna2FgLhcLq6mq6/4wZU1a+38BxD6Gm1AzChCjZSkYcXiFXK1H7+MjPmnWsgaBWX9+oHtcCauvqACBA4m7gNIHsreHg3/9kZGRaihpUxsjNzcvKyg4M9F+zZjWT0eB56fC/R7/5ZksrTwoAH3yw9osv1jKZDQY/evTE3bvJrR/8v8AQl8j0qny63bmTwWBahlqt3rJlG70ZHd1fLBZVKGqcQQoAUq64se82XTlUqVHJVPIyefWd0nR/Kzchm2/Hs2reHDRqBqlNl3mvIgdlbUPRndbWEgBwEUgneg2QqeQA8N617afyEtCBDIKMdgotkVWiLGypqWn0MsyFC5dCQ4O5THYTLsACAR+taiB27NjWs9eAZs3cTCZNmoBkNZlKgSxcJtvVxTk6uv+ePfuaOLC8vAJlYAiwcpNrtA5uTJIBABkZmWiTvpXHOneLsPW1EptbfxyDwTxLYGUNg8FgMO2On582C0mQXgoYHtMCFQWrVNTKVHJ7nmSe/wgug4OkLpIgUO0wIYsHAP9kX6GzOD/n1kN/6Z5mwNo96sZLFTCYxOsTXdfE7+r15xkAGOXe+53wyZamQju1cxa7+lm5AoBtM19RaPhMbkpFDhKbbCxEtAyXX1Dg5ORIUZSQzdt1/wTolDUWi7Xj5+8B4L133x4xclyOrnSmq4sLAMhUij1pp5FFl+KNAIB+DsGlcq3PmoQjBIDRo0dUV9fk5xcsW7qYw9Er5QZw9uz5Tz9b33Sq5mqlTKFT1pQaFV3i87EkFKd+k/gXao/y6DPavXfb5oTeuvVHqdTGwd5e35iZlbVr12+2tmbVuWuCO4l3TdrXrFkdFBhgYPTz8z127OT9+6mtPOmN+IQB0UNbOch/k6JCbcFZAw+OgvyCzpgOBtM2BAb6o5Sdlmw+AKRW5nlZOhIEsfnuQeRB9qAq/8veCwyO8hW7+IpdQBccymdaAEBebQmtf5ms9GLHtXIV2qIioTWqepRCVMDiOvNtfoheDgD2PInBIQ1qg+rxSvDzdlzDG+WX6zeev3CJxWIxGOTEiROGDxvsxLfZOkDrgIbuDuXymi13D4LuJmhl1b6a1Nr43agMAgCsCJ8y0r3Xi5PGR/VpUAb6rwOHTp48rW8pLS1zcLA3iNWtra1F7uEncuPpMWUqeVtlEuBwOCNGDAOAYa7dw3UPPI1dfwwG8ySAlTUMBoPBtDt09OLRnLgIqa+1haWAxd01aAV6cH/j0hZ/K9dlIRNIgqTLAjQr4VRxBdX3YxMFxRAEwEtj7GYERP+dedmc0TQUBQBSrvjH6Deb6Ha7NP1KYRIAuAhsUSXQb3RObd5i5yEukV1EjgklqXWqegBw4j+K5YzoFg4ABEEsDhxzsyTtblkmvaugrsyeJ7G0FPbu3dNgIf27pL9pZY3L5Ez0GoDab4ZNMpjY/1a8CQAajYYkSYNdfn6+J0+duX493ozL0GzCpN7ofYxGo27LqEaFQrFy5UeP79emIG+1j27svF+hFTp3xLwNAExm23sLYszn0uWrixYvMxA9q6qqt37/Y2dNCYNpGi7XYuSI4UTDn+VLl67QiygR3cL37t2J2kjwKquvUgntWQTDZAyghtJ8fvN31B7fpb+npQObZAKAI98GADYlHqCVNWe+NNopFACKZRVSrnii14CxHn3Yej7XdGUeMBLU7lVk59aUoDaK/TSGltWOHD1OGymKunbtOgAsX750+LDByBjUsAj4g8o8JEshZc3k4O1KSEgwnc4MMWLEsMjufUtKSmnL1GkvzZgxxeDAPXv2deniCe3GtKkv+vt3BQAbC5GNhaj9ToTBYNoKrKxhMBgMpoP4O/PymvhdG6OWWFtYeomc9B/f/0y/sCxkAgBk1RQWyyoj9FLDpFbm0TUB9PERO4dLvQEg+674SHJtYycN8xJvmDj0j/Rz5s8zv7bU2BhlH0g7zfVxCASAxLKM7feOAECIdZdhrt1TK/PoeFJvkTOK3zHwrfvp3tH4kvuovSFqCTSMJ1VTmrFH3kcL6ebMk6HLG12rrGcxmGySKVcrb5U+KKwrH+neC8lqX93+g572pn6vClhcJpPJYDDeXL7MxdVZf7SHD/PNOWkT0OnemCRDxOYrFIpvN33XyjGfEO5X5KI0RtD4FxLTwRw+fPTw4aOdPQsMxlw2fP3FoEHRBsbqmprRoyfU1NSWlpb5B/gh4/n8O1YcYaDEnUUy19/aO8U7RkNRFky2lCumAMrqq+KKU4a6RP6ZcWF/xgV0CINkvB4y4XjuDT+xK0rQZhIpV+sURstq14tSUEPf2So7O9fV1VlNaRgEebPkQZWitlJR+1fGhT72AVwmZ5BzN/rugwS7jz5ed/78pbq6utzcPOOT2tnaAkB6Vf7hrCvIgvy/NBS14qphMdAW069flKhhRH96ekZwcFD37hEAEBbaaFLOzXcP0jd9VITUwsLCYByTizrtqqyh2NWEktRNidqiRtN8Y1GeitYnQMBgMO0BVtYwGAymwwka8/YrsV7m9k7/es4X7ZtHvTOY3XUYAFBAEUCgBrJLLURuAjvj/u91m0YrREiu8rR0+Lbvq89vOFBRLTN5CoKAF0fzFgQ0FW1XoagRswUAsDhorEGsx+7Uk/9kXZ3uG4s0Mleh3ee95+t3qNela2kMlUZdVl8FAGwGC5ViiCu+R3+KhJLUMBvvKd6Dhrp0ZzOYAEASxOe953uJnABg6JDYvXv/bLoWQVplnj1PImBx+Szta8CetNOb7x4EgBBrT1RxNbVSXxLKRZdu+vTJc+fONh5QrVYDwImRn9F51swJBZXJtNff2qLBW01q6gP9ZX8MBoMxJihojK/pKjL3U/5IepbufX5+vgBwvSglv64MWUa69xIKBKdO/gsAKSmpDAYJAMkV2X0dglCHcKk3WkCiyah6OOXEmvFd+g81lXwt1rmb5nH1Tw5nXQUAKVccaet7tTB56cVvkb2nnf/6PguRmubq6gy6xZtJXlo1UMjioTt1tFMoEtRoUlJSm4iORyVudqee/EenrHlaOg5360EBVa00FIl4PN7nn69xdXWxt7Oj3a7r6uquX4+/fj1+5y7TzulTp0z68MP3m/7gAMBlcuiASrpxPOdGfp32VrUwcLRxDGzTDHIOR+nnAGCQrrp0W5FYlplYloHad8sy+zkEJ95N2rq1LT1zBw4csGDBywbGzZu3GZcmx2AwTYOVNQwGg+l4ugyOifZ4fDctRwCe9rcLheKRCPXDvcO+Vi4CFo8AQLJaH/tAK44Q7eUxLQAgtTLXQ+iAkgTn1BR5i5zseZLhbj0Mhh20bq9cpTZ5xrHh3q8Ne/SMi4Stke69TLqD0foaTU5N8W9pp4tlFSg/uprSPKzVhsO4CGwBQKlR/Xz/WNOfOqO6YPrJtQDAZXJOjfrCZJ/e9o/C2Qgg6KqjAwb0HT16xP79B+m9s7oO5eneBFAo6KGsK+lVD5HvGwDI1crnPft6WDq8e+0xj918Ph8AsqsLv0s6hCwzuw71FjndunUnPDyURTL1BbXdu3/X/+czprS0bPqMOaNHPadv1FDUhg2bmp4GBoP5b+P/9sl98xq9F55e/seiDGx+bgAAIABJREFUp/3eZ8ya+N20jhNp62vPk1QoasVsvq+vVkFDLrH0spNSlzUf/SwzSeZ038GBkkavGqnzJpvmG0s7r9FCWIW85sMbvwBATzv/SFMZwWhnNAC4V559pTAZAEZ59JZwhE58mwpFLY9pcangbi97fwKIf/45QlFUfMLNCxcuteBSMAhyRbg2ypKtqxIze9a0YUMHG/S0shI7OTmOHj0iOyf33LkLxkOF6lzSTuRqcx3oB66uvv7zKPfeYTbeS4PHLQ0eZ3x4C4iNHejt1QW1DZ4rkpNT2uQUJrlw/lLTd+TmsmXz1wYlU5HRxzekDc+CwfwXwMoaBoPBdDh3vhjo2UBnGf/94c9i4OTyN76ml+iDxrz91Zp5HpnfjV7UVNkqs/AfP84HAOD+/X13ksw8JGicjy+AsddAUJC/6SPuNOVcUFFZCQBDXSNRLGRWdaH+iwGdWw1Ro5TJVAokqwHAqdyEa4X30GP3NJ9YFMySXJ49f8tlTSP1Cs7/zzD1WIyTiewwVYq6CnmNmC2IK0wpk1eDTrHSL3KPYBAkEtRoWCTzl5h36pT1Ko26VFENAN4ipyU6rzcfUYNAyybYlXoyu7qwl33AAMeQ8/m3D2RcAoC3wiZJuWIeT1tnE8Vpith8gxqjRbJy/U0Og8VhsPo6BEVKzcqgfCrvJp2Fx01o5y1yunz56qzZ8wy6VVfXPLYQwfnzF8+fv2jOSZ9SdsS8nVqpjXLCoaAYTJsQ9Pbn8zwg4+SKVzfcB/B59cAaWD7+6/s+z70yd15MxvI2uPdBM29//kFBJu1Jd4xvb0H+QU3e9cxn9qlP/xy6GgBK6qtsdJ6/CSVp4TbeqIg2smyMWhJh6+sqsKVzro337MfUCWFjPKJQY8LRVS94DZjQZUBXsWtXsavBuTTwmB9ziqLuV+ZKOEIpVyzmCL5L+hsA8utK3wmf7MS3duRZA8D62/t62r1HEMSrS5cjT2dj+vTuSVdbRrWwTWKgSaWmPkBHXSxI/CH5MDK+5DecXnMyiPc04KMbO2m3OIVaiVbjLhYkHsmOu1ee81WfRVYcIZvBVKvVcrkCAJhMBpvNbvqCmKQxF7nvtv54+/adf/99zKrbEwWS1eafXU9btvRfZqy1YTCYx4KVNQwGg2matixuaJpxmz6Lge9GD/tE/yH9zv5PYvanfZ/82Vev/RPT8mjQoLf/PTjXnd78LOP08qUL9zU5XNDbm76eq+dS9xlkbB0/8JO7aKoHPzNME4N41KcB2qtXVVUFACySuTJiRmPnpZfoGQQD1QNFfNTDRNzivC2XTIa8MNgwcjCjUFZux7XKrSkWcwSoNKc+dSp5paL2WM71OlU9ekWJdXlMBEedSs4zqsn1f/bOOzCKov3j391rueTSe2+kF3qHQAi9CRJA4QVF0CiIqGBBfyoWRAReCy8oir2BRkG6IB0UpCeUQEglkN5IuVzd3x9zt2z2LgECIQjz+QPmZmdnZ5fjZueZ5/k+ASpxPspJYUnCj5dqS0QNlveZLYpp1Rq0ar2G5DfIrSk+WHQaQEZVvrvS6ZX5L859fg4AlmU0Gk1hUXF+3qWEhN6FdeV/XDqaV1u0+/JJ4nRwoizzxb8/A7Cs11PxriHdPaNIKCiAFX3nWJiEmvxKc+DIv9S/EE7w5+1ky9Y/SAyX0KCWlZ2Tn3/pTvw4tDqt9dzuD+7t59badxczYlAQds4f8DhJKEw8ts6kp59Jf3zdxc/PLXnmgVTToRZys9Nf3MtLhe2vkbN6tHAWjhuz+sNFScFNzXqEljy93JpCNxsHodfYdeENajwvdnxYYzSF828vOFpcb9qA6eMVG+zgLWrc1SOC91wjBYZhjpVeSM3aR4x9QjqZ9U/lZqfmuLhog8EIQKfTZWRcc9SaNGniwncWiE6fHTc2xDwAYvPiOG7+K69LWMl//vMQSSAeExMVExMFIKMy/1xlPmmcUZnf2ys2+2phiIM3wLX02RaN2fZab6/Ypb2e3LvvwPTpTwI4sH+nr6/P292m8fG55lDQ61yFTAoA+LRIxER46dKlLVu2tWB41uAATAkfxCcGjXEJEh4StbzF/7CnyrOsDuA+4D65zdsLfXOwDrWsUSgUSnNcz1nn1omZPzMRO+cvSrNy7Jdtu5csGTgidllay0xrySs3PBGUs3P+MzPWpwOIm7t7w4wlv6/kgmc26QuQvHLDE4k5O+ePIqcgJnl16tInUldnRk1PBVJnjjofIz5lxNKNKdi+6Yzls+Jrtm7dvmjR0j59eoaGhvj4mN6t1XrtGbOASBePCGJWA6CUyoMdvJq5rf7vrrX679I12KtfLxnHmfRTmlJxtpUqbKWKRyIaxZuszzmYW1PU1SOit1fslPBB/A45WQmIzGp8DtBAe69RQT01Bh2fiEBY/ub8H4H2nsLTWYYVqkRzwLTIYfzHWp1JsCzaOQiAra2Sd1sDEBQYEBQYAMDbzpVIpw3w7UjWQgajkZxLNGvGh/YTjlZoEioqLjmfkdmlcxOWRO4OfOFbBTLs1hj88uWfbP/jT0njTKD5+QW1tbW3/2J3nNZ7bvcD9/ZzuzN3l3MxU3Qh8vGXj1bP3JDycuz6RS3eVrr56S9t0bxRmxpXjZi1MSUxZ/u2NNMgY+avXpqSFIScXCComR/MZp7e6KBefDSoSNLLVmIDs0hCUyw+seYlQT7oVWc2VWtNv0VPRI90UqiEMZ6/5xzk93JiXYIAuCjsv02avynvb5JukmVYXk+AZ0xwHyLi5q502jT8XXu5LdERM3JGPWfUGfRfD3iJxJyu+20tf9bCd9///POvSLlTR1Pw6eHiDAC+dm5+KjdHuZ1o84njuDVrUr29vBYuXACgSlsnYyVyVipjpRFO/qODehnBbb90tPEpt+Obae7kxMlTvr4+MS5BAqMVSsvKKiqqbuQq759Yw2eQMHCGMcF9bs/wAAB//X2YFIRjA7Bv/0HxJThwzO3/D3tv/77x3Ce3eZtpna/cPQC1rFEoFMpdzPmsHCS2i2iZ0NqYL5YkIme1aV0BIH1Z4guhuUsSZ70ck2p9p91k5kucwXsKnEmdMX9YzqKkmXPjUpelA+npZ8SnfBSEnNWbmh0hx3GrPvti1WdftI+P+/33n0nlMweW89K8q/vPE74+ZlTlV2vqALjYOIQ5+mZfLXzl8GpyqPBomNUY0JmJHR/uFUHUly2PnijLXHzCpHw8NrgvifoEYOQ4lmGe/+uTv4vOkGbEphZisbfPk19TzOcADbT3HBXUk5jSiM+dMNfnNwNebu6hoNH66UhJxo/mbgkvHfosrSyblFf1ey7A3rOovoKsxBZ2ny5sWW+WTybs3/+XnZ1tp06NFKYBbNq09f9ee7Oqqpp8fDRySKDZtU0kR00Rcr5pZW4KhXIrBLcLA67NKSHtYgQfg1o696FF0x+AM42iPpNX7k5JxM75idfah7VLws4Xkqenhn2Rs+hmE0NWVlb5+vqI1A8g2HqJdgnkK8lEJmdlfBJPUqjTNcrY88elI7ydbmqEWJ7MKmGOvs/FJ/Mfi+orCmpLSdnHzs3HzpVsPpExkLw0cjnJscPKGZZ3WMuoMvmUkZjTIYMH8pY1Dw+TQ3d3z0jhpRsMJoEwMlcSnQGSpqBcc1UpUfCPoo93XB/vOAC9vWKyqq/wPQQHB334wfuiO/rs8y99fX0BDPLrrDWn3+Fd0Xt7xS7o+ghfFp74/PMvb9u6g2EbmTKPHDlWV9dktvE7xsmTaX0TBrm5uQorKysqc/Py22pIFAqleahljUKhUNqWM5nZQNLgZKy33EhPnjMjGLnbWyaGmzw4Cdi5snEkaeqKVTMTUwYPjXvvjLUFy5lFA5I3QbTqWL9156KkptYQybNSgrHzhRuNVz2Vlj72wYd+Xvu9TNbcBDTv4KcquRJAd8+o5+KT82qK82qKAUgv9IC1INCguIqHe0XAvBrZV5j256Vj5NBb3aYB4HsAkFdTxJ/IMgwAdxvH9q6hlt2SFJkcBxvp9TVHcmuKGvTaKOdAAAbOeNm8VgHDWMaN6o2Gz89tKqgt421kXT0i3+vxOCmTxUy1pq7K7IxQpa0LABYc+SbEwXuQX+eO7mGVlVV6vc7d3f1Y6YX3Tvwk7Pzrr79bunSR5QhHjhz2+utvAzhl9oEUGdROnbr35MIpFMrdyZlN23NTUlLmxxHHtPVbdy5ays9NEaEtn/vQsumvMXFzdy9JDN45P2iGMCJ1/fRgYezqzZHy5Oynn36SZdiJExuJ6H8/8BW+fKIss71rKMuwZEoSJaTm4Z2jvxrwosgDbvruJV8kvqDnDFJGMrf9hONljfQH9ham9fOOb9BrbKSKK/XlPrauuy6fWG72wp7bfnxyaL9SddWMPUtJTaxL8MLu042ckW28ZZVWnp2y97+k3N419NN+zwmP8sJq+eZplwgU2EgaiZp98+0PUonk3XcXAHBVmATU+PhKP5VbR7ew3l6x/X06wLzd9czsp6RS8ctDnz69MjMvAujuGdXdM8rycQ1pnEfV2cXp9dfn8x9LS8tWrfqi+Uzct4KDg32f3r1ElXv3Hbiu/e7SpYJLlwpaaVQiVvV7/s5ciEK5h6GWNQqFQmljUrftXpqUuHTXXMxZJpCAiUl+eenSJGDnqpaFw8S1CwZyL4pXJmQxE9q0K4DlkiMmrOmt+eShicDurTcjNH3ixCmizhBk72ngTOLHysbhlnM7TLD0opLmx8NgZdrStztm52h6j1frtUqpfFfBCaLNz4GbVJkU6SxWcQZwoDC9l1cMWS3M7zTJskF+TfHEHW+TcqC955pBr1331vTm2zFyRv7cCOeArxNfFN8LKxni3+3DtEYPTrSdbpV1OQeyrxZ+2u+5rKzsq1drBgzo19k9/OfBJillkajcsE0v87a5bSMXO8rtSHnfvgNjxk708W7kl1dcUnLs2InrDoBCoVBuC+nvrdqZsmjwiJhF6WdApsIlMzbuGrgzG0lJ13eFboaWTn88Y77YMCM4Z/WoGbck9Cbi8uUr8+e/DuD0mTNznpklPGRvr1IoFJ+d3fRVxrYxwb2fjh1rJ7MRNiA+0ZxZz4vP8OMot+N/2AHU6tSV2loABqNRKpGEOHiL/K+9lM4AwDAAWDAAZGyjUHcAJeqqEnUVX4Y53+jh4nMA7GW2Qt86nvDwsK+/WvXGgoV5ZqcqYbDkyx0feiC4z6ZNW8nuDqGyqsrX16dfv74A6vUNtlKby3Vl7x7/gRz1U7n/MvgNYaJqAMSs9ubRb8hHOSub32mSg4P99h07e/bsfrmujFdn87Nzi3QO2LJl244du/nTO3ZqP3XKpI4d2nfsIE58+cknn1veVPOMDu5lMAu+jg4S284ILMt+//2X8XHiyf3I0WPjx//nZq/YGuzevS8xMSHeNURUSQp2trbu7m7CQ1qdjmRVolAoIqhljUKhUNqa1Jnzhm5dmjRj6YYZS3Nyd2bnICQ4KTgIAHJ2z2vpm31EuyBgd6bFAiL9Yg4QHBZ3w1E2ybNSgpGzapuV5nFzZyUhZ9WKm83gptXqZDLZq52tvFaScE5iVsuvKbaV2rgpHQGwVd6os5IU7K2Hu4W6J/KC/UqpHMCCro+Q6I9LtaUag/X89GUN1cdLM7t4RNTq1CqZUmvUy1lpnU5do1NfqS/nNYMtCbD35HOA8tGUAILtry1gZKx028jFpEx26fNriif9uZDUhDj4fJt0LVD0aMn5VWc3kdVRuJPvE9Gj1Gq1UilOvCDC0dHhjz92DBjQD40NahkZ548eO978uQBOnkw7edKath+FQqHcIXgXMABA6sxR7VZ+nJKYFAzk7F41p+Wpe25t+ouZv2tRUs7qUQNaPoDm+e67n7Zv3ylMv/j449MemTqZlNfnHNyS/8/eBz7QGfUJ65+dHTd2UlgSEV9jgK4ekTB7Z+fVFr95xGRjau8aOid+3OmKHBIOKdQlIBAxgQgnf5hnJeLjNj60//jQ/tcdc35N8bMHV8CahxrBwcG+f/+E9evifvttA2OhFEckHDRabUVlpcWpKKqvmH1g+S+D37A8VF1d/fXX39fV1VdUVubk5Pya+pPOqN+Wf4QclUtkZGNMq9UBOFKSIZB96BPpHFBVVb1u/Qa+N2cXJ1L4MO1XUnioXaKXrYvIeHRdKiurAEQ6BYi25aoqq0QtWYYhZrXdl0+SGgnLJnjH81J0bc6TTz1jafhLSz8NwNHR4ff1PwcFiQ2pL738f2vX/nqHxkeh/HugljUKhUJpe1JnDDufPPfZmTOSgoPMNrXcndtXffje+lt6s8/JaiKY5sb1a2Lmz0wEdq+wJkwTN2JgMHJXbTYd8vZuUpuMJzExYdyDYxQKU0gIL9QiZ2Vka71Op3Yw78BP3PH2AN+OC7tP7+PTni3MsOxt0cR+fULEFzWa95BZhvVXuRerKwGMCe7DG8sCBOYwAF9lbJsdN5actfPyiUXHf7yuh5pIhtkqQj8CAHrOyG9uk4JcsBXP681pjToAOp1eqcSn/Z6r1tYJewu099QadcQFLyys3auvvvTKK29s2rxVeCG1ukGn0113ePc506c/0i+hUU49jUbz+hvvFBYWNXUKhUJpbdLfm5n43m3qq6XTX/LqpSnBAGZszJmBnNydK+dNT21Kl83Ejcx9Qh4cO/q//13c1FEZK5kZMxqAjJV627qSVAOHi8/9lrOfNHip48MuCnsADXot76LlonAAYOQ4odKocDbksyW8/o9JDW2gf+cE7/ibGjlPlHNAlNkZXOgV7uzsPH36I6WlpVbP0mo0Vuuboaqq+oMP/0fKCoU4Q3fLWHtxz9qL1xzZno2/Fpz72LSpDz00XtiYA/fWW+8ePHhIWPnhRytYlnVxaZSA4vz5C1u2/mH1ikbOyGvFShj2wNiPb/EWbiMajebI0WNWD0VFRRKz2uW6MlJD8pg/OPYBalmjUCyhljUKhUK5K0hPXTY9ddnt66+5EM4bJ3l1akowdr5gNZnamGdTgrBzPh+sOnr0CFGLUaMa1ajs7BYtepP/qDPqp+0ySRHLJbK9D3wAQZALIb0ip1pbN2qJKGEbADzcI7JPO/F6ZtmpX1Kz9pLy3A4TkkMSPEnwi4VBbfflk1PCB/EfyR6+g8wWQHvXdgCUUgUfoyrKDao3GogSc5W21s/OHcCPmbsK68sD7T2TQxIA5OXlXzHbaGxtle3j4yzH76dyf6XTZMt6AHX1dQ4O9mhsnuOsRa0+MGZUTa0VrRa5XG5ZCWDIkEG1d4E2821HLpfbO9iLvm9NERgYMG/uM5b1vr6+n3y6+nYP7a5GIpEolcobfG4Uyr+EW5r+Uj/6cxiwdVsWgLChKSlLUncPFWb1scJ15z4RKU/OIIWi+gpSIGavTm5hp9yzRgT2GB7QndT/NtQ0Y+69cmrfFZOXcU/P6DHBfQCoDWJDVS+vmN+HvUPKj+1+n7e7fTXgRZJn4EJVgYuNA8MwDFDRUGN1eDEuQRvMnbgrnYSHBvh2fLXzZAAyVvplY5WD7KtXVp3dlBI9KsTBu6FBCyDQ3ot36yYFiUQqejIi45SvnRsfVkmye9vZ2fGnNCXPyrJsfHwsgDHBfSSM6RWChM0GBgYIrxgbE221h5Dg4FGjRjg4OAj113i++/aLqqpqg8Hw3fdrcnJySeXZc1YstyNHDrccm9UrMgxzu3547e3tAfjcpHn3RggLCwVwoixz5r6PSE0n97AVfee4urrcM7PGPXMjdxJ7e/uy8rK2HsXdCLWsUSgUyj3Jmcxs4NaMa3Evb12ahJxVydOtRnsSieht19YbQukNHx9vAMcahyWSd9/msZU2EpcpVVeN/jiVg3inOszLeWZSC4MpzlXmGTjjo5FDOgpCPnVGvYyVHi09D2BiWH8A7kqnXaPFtk4SrCplJSpWCXMYJgduzcVdpeoq3rIWGBgQGGhF3E0EWU118YiYbHaCI5E+RYXFs2Y9L5GwABgwD457ILF/gqenR7W2johV6wz6g0VnnowZVV5efsxa7KderwewdaTY/ePUqbSq6uobeEi3RJ/ePb28Gtkxi4qKDxz8u/Wu6OrqGhkRZvVRWMKZlaqfO7iSFDq5h00JH6TRaG6wh3sGpVLZu3fP++2ubws+PnQ91qrExMU1ztR5E9za9Je+bPoMczl1/aaXt25MWfRF8nrr8yCAG5j7ePr3T/D397WzswXwzIHlR0pM1pnUIQt87dy6eER08YggNUXqCqVEDkApVchZ6yl0Ori24+eO3t7NTa/8LlG4k1+4k59lg8t1pR+k/TrEv+sgv86wMKgBCLD37OEZPa/DBNEcTajVqRcc/TazqiDKKTDEwVutrgcwsV1/Pg03oaCgQPRkvL29AKhkSj5DgmgDqaSklD+F7BjJWCmf65M8GY7j9u7dP3HCOJgNajx//31YeMV27YItBw+gpKTk2LHjHh7u5OOrh79c2P0x/ijLsi4uzgCGDR00fcZTVntoColELGPHc7t+eCPCwzgGF87f/hzWXBNZHWpqau+NWcPHZ8S9cSN3mIjwMI2WxkZYgVrWKBQK5W7mVlYXQLAVqeYmpJ0tSF65MSUIO+cnWosD5aNEhbkLNm7czJdTUmag8XoDwPBhQ0ihSlPrpFBZvWypumrX5RMT2yUCSA5NKK3AQY343U4uYT+bNlBYc6osq71bKAB7mdJD6QSgrKFJ+xFJ30kwcEYS2qk2aGWsdHhADzcbJ0eZHQCtQWc0icNAwcoYhoFZ3UZIeUP1rP0fV2vr5BIZr7Vcoan5KmMbKT8VM9pWqghx8D5oDgDhlxBr1qQ+9FAygKfNwm2Ejh3b//brj/zH6uqrn65a/dKLzx8sPP32se9I5YjAHgDU9erS0jLRrrher//gg+ULFrwqGuq33/54LuM8x3FNPZnbwsgRw95/f6Fl/dNPPy8KXL2NcBw0wYE3KKscEOAP4ERZ5qHis6RGa9RNCR+k1WrvN2FmlUplMBjut7umtBlxc7/4aCBWDhNaqeLixkREZKY2jriMe3npxpScecFW3aVvjFuZ/gSQNAtJQ8cgtUm3tevOfYQhQwa+u3DBtY/+XWNdTIYeIqPGcRzDMGT/Zk3mbhKx+FLHh4iHmlVEc0dT8HPT2ot7+vu2J67cwlhRXzt3o9EYZS3bD88HvWeSwtSd7/EJSdcNfUslU6pkSie5HczptsPDrQuVdu/elThNG/SGNWtTNRoNmbxUMuXaxgoM9fX1GzduNXLGjz9eyQfpSySSC5kXw8PaiXJ9njqVvmXLHxMm/CckpJHhrLyicseOncKa6uqrAIT2PlKurau7cqWQM3IAStVVhfVlAKq1dbxbfZRzwMLu0/V6/c3+WkolEgAsww7w7Wi6C4YFwHHc7frh9fH25hjrX7lbhMyVltxLc+U9cyN3EvKVo1hCLWsUCoVyx7kjq4vzF3ORZEWquSlpZ9EIdy9JRDOZ0eKGDg5uSe4CAFvyDldpayeFJclYKf8ez+/JO8jtRpmDQea2n9B34RrLHna+PIEU8mqLr9SW9fSKIWY1AE9Ej3wieiQEymUAjJxxxenfZ1tbgUgY1tXGAeY40GiXQD7r2ZP7PrAMpcmtKfpf+noAPbyiiXuaWq99p9tj7Rx9hd06ye0uVhecLMsC4G7jODViMAQGNZ6TJ0/t2LGzR49ufE2fvr2iIiMA1OrUpEYlUzo6OrRvbyWeFIC7u1vGuROiXfGzZzMenvTI1998b/WU1qZdmOnfIjXblFyMPCi+nkKh3LeEBAdlN66JmLNoacjq86mWaalbzi1Nf2IyL+bg+sqaN0BggGm+I7YzsjsipKn9GwAvdnyoh5cpklEojna5rowYyPxVHjCnKSD9SxgJ3xULFsCl2lJbqYJUCj3mlveZ3cUjYlrUUGKAO1GWuePSMf66pFCvb0gvz+ng1k4hkdXq1PwMRVIAkfKMqOFksmuK3r179u5t8inr2rXz07Ofv3z5yhdffDNhwoMA5HK5VqsFYDRyr7zyxuYt20SnGwyGhyZOJblECX5+viNGDNFoNN9+cy2z55o1qU3pnfGxnCJnuqysHMvGhfXlvAHRSWFn2eBG4ACNRqNQKBZ2ny6sr6urb1mHdx4/O3cSmUvKbTsYCuVuhlrWKBQKpQ24A6uL9M1/5qTMGDwiZlG60FoXExbSjLQzACBu7u4NM4KbzYyWPGeGMHdBixEJtaBxRrOJKzfAggeHOH6d8cejkUMABKg8AlWmqMNSdRUACcO62DgA4H0BALAM29PTtCb57sIOUhjo18nb1hXAvkKTeA1ZrlRr6+SsVClVWN2Qq9LUHSw6DcDAGYnBiH/j1Bn1pCBjpSzDjgvpRyxrRrOP2OITP23MNUVEvtxx0sigHgB27tqzc9cevv93330zKjLis7ObeJe3lOhR5GYB9PCK7mG+EVIIDQ0hZjXh1aOjI3v36tnU0uLO8MW5LavPbSHlak3t9Cix+gyFQqG0Ei2c/uJikiOQKs5XENYuGMi2fkYLWHtxN3HK/jrjDwYMw0AmkT7cbgCAE6UXKzQ1YU6+ASoPvn1aeTbxWbPMNlChqUn+YwEpE+uYnfRanujP+88VtfdXufurmrSMxLmEEHvZuuwDOwpMlrVO7uED/ToBuFxX/uzBFeuGvsVnQhDxePQIftoVesMB+DD912fjxgG4WH35WGlmuJNvR7ew0NBgABzHvf3Oe2+/8x6AlJQZq1atdnJyJBG10dGRpJOGBk12tsnyVVFZKcz1uX/fDn9/cXBrQkKfjp16Vlqk6QSwe/e+aY+lBAcHCStLS8s2btzS1GO5RQwGw5Qp06dNmyqq/+zzL1vpircRo9EIwF3pJErbamwiSpRCuc+hljUKhUK5R0nftj1nRkrKrOT3BC5vybNSgrHzhSZNZsCYLzbMCMbueU2b1YAxw5KAnasWtdQKWKMT79ZmVhcA+Pb89hNlFzcNf5cDV1HfcKV8MLNAAAAgAElEQVRS3Eymavg5/wCAKOeA7p5RJIIGgJEzjt76fwBiXYLJcuLHTFMMSKxLcLxrSJCDF4DDxedWnv6d1OuM+scih+0rTHvp789ITYJP/OIeT/BJA3p5xZ41+6wRNAbth2mNvPQ4cGQM9fqGMrUp/tRWZuNm42gvsxUNvptHVFF9JSl394y8oSdlRq/TA3BR2PPxOASDwQDg1cNf7Lp8gtS8231Gom8LFejuKzq6hX3YexYpd3K3HrtEoVD+lbRo+kuek7o0KTfs/DDh1Bb3copIUfRmkclkK/73weDBJr83YlbjwCX5dfRQOgs3kzq6t9MZDQcLTweoPJ6NHyeKzazS1C46YVIJ0Br0ormAYC9XAtAYtFJGQtIBiXylU7P3dXEPD7L3sjpU3vusBcS5mJTt+qx7hk+EfXDsxyzDJnjFX9XWOcjtTpVnfZiWGubo923Sy1Y7cXd3+2PbBiJqJmT+/Nd/WvOLZXulUgngnWPflzdcJTXksUilTa5wd+/et3v3vmZuxF3p9Ha3x5ppcLP8c+TYP0esJ9+8yzl69Pi33/7Yr58oj7aWWEIpFIoIalmjUCiUe5Uzi1buTlmSuHTXSsxZcR6IGDFrVkoiclZ/KIxCTV65cUkids4PmrEeiJm/a1ESkLNqO5LHJDfu7nzqerLcaPFKQ61WAwhx9F6btSdQ5TXYvwvRZNEZ9VN3ml7U5BIZAAbMuI9+F53OMPCMLihWK9BEvMy1O6/IXZ6+jpSJrc1ZYX+Dg8ypKQpUebAMOz1q+H/MyUPJ4if7atH5qkvCxunl2V5KFw9bZ1upTYB9I13nDm6hcztMgDkWEkCibweRzUvd0HCDo7pw4eLKlZ/FxjbKa1ZVVW1rq2xKCYXSFDk5uQ0NGhsbRXfPKGH9X38daqshUSiU20oLpj+kzpg/LGdRyoat7Vat+nBzJoCIEUuXpgSJzroR5HI5nxI6NDSYN6vxMGD8BY5pMO/TyFhJlIvJoCZSE3NSqApqTfn4vJtwHCPYSm3WXtxDyh3d24U7+lVrax3lKgAbcv4KUnkG2XsJY0UlTeSvFBLm6Dsz9gGyY/Tb0DeFegWksOfKqX4+8fx2l5BO7mF8++aJjo4iZrXM6sv8dQEMGzbYqmWNcKj4LG9Zq9DUuNzwdC+ivKLi6NHjXbp08rVzAxDpFLBu6FvkUFOeevc2RqPx9TfebutRUCj/GqhljUKhUO5dUmcGYeXuJYlLNySSipydq0fNaLxjT1JlhYTGAekk7AUITlm0VNxX7qrz69PTAcSMHNySlQbMlrVIp4BvBrzUfMtfjlwwWEQbrH92rExmtG9iU31EYA9XGwcizGwJMeHdCJdqS/ZePkUCMIXeBAAinf0/7DNLbzQAIOGlar22WlvnYetcq1PP2GN6ZrEuwf/X+T8KiYy3qQE4V5kf4uCtkMjS0k5XVVUBOHvufFMRKEQQ2lSWKwFwHPf+kg8sW36y8qMbvK87THJovyptHV9u28GIKC4uSRwwVKSxrdFoDh8+0lZDolAot5mbnv4ArJ8enDl/9dKUlEVJKTCfNf+ZGetv1j97xYoPBg0cIKzJqMoncvgPtRswJ/7BzOrLy07+TA4lh/Yb6Nfp1+z9h4rOLu31pHAW++TMhhJ1pYPc7rn4ZAA/DHxF2KdSKp9i3v7hk4oSRDpixKwmxKrLG+HFjg/xbrwkFJTAXwvWvNt4s5pcIjNwRp1Bz6GF2XIOF5979uAKUu7hGf1B75m9evVMTzvCccbD/xx95pm5avWNbkrdFFqt9j9TpgcG+CuVNkuXLmrXLlRkUPsl9bfWuC6FQrk3oJY1CoVCuadJnZmYCsTFxAFItyLilv7esKDNMTCJ0ayfHnxdT7QziwZELWrRWDZu2tqnb+/YmGiFQh4Y2FwOsv9tF+dBD3R3cLFVkLJarwWglMoBrDy9fmbsGJZh/6/zf5rpkLzxd/eM4vWV+/t0AJDgHZ/gYxKv6efdXnSWzqjnkxjEu4YwYLp7NPJyqtGpo1wCAeTVFOfVFJNKsqtvNBpZlv0te19OTXFhXfnBotNEB+f99/974ODfzQwVwKSwJJKx9AaRS6RysxFQLmnjmb28vByAo9xubvvxlvV3CYWFRXy+OQqFcm9yc9Mf4cyiGcMWISYuDgDS05vSEr3OXDkgsR+AMxW5Bs6olCrCGqe4AXCqPOtUeRYphzn5CQ1YQlKiR2ZdLQRQ1lDtZuMIoEpbazAa7eW2claqlChmxj4gbM8LFDTDNxe2x7uGyCUyDhyfKjqz+nKEk8n9WSVTNpONtCn46+4avQzApry/3z+xho9FJZY4W5lyYrvEcEexMtp1kUol9vYqAIMGDnj44Qlffvlt8+09PNxLS8tu9ioAGhoazl/IBDByVLKbm6vwkEFvKCyis0ZrMWHCuIS+vYU1Go3m3UVL76o3BwqleahljUKhUJqnhZuuLe2Zs/bxlseQfrq5Lff007faf5NwvXv3XLb0PZHoyZatf1RWVI4ZMzIwMBCAjJXuGLWEHFJIZIs3/2Opjvv9EyYJfF4a/+8H/wfgx8xdM2PHkEM6o/7PguPDArrFuARNNlumYgSpDAA8FTNa1PPiHk8IP6r1Gr6csve/lulBCeerLslZWVPLIQAsywJo79Zuefr6BoO28cEm/0E3bdqS0Le3o6ODsDI//9JPa9Y2c9YbXR55o8sjFpdova9uc3z//U9KGxs/v0YryYKCy99//1Pr/29qm1v+N0Of261wbz+31rq7kHZjkgVaA2EhAEJHJo8R+lyFtbt938yWTH+n029HLqGUvf81cMYo5wBhrh4ON6H+zjKs0Cpn4Izjti2o1zc4K+x/HbJAKVUAyKgyTVKRTgHEvJVfW/xlxrbRQb1spTa2UnmAyhNmo9srnSdlVl0+VZ7d1SNif2G6SGYUAMdxzI25eK/POTAmuE9q1r7B/p0d5HZonEhnZGDPkYE9he05YJh/12HmEFe9Xj9v7hxhg7j42KysLNFVyD1mXy3MrC4g4bEqO1v+i0ES+HzQe1aFORqUhIK+8cb8CROm3MhdNEVDg7qgoOBWeriztNmMf1uIjY1+f/E7lvUOjg6PP96kc+Vt4l/83NqUf/dXrpWgljUKhUJpG0LajbW2uhjbeHVxp0d123n1lRe9vDxFlVOnTBo2fMzxE6e++dr0Wi8MLdl0SpyGbUqvKDSBgTMuPfnzrNgHlFLFitO//1V0elhANwBPx4292aFeqi3VG/XV2jo+F2cz8Nv7zQxMwrChDj7BDl7nGmdCaIaysvLXXn979+49N9j+008/796jq8rOTlh5/PjJvXv332APtx2O4/4VWc8oFEqbYE1tIDFlSaJFw9w7MZo7joGzvhxlwRC9M7VeQ8xJlZqaOQdMQZEuNvYf9p6lNejq9Q3kUKWmVilVzNr/0fHSTNJmZcKcjm5hAAJUngvEey0mn7JIpwDhFpElxKz2/ok12y4dARBo7zm3/fhYl+DNeYcPFZ0h43+3x3QAo4N6AXgwpA9xTJu+e8nZyjzSybaRix3ldiRDaLW23lmhOn367NlzGbW1taSBo4PDuHFj4uJixQ+BYQCEOfmFOfoB8FO5v91tGoAQB+8QB2/S5rnnntm5a++ZM2cB5OXnOzs7hTn6QmB/5MApbWxw78KyrFDgQiKRGG/GXHsXolKZopVf/+crUujkHjYmuI+DfQsl8yiUNoFa1igUCqVtuE9WF8RbrU7fwKdpV8mUDMN4enqMHj3Csv3bGw+LtsEYhnkiURynKeTX7H3+Kg8iK3OptnTOgf9194zq7B4e4eSv5wxSRsK33FFw7OeLe8aH9hvs32VD7sHtl47V6Rs+6/e8jJUC8Fe5Awg2v77fIBeqLoU7+ce4BK0d9BqpCbD3BJBRmS9h2UingMU9ntAa9QCIKPLt5VRaeqdOPa/fjkKhUNqc9K0rXhA7JTXNhfOtOJQ7TaRTAPGzJiSHJPBBkfGuIQAeDOn7YEhfAA0GLbGsOSvs3+k2jbRxVzoDkLCSseY4TTvZ9Y1H+wrTNuT8RcqvdJ7sorA3ctziEz+FO/mNC0lI8I5f3X8eORrjEiQ8UW3QqPWaaOfALxJfIDUjAruPCOwubEMMany85/Ptx/Nio8IGzgoVAKlMGhpq8h8/fuwkb0n57OwmUujqEdHRLYzsw7ko7EXJQ0vVVebn4MQwzLChg4llzWgwWN41A8bOTqwrdxthWdbHR/yecOVKIf+S06qoVKrvv/uiQ4dGL0U6nW7K1OmHDv1zBwbQepwoy9xRYEqiWq652oKQZAqlbaGWNQqFQrnj3E+rC0dHRwB2UvEaYOyY0Q2NM2PqjQYJK9mRliOsZIB3x/UlZZLzSylVkFUHYXbcWAAd3EL5mn9KMv4pyXg2PjnCyV9oVgMwyK9ztbYuwtkfwOig3qODGol6EHRGAwApyzJg4l1D5axJv4zf56/W1p2rzO/hGUWiZhoM2rya4kB7T2JQ49l+6eiwwG4A3JVOfGX+pUtnzp5t4lFRKBTKvc2Z1NSmlMvuQdq7hRqMRikjOVmWJZykCMSgxkOiNY0cR3Z69EaDlJWIphU5K32x40PNX1Rn1MtY6dHSC13cww8Wnj5YZAp3PVh4elRQT5Zh2ruGKqVy4lUtMqiJiDYfPVx8jhT4fMoZVflfZWwj5ZToUSEO3hJWIjpdrW6Qy2UkYDMyIpyv79ypIykU1VcopYojJRlHSs7n1BR1dAvz8HDPzLzo4eEulUrt7OwMnEHCSL7O+GPV2Y3klGmRQ5+IHnntoXEcgNf/+eqA+TaX9XqSOO61Hovfe2f8+AdFlb/88tsLL75itf3tpVevHsSsRlwCAbAMK5PJpj/2yL/dskah/NuhljUKhUJpllaRETiT+sv9sbowP70/Lh358NSvpDyxXeKjkUO8vb1YluVwTWx55+XjOdlS0fNmWaZPhA8pE/0Ukbq/sDw1YjCfzZO4sJU2VLnbXDNsARDm6xS+mPKVMsHy4Nn4cZb3dKos65XDqw+M/ZhY1gyccdru9z2UTgCiXQJf7zz1XGXea/98dbmujFjWXj70+YjA7n294xcuXPzjjz/X1dU1+bhAZa9aCn1uLYM+t1vh3n5u9/bdtTJarU6plKzoO+f6TYF9hWmb8/7u4REzNqQPyzBEG0FqYagScqo8K94lhGGYKKcAXhs00ikQwNnKvPauYiuekOGNXc+MHJey978A1HrNlfpykn9ASGr2PmEaU5KaJsLJf1H3GaSSBJCyYK4l0mFlAM6fvxAZGS6RSL67sIOErE6NGNzR7ZrIhZety5TwQVPCB03c8TaRRnV0dCS7cQQJ0/RDEHw/6/Ua/iHU80qp1r7ASqXNU089oVQ2Smz6zz9HduzY1eSFLCBmtaL6CuGNjB//4Asv3AnLGrmvfYVplhp5/4L/s7a2MpU9a+css1NBaiuzVTIyJSOVlrh5zPrmz0q1mq3rxHKskWPOZUtHH12v1en9HnkZHBiwHAsG4BgWLAtwDMcAMIsCkjtnAAbgYAqV5SubZIsB/jMWtOL93kE4g/7Kjx8YG5p9w7yd1/s3fN/uONSyRqFQKJRWwc7O9scfv3Z1dQFQpamr0poEVkga+27duvAtL9WW+Ks8hvh37ffdWlEn70/oB+D9E2sAqGTKyeEDHeV2aAIXhb0oQQFvVuOsvV69+PdnB4tOeyidfh/2js6oH73l/0xnKZ2+TXqZuAxc1dbn1hQ5KVQBKg9yNKemUNhJR7ewee0nkHIn9zAAeqOhTtfgJFc5yVUAStSV5F2/rKz8Oma1NsXLy9PFxUVYU11dffnylbYaD4VCofxLefLJ2bNnP8V/DAz0d3d3J+XPzm6q0alJmVipErzjE7zjrfZTr9fYShU12nodZyB7SwTedmapKBrnEgILh7jrjDZm1KHisxzHnTSnK32jyyMvdnjY0rrHO4wzYESJDsKd/PY+8IGwpkMH000dKj5LLGvTIocCOFh0Oq3cpKZKpmxnucpWagNgY+7ffMrU5vN9t4y33nrd0t3s8cenjRz54OnTN+dOPnbb63xZGOd7e2HsVayjp42Lj42jI6Owl9goc9zdJqzcWK3VSht6gAPAHDovGbDnZwNn9JvxBgMOHAuG4xgwYBq9+lh9Dbo70AFpBWUAWNgCYAEdUIkGAIw56pkR/MmXGOEHcfluvdvWgZFIGZa9fjtKa0ItaxQKhdIcdEumxfTt27tjB/FqwVZqMzSgq6hSZzBwQHpBmVEs7cx1C/XKrylel3OAfN5XmLbGLGdmFV5YLaMy/2DR6VBHn/4+HWB+w7pcV0aaEcmzQf6d+UiZKk0tb/uTS0zacI5yu/SK7Hl/fTrIr/Nb3aaVqqvclU56o0nYhTOPVuQCEOcasnXke/zHh9slDfLvjBve4WuTjcCYmOgtm3+zrH/o4Uf+/vvwHR9OS6AbqC2AuqzdCvf2c7u376612bN3/x5BGpn169e6u7sbOY5lmF+y9taaLWsp0SNVMmVuTXGQOepzQ+5fW/IOA+jqETE9aniNrt5WqqjS1vqrPACUN1xlGdZepuRtXiSGVHhpom0vZ6UA5nealOBjmoV7e8UCMHBG/upkm4plmM7u4Z3dw9EYpVROCtHOgSzD8i7eAGp16qGbXiJlJ4Vq0/B3yUhIG97R7JMzG5J8O4U7+Yl6/u78Dt581tsrNt41ZFrkULLltjnvEH9odFAvYh/0UDp5mEUVSIH/tSeTsJuNo5/K3Xz7LICsrGyrX2APTw8AR0vOHyo22dGIadLV1bW5L7ydncovXO7uL3FwlNk6jlm+UavRSjU9OYZhwILjEhau4cD4P/6G+V2jFY1YDUBhJdmiM63ijQDJYMAwjDlThdnqadXiRLlH4Rjmzvxu0zeHpqCWNQqFQqG0CuT9/mxlXrRzoKgSwON7lgEYGtB1XEhCiKM3gOd+EIdjOAWWNdX5ibLM2fuXk3JXj8gPepvysvPCapXa2p8ydz0dN4Y/5Y9LRxYc+YaUhwZ0faPLI1JGsjJhTpRTkNVLkJCcHp7Ru0b/l6wxanRqd6XTsIDuxDcNwMBBIzu0j5s6dXJ8fOzpitxQB2+GYfRGg63Uhr9TYlYDkJd3oxlC7zy9e/cghczqy6QQ5ugLIGlA/3+LZY1CoVDuZjTm1AQiHt+zNMje6/P+cwEU1VcQ0xLZ4CH4mz2mXW0cROfyZrUteYcXn1xDymOD+/BSBsSgxjNz30dpZtMVP7U1T7Rz4PxOD+8sOAGgi3sYAANnNJgNbQazbD8DRhS8GaDyrNOrATDA5LAkP5V7U2l8ePk2qwwP7C7avpo4YVz/fn3d3Fy9vb0AvNzpYf4QB66wvn7FjqMeIx6V2jtKZApOpmABjgXDSF7bf5nbv0bY1doNawAgPCkgPAk3RvlVYtiSmM0Y5G/uvvWWotwlMPSL19ZQyxqFQqFQWpHyhqsAJrbrT1zVyMRfq1OfrsgBkHO1MNDes4t7BACtQZRXi9n4n9lNdWswCt7sOSvZwXp6Ri/o+oizwh5AeUO1q42jZRsPpXOca3BTl5AwLPmTrD2MHFetrQPgY+fqY+cKQCKR/Llj06ZNWy9duhQfHxvLS0GbFxc///xrRsYFUj57LuP48ZNNXesu4cfMncvT15Hy5LAkyzijVkKhUEREiDWnz549p9db+ZelUCiUexKO485U5FrW7y9MP1V2UfiDPH77m1JWMsC3o4KVTY0YDMBf5T42uM+psqyMqnytQcd3yMdsknJmdYFl/x+m/VqtrQXQyytmkF8XtV67PN3kwjw5fKCvndvIwJ4jA286CfWIwO5k0vyoz2wJc9NxaqcvXf1+x96MwvJ6rcGg54ww3oRjsmMgP+cLowg56mdDuXfhqGGtraGWNQqFQqG0IjlXi/p6x8EceCKiTt8w/9DqHaOWzP52l+iNt0+EKat9gL3nS+ZsaIGNE6WJWHj8exKqmeDdPtG3Qx/vOFJvY81NAAAxqx0uOdfdI8pd6bRt5GJST4Zaq1OvPLMhwTuuh2f028e+31lwbN3Qty07GTly2JQp0z08PFSqRjd47PjJ119/22CgtqHrIJFIvvzy0z69xcu2des2PPvci20yJAqFQrldeHp6BAcFwRyoOK/DBF5njXhG8zAM81Gfp5/c+wEfEempdAZwrPRCatbesSF9ic8XBy45pF9Xj4gQB2/+3DjXkDjXEADJfyzgKw2cUcpISMSoSBZNyK7LJ0rVVQBcFQ6D/Lqsy9nPKzDYShU3ssVCEpLCIi8QuUFiVqvTN5Ro63/dc7EwK9Cm1tvAAcCsc0cAYUZLbylMN/XJuYzrXpdCuYM0ir02+yia/uaI7yJDPnIcwHAMea3lGA5gGBjAMUaAZRgjOJaDOd8CMRhzHBiGM3IMB47hOCM4hgXHMSTSFxxnAFgwHGfgwHFgOKPOCGi5+nrd1UpdVammMNdYX9MWj4VyDWpZo1AoFEorclV7Q5r9aQUloppFydeSeI4J7nMjnbza6T/b8o+8fey7er0m0bcDX28ntQHgZ+fOS7H42bnzR6s1dXuvnOrn015k+/vuwo512ft7e8UAmB457KF2ic4KFYDJf76bfdWk6//DwFdDHLyLS0qSx0++kRFSLLGxURCzWkaVKVrWVqIIsPccMmRQm46LQqFQbhVHR4c9u7cpbZUASOrqIf6NlEYrNTW+du5CG9nrXaaWNVQLUxCcrsiZETWCD6VkwJDk1wAyqvJPlZmyAZBKN4GDNjFvCWPEnOQqBWvK4NlUKKi70onPkOBt58rX8x5wjnK7g2M/Fl6CaKSeKy9+/Nt1jMYBBuaGIyKpE1lb0zjLgVC3j+PAgANnBMuCA8syDCuRMBw4SBiGZVhWAikrqayq1Gu0jFFv1Bs4vYbTaww6g15bD43WqG0w1l3VaeqMV8t19TVoaGibe2yCJ598/NNPP2/rUVDuHahljUKhUCitiFDp7HJdmauNg41ErpIpV/efRyrtZcqskipj47drB6XJy+y5gyv9zeawlJhRdlKbjXl/jwrs2cUjQvRmT176hwZ0/eTM76T+Um3pnisnAUwJHwQgxiXol8FvCK+SW1MUZO/FgXvl8BcOMlsAA/w6vNDhobTy7Bf/XlUtsAn6CFYX9zDhjn5hjia16TAL2elWRa3XTtv1PikrpYpdo5fdyatTKBRKa+Dl5Wlra0vKaeVZLgoHAL52brwHmbPC/usBJufcsoZqNxtHXnAAgMagnbprcX5N8QNBvQHk1hRtzjMJX86KfQDAh6d+5R3copwD4l1D/tf3GT6/AWvhp/bb0DebGS2RTRjk13mQX2fLo2TMBVevvrb279zKq3qd0dIuxsCp+Qdyv8JdC0g1kqg9BpzByIExGMHojHoDp9dDp9Fr1EZ1ja66hqsrqy+6Yqgsvm7XXbp0BrijR4+38i3g889XDB6UVKGp2XflFKkhu55PPPH0H9v/bO2rUyh3P9SyRqFQKJRWITMzq337OP7jcwdXHio+u6zXU728YgDE8KpkwJgv14vOHdTXtkpT66RQ5dUU8zm8JoUl2UltPG2cKzW1zgoVK9BtMXDGeX99+kqnSe7Ka6/1OTWFK0//DmCYf1c3QX2DQQvAYDQG2XuRGiNnJIlB6/UaAA5y21BHH3Kok1s4gDVrUr/59odPP/koMDDgFh/L3YlBbwDQxSPi26SXhfV6vb6NRnQdXF1dv/ry04AAf/KRZVmpVPrkE489Oi2lpKS0bcdGoVAoIio1NQW1ZQW1ZQAu1ZX29Iwm9eUNV8kujt5oyKkpGuLfRWvQMwxIcGWFpvaBoF4ASNqcIHsvYlDjsW8cTwqAmNV4/7L1OQdOV+QC6OAWSrTSarT1RrNFTMZKbaWKeR0mqvUNADq4tSP1aeXZAPacKdt25FJtg+4e8ivjLPJlcmAYhuPAMpzBYADH6PScwcBo1Jq6akNlaUNJXn1+JnS65vtdtuy95HFj3jn2/ea8Q6Tmtc5Thgd2nzdv/i+p61rtdtqAxSd+2ncljZRdbBwSvMUp4CmU+xZqWaNQKBRKq5B5MatvwqB3F77Zt28vvpLoBy9PX0de3AHMjhtbXtsoQIAFc/zqiYcMjUJmeLp5Rgo/Prjt9RJ1FSeQd3m+/fhuHo0SjYlWBTYSOXAtz8AQ/64J3u1JmUTHBNl7reg7R3jKxk1bzp49p9For3PP/1p+/Glt584dQ0KChJXFxSWf3K2BEpMmTRDabQkxMdFTp05euvTDNhkShUKhiJBKTUstZ4W9KMElCbyr12sqNDUVDVe/yNhK3KsPFKX39IyRsQDgbesyKaxRzkq13jQNkdkq2iXoQNFpy+vyPnGb8w6TfEGb8w4N9e8mZSX2cltR4wTvOAAf/nH8/ZN/av89eWOIPpWEAStjFYzEwdbG31nVPdRzWNcIFcMAuHDholqttpwpCA9uM/mwS1iW+LMPSBqen5V9x8ZPoVDuMahljUKhUCitRX7+pTcWvLNj+yaJpFFesLyaYvKuD+DvzMuisyJ9XdXIucFLvN5larBZocZeZgugn4/JTJZRmd/MiV9mbK3R1k8OH+hm4yiUm+E47uy58zU114RgDx/65+DBv/mPPwx85QbH9i9CrW6YOevZNhyAUiqPcg4wl61nnLBkfc6BVWc2kfKjkUN57SEKhUK5G2DZZnJiMgD8Ve5E8WCwfxdSO8C3I9+iRlf/V9EZXprtzaPfbMs/QsoLuj4yxL9rd88oXriASLMZOaNJIcFC6qxUXSXUTXv66z/TL5eJcnK3KYxUwtrJJV7OKluX2iOGXTCLmVrKmwpP0xsNxFOvRqfOrylel/mnnJVNbNc/KCiAJJjeknd4WGA3BsyJskyjkevsEW7kjIX15eT0FuQtpVAoFEuoZY1CoVAorYiLizMxq/mp3P3q3JUSBYBXOk8+WGjaZv9snVhGZPnUAVvzbElOsd+GvpSDgfsAACAASURBVEmc0YwcR16dj5Scr9c39PNpTzb8+egVEX8VnzFwxqkRgwGQENH08uydl08AmBo+yMXG4bHIYaJThg0fk5eXr9cbNBqN1T6XL//ko4+WiFZKmzZtzaK73LeA0Wha2X2Z2CgTqF5/negbAFWaOhLGC6DaXKBQKJS7CiPHEckzPk9LpFOAyOzFm4eE2MtsRRkPREQ7B0Y7BwprJv/57qORQ6yedSi/9H+/79Le0YzVxLHMyEiMMrkuZUCXCR3iAJSoq5acXPtIxOBYl2DS7kxFLikQpYh1OQeOnLjWS5C9p4Ez8GUAF6svLzv1C6kJdfCZ12GCkeMGb3yB1MglMuFGy9JTPw8N6MowzOz9ywEcMIu03nZCHLxDHExSEiGO3s03/pfyYHBfV4UDKdNQUApFCLWsUSgUCuVOMLf9eL7sorAfFdSTlJfUrxE2Y1lGzrIPBF8LICXb76x5FbL01NoGvbafT3teR+Zg0el3jn5Pjo4I7P503FgAvTxjennGCHuOcw05X10AIK0ip79PewDV1dXl5RXk6Lr1G8+ezWj+FjZs3Lxh4+abu23K9VCrG+Y8+8KM6Y+K6mlQJ4VC+bcj3Kd56dBnvEDV4p5PJHjHZ18tJFsCHd3CpKxk26UjQ/27AihrqNYbDQC8bF1I+6L6Si9bZ8v+OXD5NSWB9p6Hi8/l1hQfKcnIrSkih8ic+UTUuJe+OqwzcAD+e+5kq9wkA5lE4uVo1y3ONg8mXdQFXR8RpdsWUq2tO1CYPtOsGff6P1/tKDhGym93e2ygX6dObu1e6TQZ5lSnC7tPF/XQztH3k4S29LMWYTQYAEwKSxJF7xqMd5NT4K1RUV4BoLtnVHfPRoIbFZWVbTQiCuXuglrWKBQKpXnuIeneNoDjH2CtTt1g0JK3ZJ7jeSWi59sl2JMU1uccKFFXkfIT0SMBFNdXeto620gUUkYKoE7XYCdTsgxTLXBcqtLWATh//sKuXXv5PgODAoYPGwIgOSRBeK0zZ85dvJgFIC3t9C+pv92eO74NcPfbt279+g3r12+4TZ3dd0/v1uAEf1Julnv7ud3bd9famJ7elSuFzTRadXYjsbWlDlnga+fG17959NvLtWX1+gYfO1fizHuqPMvLtotSouCD5U0FDmqDBkCVtrawvtxP5f5AUG8GzMfbj/9yJPM2/yOysJfJkntEPdYnWmvQF9SVAKjVNZQ1VJMI1jePfnMo32RZO1R8tilvOw5cmKPv6KBelukXeALtvQLNKYaIf3ppaWlNTS0AhmEkEomb27XHxTBQKpVGzjg5fCAJ7TT9KZEYmzBssQy7buhbpCyIBrUyffTq1WPqlEmiyv+tWHX69BlhzbL/fhQUFOjk1OgN5/Tpsxs3bm79/0p36Gf8zbcW1tTU2No10uk7evT4kSNHW/vSrQn9oWsB9M3BOtSyRqFQKJQ7gdqg5TgOQEXD1c/PmTy/du6BSApG7XMK6A/gq4xtvGVtbHAfd6UTyX7wzYCXSCXLMCwjiqcxkX76zHuLlwpr+vfrGxgUCGDy5IciwsNIZa9ePXr16kHKxcUl+/YfuNWbvHmSx41NSbm2G69QKKRS6Vty+bZt2+/8YP51PBo5ZGxIH1Juxj+CQqFQ2oQHHhgJoKmpqimW95lNCm8d/dZcxwF4seNDL3Z8SNiSYZhIpwAAQ/y7DvHv+sHWo1uOX9yMi7c4bIaBvUI+b0TXxEh/qw04cPP+WkWkykYH9RJqw1mlcRgsA2B+J7G5SsjvOQfPVua52jg8ET2StF/03tJffxWnEScoFIoL59OkrOTp2DHCeolEIpFIAIwP7Uc6mRw+kOOM56suRTj58/6APFVV1aIaGxubH3/4mrH45+vSpXOXrr2FNUVFxeMnTG7mjm47MpmMZMf29fUBUFlZCSAnJ7cpY+KtU1+vfmfh4lbqnEK5B6CWNQqFQqG0IuPGjSUFd7O3mouNw0sdHyblLVt/Bq69BTIMV1Rf0VRXovdgu6a3uy3Zs3c/9u5/4IFRvFlNhKub+CX7DiCXy5cte8+y/sMP3o+0ZlkbPWpEaGiIsKa0tOyHH9cQk+V9xZYt2556coadnZ3QoNbQ0LBp05Y2HBWFQqEIIe7ShCinwFLzdlGUU4BlYzJL6o2GsoZqMt91cjdNWN9f+LOTW5hKZsswpvTWQl22z9N2f7epuMXzAAMo5NLnh3YbFndtVJ+f3byhfOOGg5gSPogMg0+V4Ci3U0hkvb1jU7P2Wu/RTKWm1lmheu7gSlcbBz87dwD2MltfO7f8/EslJaVhYe0cHR0AxLgEF5qn/liXIADHSi/sKDhGLGsGg2Hbth2bNm1t6ioGg6GyssrZ2QnAwaLT2VdNfoIk1yqAp2JGk525p2JGC0/kOG7lJ5+TCXTTps3l5eWiniUSlpjVXj38BalRShX/1/k/dnZtvJEjkUg+/2xFYmI/Uf233/342mtvtsmQKBQKtaxRKBQKpbVwcXF++CGTvNrpipxYl+AKTQ2fu2CQX1eSnYBHZW8srC+v1NQ4K+xv/CrDA7v39o4l5eYdl0KCg0jhx8ydpCCSRLkVvL29nJ0b6eBUVVVfuXKlmVP4nfDJf75LCgqJ9MvEF8k2u4ghQwYtX/5fy3qFQv7Fl9+0cND/WrKysrt07W1jY0M+enl6degY//vvG+vq6tt2YBQKhcJja3ttB+jRyCGPRg4RHg2y96p1VwMgoaCd3cMBSFnJjoJjcS4hHdxC411CScsJof0PFZ8DEGzvFesaTJoBeDX1wL7zBS0YmFwi+b+xPVflf9XPpz2xN6WVZ6eVZ8OcY9RBbneo+CzMSUuXnfqFt6PN7TBBJK1AeKPLI0P9u5EykeJykNsC6OQexhu5CAEB/gEB/iUlJYADgInt+osyO+uM19IsVFZWzpw1p5l70ev1yeMn/fLzDy4uzitPb+CziPb2ig1x8N6wYZNcLh86dDCAoyXnyaH2bqEyVnrxYtb77y+77rNS67W7LpvyKRDL2nVPaW3s7OyIWS2/xpQDSiW3dVHYjx0zilrWKJS2glrWKBQKhdIqyGSyxYsXknK9XkM0U9499sPBIpNlbcM+sXtal87MkQqVkeMApESP4qNBSXJPADqjXsY2mrk4gLEwqP3ys1g0TaVSdencMSgoAMAX57asPmfybFLrNdOjhlsdf8eOHV595UVRGMjatak///KrZeMO7eN///0Xy/pxyQ8fPXrcav88OqOeXwnIJbKmmvn5mjKOfWEe/MR2iSqZ0s/Pr/n+71Xq69X19WpStlEoa+vqqFmNQqHcVSgUCr6sMegUEll5w1WVTKmQyGDhQsXD26EC7D1Igc/5w/Pwp1sKyq/e1GBUNrJf544jKlkkXWlixGvk0NqLez5MSyXlie0Sn40fJzpXykje6vqov70HAE+lC4DZcWNnRA3PqymKdw3lm4m07YmEGS+49tnZTeYbHKyUyvVNZCndnHdoX+Gpm7q1ixezysrKXFysJHn434pPHRwchg4dnFaePfvAclLZ3jX0037PVVff0ANUSGSr+88jZdas4HZTw2slanXqiTveJmWVTLlj1JK2HQ+Fcp9DLWsUCoXSLPddmN1to2uXTv36mTSwbKUKywY5RXXCjwzDvNVrEmDSXhke2F14lCwDiFntwW1vEHkXAOuHvu1p6wwgMXFoVVUVAK1WV1tbKzxXKpX8+OPX7ePjmhuuhXLxxx8tJSImQrp06bR7977p0x8ZPryR64G9vcnJLrP6MimEOfoC6N8v4eiRpi1rzXy7mji09uIe3ixYo1Ob1j/0WwqauqBFUBniW+Hefm739t21NhwAPPPMzJiYaL7uSl1ZsIP3xty/d10+MSf+QZZhvGxdvG1dRadmVObvvmJK4klMbz9e+DOvtgTAQL/OXT0ipn6+JafkRm1qLIuXkrssOrNcbzRUAW8eKl/c4wncvPRbvGtIom8HYY2clcrlUt6s9kf+P0MCugEoVVfxm2EED6UTgO8u7PgqYxupMXDGp2JG79i+SyaTtm8fFxMTfaHqUm5NMfGPM3Lcyx0nAXCxMXuv38q3sfmpodmeJawEAMswMS5BwnqFQt7G/0FaekcUMfRxtQCyp00fnQXUskahUCiUVoFs6h4uPkcsQbPjxpIYEx6NrlEoqIudgmzpW3b1T0nGV+e2TgxL7OUZI/Lq4sxze1VVVUWF9dTvCoWCmNUu15UJ8681j1wuB/D6P1/xrnOf9nsOQGRk+FNPPW71lK8z/lh1diMpT4scSlKaUigUCuU+ZOzYRi5pwQ7epJBZXfD0/o/RxDRhI5XzXthGzsgy7Kpzm7UGHYCCC3bPZ524kUvLpZItL43nd7TSanr8nnvwpgbfzyc+yN4TQLRLIAA7mQ2AE2WZy9PXkQaTwgYO9Ou0s+D4bzn7a7T1pepqYlkjZjWtUS83O5jvuHRskH9ny0vU19fn5eUPHpwEwMfObUfB8T7esbZSG5GD3tmzGTc+7KkRg3idtRDzA791Ht9jChqVMCx5E6BQKBQR1LJGoVAolFYhNjYKwOmKnNMVOe5KJ7JUGB3cy9XGAUBVNfNX4/YPdAolZrUSddVju99f1e953gp2rPTCyfKsk+VZ64a+ZZnP6wZR67Xb8v+ZHjV8UthAtV5DKieFDSSF3Nx8q2edKs/iLWtkK55lGdLb1F2LSH24o9/C7tOtnn4jyFjpDwNfJWWrhkUKhUKh3BuEOfmGOZpC+Enhm/PbPz+7CcC+MR+xDBNk7xVk7yU8JdzRT23Q5R0KSoP6Or0z3JTRXk/EJq65uHvO3g8AzO0wIczRVyYRr/iI8ikADhwDpr1bSHuz9xkpeNm6CGfbbh6RAM5V5p+rNM2VGZV5A/06dfGICHbwLmuoXnriZ1J/piJ3c96h/YXpC7tPJ9tpubVFVgerUCjee+9aMOOs2AeER/ftO5Cdnctx3D//HE1KSgSQk5ObnZ3T1K2XlVWEh1+LPOW5erXGwcEBQLxrSFePCOE9XheNRgvAyBlPV5iuS+Jb75KsQSqZMtDek5TtZbZtOxgKhUItaxQKhUJpFZycrsWD/K/P7AB7TwAJ3vEJ3vEAnvx6B9AoD1dQiKFaW+cot1NK5eUNV8sbrvKWta7uEecq89CsDNmNUNZQDUAplT8dN1ZY/9lnX544cfKmuiqoKy2oLSVlpcRKrOuNoNPpduzYNWjQANHW+saNTSa4nNiuf62u3lxObNl1KRQKhdLaSKWN1lkkm2dvr9jeXrGN6/UGzghzhOYnZzYYzPr9ZKqS5MbnXRanrRRjW6MPPAXAxXYCgMt1ZafKswCcKs8Kc/R1Uqj8VO4A/O3cSXOzWQ0MGACRTgFWXbEqNTUsw6pkShYMYy2A1FFu5yi3C3HwHt/OlKcyv7ZkXc4By5ZTwgcZjCZH9akRgyDI4fPDhZ1uSkcAUc4BASqTtFxCQp+EhD4Apk2bwncyePDI8+czQ0KCp0yZJOxcKpWGhARZXnT//oOFhUXu7qZ3iY/7zBYebWhosDxFiMGgt1pvNLaxZc1ofpJrBr0mrDcYjNaaUyiUOwG1rFEoFEpz3BX7kv9+yDv9+apLZL8XQFZJtbCBVMK+cnh1J/ewFX3/n737jo+iWvsA/pvZlk3vhfQKgZBQBQEpIQiCdAQv96oookHlWkBs+IpeiqIgoiKCChdFhYuoKIr0JtIhGGogCZCQkN4322beP85mmN1sQkhBCc/3837u58zZs7Mz475M9plznudZodbT4G6+bbvVPGoGsGGIbemr3NzcisoqEYiL6xATbfUsurSs/MCBg6z9Y8Z+Ja8McPRU8orxkf2NRtPKVauzrmT/d/Wahv+Hrmdk7ckI9Y83C0Ly1H/Lfw+EhYX5+fqs+Xpt7XdlZVmqHNiUXLiSlUXfUkoX1jh03ZqidV+31n12LY1dPd46z73dyBRqpTxbc36buaZq9lNxIwe8/b/64zjJAxJynVLXX6wv5f/kdvdNbneftGkUzCpeAUD+wYIoGgSjklOwqqMAzIL5aH4aa/s4uCV425nn9culgwCGhvYYVpMa1SgYbcbkVlmqFdmURp006V/sczde2n+5/Jpaodo98v3aHyFC3J97ioUj27ePPXsu7Ztv/uvv72f3TKUSSb5aj2i3wOjoKBFIOZn6nzlvJw7oJx+pNxhmzXqz/u+5g1Zbxyt/8aS18oqK12bNfuyxRwBoHRzEmijh/Pnv0v/n3hS6XI1DiW3tosgaIYSQFjQ5duigoG6snNbkne9KPxhUxj7yYQFu2syaP/Ivl+fJXzpWkCYIgq+jh/Qo28bBg4efmfaCXq+Pi+vwyybbqqAA5r/9HgCtUt3DLzarIj+rIt9RqRkf2d9oNM6Z8079x/9pvxdqlyiti53JCHXUPpMYjcZz59JkHZzRaDTbe9fm37Y+M+2FyEirXHX5+QVr1nxb/0cQQgj5q5wtuXyqKHNsRF8pjKUzGVhDq1QD6N+m0/LTm+y8U+fab966evb87OAu47rFAKgwhnlpXFnnuIi+tUeWGSorTdXOKq2LytFgNl4ovcqyp7Ej4TlOo1DxHOegUMvfpeAVSUFd5D0Towd28Ylm7XbuIQBKDBVF1WUAHJUOrD+3qviNbg8HO/vGeoSwnvtDe54vueKgVLuoHD00LtLeWKiR57gFPZ84W3J57YVdAIyCadimV5+LH6tVaniO69cmgQNnMJvOllxmnwiAzUH76M/vTTV/UbBiPvm6khn7l7EeX637j/fNkT5rxYqVK1asrOdi1ta1a+f1/1sDgOd4qTaogucB8Dz/4oznFr3/od2b9a3x5ZfffPnlNwC6d+sqcjhy+OhfdSSEEIYia4QQQlpWiIttRIzXO9s87PpX77jjprKrlQUAYj1CNg2b71nz9/d3F/fsyD4+LrLf9IQHzpdkxbgH/bZl25QpT9f+IGm22m9XDrMGS7nSoUMs23y/91Py8TpdfTlrduzYNXHiBJtcM2fOnC0rKwcQ7Ra4fvBs1slWrZaXl1/Jypbv4Wr21Zv9U75+Gzfa+/VFCCHk70ejtqQvSC3KHBvRlz1hOlmY/uTuRaw/wStyWb/nw10Dfh+9xOa9ipworsQfdegZFfDuhH5fntsCxABwVmltpoONjbhnUFBXACzT2Yozv6y/uHtC1IDn4seqFSoWVnvvxLrjBRcAhLv4z+nxGIDk3ZYpYwnekawsaW1SeIv549rptjUTtJnaNRk6e0fLN9en71mcsp61H4wa8EzH0aEufqEufl1rhr2Q8MCQEKt0aTZlSZlvL+w0i4KDQs1x3L87juY5ngOnVWr0ZqNQE3FTKpXyx1FXrmQZDAa751XbhAnjFDWzDm1qg3IcN23a1KLi4s8//28D90YIafUoskYIIeSWyw+16RgaH668UljmHgxAyStYWE2EaDSbhoX2TArqyv6wjnEPAlBVVV9E7Lcrh2cftvyxe+Da6Te6PWI2C5MeffLRSQ/ZjFz8wUf17OfV12av/+4Hm/U7Z86cE0UhNfV0XFx7mzKjiz/4uHnjaIQQQm5fv/9+cNSo+xUc/0a3h+sfydfkSQAwreOY/20vulZiPwCkUPA7Xx7PbksTohOlfpaK1FmlDXb2BWBTA+Fk4UWpLYoiu6/N6DTeekx6imzY9fEQOdmy0cLqMi8H13xdydoLu3ZdPZFdWWATWatHga7UW+tmFgRp9jqbdHY0/3xXnxhPBzfW6ajSAPjtyuE9V0+ynrpqBA0K6vrWXY9Km95atx0jFh7NPz99/yeWHm+vnTt+lQbs2fv7pElTTKabmGi24Pi3aaWWZ2aPtB3cJyBuX86fEa4BbZy8WWEEQghhKLJGCCGkZX2dtv3BqESe4x5uey/7e/q7dJ1elqKB/aS4N7ibzRs5cGqFqpd/B6nHaDTm5eV//PGnN3sMO3bs2rFj1029RRCEI0eO2X1p7LiJfn5WE/FMJlOW9YQ1Qgghd7Kc3BzIcm4ywc4+r3d9yCAYPzm1Ud5/PD/Nw8E1zMVv8079tQL7YbUp/eMe7n094YCat/yOK9KXP7bzXdbu7B21tO9zlcbqPF1JuKv/qaJL/3f4i6uV1wsgsLBaelkO25Tq58S4Ba0e+ApraxVqAPm6Uh+tG2eVjQ2sureP1v2ZjqPuD7tbEAVpD1uvHC3Wl0e7B3X2jrJ7/O4aZ7v9meXXuvrE2OSb25F9XIqs7ck5yWofOTk5eXp6SGOkMj7yBbZdfWLGRvRlFcAFUcyqsOSXCHHx63tPb1dX1/LyCnl605Ej7o9t3668vEKq+FlZUTFvnuV6mmWFQYv15QD25vx5ruSKTcJTQgihyBohhJAWodPptFotgJ3ZJxIDO/s7ekqLRL790So1mLOz5XF9lanaJAiu6jqLx6dduDhkyMgWO+SG0ul0mZmX/uqjIIQQ8vdVWVlZu9ND4zI0tAcAbwe379L3Sv08z03bu0SZ2amg2O6MKm7HK+M+P/PLslMZACbGDHRVOe6+eqJfG9tlkpcr8gA4qRzCVf4AOniGfjFgJnvJTe3EGjuzT7x68DPWTgzszGaEOSjV0W6B8l05qRwqjDpnlSWL//xjXxdWl7H2e72SAYS5WJUR+ObC9t7+cfKw2oLjlnu9i9pxaocRLElZXUwmk1KpVPFKFkSza+7c2XPnzmbtZf2eZzXHl5366UpFHoAqk/7x2KEdPMOm1ZT/zqkqnLD1P6y9+f533NROPK9YsfyjxMT+9RwJAKWqSYXICSF3IIqsEUIIaREVFRXamrpaz+xdMjK8N4D7Qu5yVbvYFDoLD7RkPpZSIDNppdkPb5/P2tFuQasHvtyQzx0c3P3AtdOsPST4LgCxsW05jhP/4lpehBBC7iAlJaUABFFks7HmHP2K9Xfxjh4a2qNPQMc+AR1Rs9zSWenIZ0fbDauplNjx0gQAyR2Gy/t7+LWv59OrzQYFx6t4pRRQq58gCpN2LGDtWI+QV7pM5AAFd7286aG8s0lBXViVA53ZoFWo/yzKyKrIz64seLxmAleAoxeAPF2xr9ajwqj7PmMf63dWaad2GMGmv02I6v9ApKXMgnwZ7A3v0VWmaqNgRk2IMM4znPXLL8u1qmIAR44cS0joqFKp5h5dY7MTBwd1YmJ/yGbtOSo1/o6eRsE079gaAAMCO/cNiHd1dWE5VV1UWim2KDUIIaQ2iqwRQkj9KBzTSFLqXwDZlQVLU38E0MU7etORqzYjF44eBkBn0lebDVUmfWZ5rk2FTWt1/hcpLbM8Tn+j2yPy/nZtY4YOHbxp06/23vR3I8r+lzQcXbdGE+m6NVbrvm6t++xamizdAccBOF6QtunSAa1S82KnCTZTvUSAA7JyzUV5Dra7AURN9YNDr+f0LNKXs326q52lUp6eGpetw98t1pd/n77PSWXZyf7cU/858qWDQr1p2Dx5AKsu50uz0kqzWFvJ8wAqjDp5Kc8n2t9/X8hd8rd09AzvWBPeYuNZY/W5rTZJ3BhBEI0mo0atlh+PUTCF1lyQDRt+GDNmFGvP7/H47prVoGwW25tHVrP1oXGe4Sv6T2cv7cw+wRr92sTzHO+o1ACYM+ftlSuXe3i4Z9SEz2READqT4Z/b5rJtrVKzY8RCkyBsvnwYgMFsqpk0JwJ4puPoZ2pmwDEjwnrVFDT4+/zj+fc5ktsOXbfGoa+cHRRZI4QQ0iKUSsstZl6PyalFmazdwTNsyYVt8mEcB41CAUCr1GiVGg+NS0F1aeM+cfv2nSkpfyYkdLxWVZxdWcA64zzD1AqVoyM9aiaEEHLrZGRcTxqg4hVeDq6T2g2xCU4B4MEZBGHW+t9r70HUlpvDUoAhbHPl2c3s1tbOPXhcZD/5SGeV1lml/Xf8GKknzjO82myoNttJ2RbpGhDh2oa1pSxptSl5hZJXAKg06pxUWj+tB4BTRZnSrHB5rrEtV4708o8Lc62znikAk8m4evWaKY8/Wqwvl2J2Kl7ZzScGQE7OtekzXln8wcf/nDjhyScf5znepiRoZvk1mx3uyTkpLWvt2yb+nZ5P8NYLTkNd/NwMlil7DZy7J/l02We97u7p4eGuVCqlCfiQ1QlNTT19UzskhLRuFFkjhBDSIpRKS5oSH627/O/jzPwS+TBHtXLM5jdYe1hoj8mxQ23yJd+UtLQLCQkdV5zZtOnSAdbzeteHWFIbQggh5NZwdXV977150macZ8TPQy2bv+emrr+4h7VndBof6OQ96O11tffg56V6ICkaiJ4Q1Z/1PNrOEmKrNFUDWJ++58tzW1jPU3EjBwd3P12ceb4kK8jZp5tPW1+t+55Ri2G94nJhyv+mJzwQ4uK3JunVG56CfMIagLYewQA+O/OLFFmL8wzv4RdrEExqXnlvcDebMkTOKu1LnR+saTsCUCgULNXaiYILhXrLHPOOnhFt3YN//PHnCxczzGZzZualefPf/X3/AUdHS8bViPCwmTNfuFCafblWZK02p5qcEoJgBrCs3/M2AwShoRNtLqZn9LlnIGv37HlXmwCrEOTVnJwDBw41cFeEkDsBRdYIIYS0CJPJJLVPF19ac94yVa3KaPXc2MNVmVllKVuWU1UE2V/G0W6Bf4z56FYcKyGEENJ8fvj+2wB/f9Ss3wTgWROoOnDtjBSc+uPa6R+3VdWO9ni7atcnW5XrSSm4yCasDQ3twe6S+bqSPJ3lSRVrnC/J2nz58JCQ7t182gJQ1RQPNQomFa8s0pf/mPF7tFtgnGe4kudDnK0WpbZzD5Fqg0qlDDLLcsNc/TPLr3XwDHNS2lmsCiC7oiCl8GIHz7Bot0CWM+6hmKRKY7WTymFUeB/5SIVCMWjQQBHigMDONjvhed5gsEyvE0Vx16490ktdOncCoFVq3NWW0qL1zD4zm80///zryT//nPHiq7Nm2eZm/e+qL0tLSwFolWpp1h5bQKpWKGd3fwRAYq1jA0BBNELIDVFkjRBCSIuQZyMu5TYLMQAAIABJREFUqC7dkX0cAMApxd7yYZ2inTOLrd4Y6dbG7g4FQfjww09sOpVKhXyT4xs/340QQghpFsHBwQDSy3KkfF4Rrm1qzxQrKDfZzOMGoFDwa6YOWXzyOwDJHYY7KNRzj371c81E7N4BcXWFlkaF95GCWWX6SleNZRgLsXlqXLaPWPjC/qXzj33t5eDK5tDtyD7er00Cz3EcOJvaoADY6s59uakb0vdOjBkY6Wrn7hzu6h9eswiUTTn3c/S0GXO66JK/o4eng6ufny8bU2qwFE5l59K1a+fUU2fsnhQT6OT96/1v23T2DYiXAmF928QDKC+v8PXzCQsL27595/btO2vvR0oNYfPfQsHxg4O7S5snT6bWczCEEFIbRdYIIYS0CJ1O5+bmytp9A+KndRwN4GRa9e8olw+Li3D54ajVG4v15Vcq8tUKZTv3EKNgGrrpla3D3wXw8iuzbKoQjBk9cvHid2t/9Kyu/5LWn9ZbDIEQQghpfvIaPvVY83Ne7c5dL48v0pevvbATwKPthjgo1PtyGhToEUXxalWhKIpBzj7qmoQMgiiwBs/xKl7xYNSAI3nnWE+5sWrWwS/2jv6AA/feiXUnC9NZ/8xOD8Z5hUm7fbL9/VL78dihcTWJxnr4xQIwiWYld4OT/frC9idih3k6uBoMRrVafbIw/cndi9hLCV6Ry/o9X1hYWNd7MzIzN27c1K/fPfLTBODu7gZgbo/J8sHu7m539+zx7oK5o8c8aHdvVVW6F198dcqUR6UejUaj0Wg2bfr1zz9PsZ6KysqtW7fXf0aEEGKDImuEEEJahFkQ5JsTowcC+OPgTsgiaxzHDQvt0dUnmm36O3oC+CP39H+OfqlWqHaPfF++B3d3D5uPeOqpJ1hD/suBNWwCaqco0zAhhJBbxSaVvtz0hAf6+McBWPVbRirKbF4dk+QKwFPjkuAVCaCeoNXUDiPGRfRlbR+tOwCO4wKdLIVEWeXQ33NTZ+xfxnp6+8e91yu5i3f02kGvezq4AlDxyqlxIxQcDyC7soDVBk0M7CwPqzGCKAqioOQVHTzDpBT+zOqzW7RKzT+iEwEs/WTFwYOHEhP7P/LwP+Vj5tz1mN5sACCKVn8YqHglm08niqJSqdRoNEajUZD98dC9e9fv1n9jczCFRUX33z92yJBBSUkDeve6G8Dx/DQA1YLxRMHFqR2Gq9Xqui4agLXr1q9dt76eAYQQ0ggUWSOEENIi5HnWAHx25pdqk/7sNb2809lBjZqAmmRL1hGpreD4GZ3Gs/agpMRly1bU/qB/bpuXXnaVtdckvRbhGvD6629lZWdLAzIzL128mN6kkyGEEEJukpeDq5eDa037ekEANttrxpUUm/Ft/Tzc3SyJFOTZ94eF9iixXj7JsIAaI4giz1nyIVypzOeAICef2oekVWpCXCwZ1hwU6odiBrH2+72fYinhXNWONTu8/siK5zieU+zPTT1TfHlAYOcI1wCWuw3AY7H3XT/OYYMXLfpgavIUtqkzGWo+VK1R2Ea7RoX3fqnzP1g7Pr5jfHzHF2c8u2nTr9P+/YLJZAYQGBg4d86bbIBU5NRBofby9BwwoO/nn686fPjIzz9tOFty+am9H7BXYz1CpnYYXvusCSGkpVFkjRBC6tXQKlLElpOTo3zzu4t7SgwVSn1vyEp/Bns627xLEIVFvabqzabXD38BgJelPjEY9E6OjjpdtWA9G662AwcOnTt3nrXd3NzeeONVqcoYc/jw0c8/X9WYs2ppoux/ScPRdWscum5N0bqvW+s+u5ZWc/Xc1E5SSVBGEAWe479L37t0wxXAal4bB3z2+GDrwZZg2TMdR9/wM6WwGoAPUr4D8F6v5NrD2AEUVpell13N05Vcrsi7J6BjnGc4ZDUWADy2c8GZ4susvTJxZjv3EAAhzn56synCNQAAm+n2e25qhVHHhg0O7h4aEuKgsRQ6eHrvB8fy01h7ad9nO3tHSzt3Vzu5q50fbnsv2zQKludwKl45bNh977yzKDPzEoD/rloeE2N5l0NNYE4URY7jIMLyf3W5o77A9V8KUg+6bo1DXzl7KLJGCCGkRXh7eck3Nw2bV2KoHHlmk7yzW5if9Zssyzm1SnVye9vHzr179zpz5sTBQ4cfnPCw2Wxu4GG8+easMWNG2nQOHTp4xIhhxcXFeXn5b7wxR6fTNXBvhBBCyA1xnP1yOuwed7E816C3XS66dFKSfHPKroWpRRkhLn6PxNzby7+Du8b2QRSTXpbDMrIBmNFpvFQPlFFyCkVNkgSFZYEqB8DLwTWtNNvLwc1BqWFhtRMFFzdk7I33Ch8X0a+ukwpy9glytpoHN/vwf6XIWm//OGeV9uDB3Q4O9quI7ty5u0OH9i4uLiEuflI5gge2vJlVkc/a6wfPllazAvDx8QGw6uxvJYYK1vNc/Ni6LiwhhPy1KLJGCCGkBc0/9nXfNvG9/eN4ji8ts33CNbpbNIAqk56Vvf/i7K9fnPm1i0/0kj7TomoVKWN63NV9zJiR//vfBqlHwfHSLwclZ/tbxdnZCcBvVw7vuXqS9bCEx507J7DNgoLCBQsWNe0sCSGEkOtYAMggmNS8nV9bf+xSAVbPh1RKPi7QElTSmfRapYa1XVWOMe5B0ub69D1SHOq5+LEAdl49sTFzP+uJdg+SMq8xPfxi941eIu+Rprb19IuV93fyjuzkHdnwE+Rr3W0ZJyfLYlV3tW0ocNmyz6qqdCtWfOzl5QlAqVTWFSbjOO6JJx5jk83XXtgpRdYebTeELYaNi2s/eHDStWt5ANq5h3za7wU2INYjpOGnQAghzYgia4QQQlpKvq5kY+b+nzL/SAzqNOeuyV8dOS5/lePg7awFcCTvbFpp9uTYoaIomkXBLAoARIgcOAA6k0F6ID+p3WAAbdq0ke9n9cCXb3gkO7KPS5G1PTkn+wbErzr7W5xnWDffto6O2mY4VUIIIQQA4OtrmdjFqlgCMAlmJX+9FkFBRbXNWza/OE5qS3E0AC91flD+nGnthZ1SZO2ByH7yGV5ywc4+Z0su23woc62qqNJkSXjK1nXapZBPdpNVUZBuzXV5aPv8Lwe+AsBBoZZORGqkpJy86y5Llc+9e7eFhtoPhI0ePfK1116q51MmTpwwceKEdeu+y712zd/PL94rQv6q0WiaNetlQRCWL/+ioKCgnv0QQkhzocgaIYSQliVCLDNUAUjLLpf3qxSWP9bjPMPTSrNt3lVUXc4SP396+icpsqZVaiZE9ZfGvP/+R0uWvGdTgu2nn365ePHiDY/qTMmlEkNFN9+2N3s6hBBCSD3uuacPa2gUKtZgES6dSa/kFU9+sc1mvJezVs3zAE4VZ3bwCKs0VjupHJ6LH1tu1LHY2f8dWvl0x1F+WtsC2XV5Nn6s1DYKJkEUpSMZ+9tsc01pgt9HL6lr6tmK/tPt9tuE1YaE3FVhrGJtZ5UWQG5VUb6uxEfr/nq3h17HQzc8VDWvUtccmzS/z8PDHYAI+zG8fTmp4a7+gU7ecXEdhgweERkZ4erqsnLlcmlAly6dunTpBKB7966jR0+44TEQQkjTUWSNEELqQwk6m1FhuVVhUD10/9w2b03Sq+4aZ5tlKag7SQ1kiVN/3vTrz5t+beJR/d3SsP7djue2QIn4G42+b43Wuq9b6z67lnbvvYmsoTcbpZDW6eJL7T1CAaRdK7UZ//2zlmSgWRX5HTzCWKSpg2eYNOBiWY5JsJ9ddHK7+zp4hBbrK0yCeXjY3ag1rUxlbzmqjd+uHF59biuAGZ3Gd/aOMglmadEox3HyvX1yamNqUQaA/9z1mKfGZXrCAza7MovXj9NsNuv1lpqeu3btOXzkWO3v1ZqkV216pDFGs1GtUD2XMLZEb1UXde7Rr3y07my6emFRcWHR0aAgy7S+j/78njX8nbzGRfT18/dt9d9kuv01BV23RqCvXF0oskYIIaSl+GjdX+3yTwA+WjcAOr31DwMHy4NunuM7eIYDeCz2vkfbDWGP0OVFyppufo/Hd9esBu0bEN+MeyaEEELsksJqANzUjgA+3HHY5jepi0Zt8xxJVWsJp+S5+LFZFZbljdJS0J5+7eVjpEDYJ6c2AvBycO3l18Gm8oCN9LKc9LKrHhqXICdvACcL0/OrS9hL4a4BMW5Bh/LOBDr5BDp5H8tPY5G1aXuXLO37HAt1ARBF8WjB+S/ObNaZDNJuf/tt25PJ0+r60AXvvr/wvfnSrHOFQmE2mzds2FhYWKhWqwGUG3VeCpVUH5wpMVRUm69/hFKpcHV1dXd3A5CnK9506aAAocxQFeDoZZNyjhBCWhRF1gghhLQI9ticPUJnmyazYDVAa3lubxYFls+FY0/HAQAm0azkFAAebTfEsSZFi3wpaAMdPXri3nuTeI4fENhJ3j8hakAX7+ib3RshhBBSP5VaJd/cnnVsYFCXQCcfABsOZtgM/sdwr/nHvn6ly8R6dniXb7vM8txAJ+/e/nHyflEUUwovdvKOApBTVfTb5cNGwTSl/TAAVSb96nNbUKvgZoRrG2k1qM1S0Ne6/tNH6w6gi4/tzTGz/JqTUivfT3pZTlZFvpunkyAKPMdzHNfRM+L/uj2kVWqkcFt4eOjjkyelnjp94MCh2ie1ceOmjRuvlwt/6qkn1637bsN335w+dYz1sIwQgihsyzp2b3C3/OrSNee37cv5U4qscRz3+efLEgdYipn6aj1YydHFJ7+TMqsSQsitQZE1QgghLcImG0uZzmgzddzdV+fl4AXAJJgVCr7KZDiRn9YroAN7VVmTMtlN7fRE+/vlb7yQdqHhh/HJshWnz5x1cnSMjAx/8cXnpX4prHb40NGG740QQgipn1p9vQTBjxm/x9Ws69x65ZhJsHrCpOS5KHfvrEpLplFpftbZksus0c49BMCz8WMyy3MLq8tQE2/6KPUHk2A+eO1MZnnunlGLVbzylQOfnSu5nBjY2eZgWPWABce/nd5pvILj66n546JyBPBDxr6UQkuu0je6PcIaGoW6rnc9uft9N7XTe72SNQqVv6On/KXY2HZvvPEqgOEjxp04ceNQ14ABfcPDQwFIE9+0SjXP8QlekQB8HNzydSVt3YPbugdHuwUBUKlULKxWarBaLvpAZD+KrBFCbjGKrBFCSP0ok0Dz2Hsuy6Zn06jZ8k1HpVoKq62/uDu3quiZjqMB5FYV+zt67N37+4kTKQAuXEzf9MtN5FYTRXHXrt2svWXr9qBAq7qihUVFx4+n3NyZtDjKfNUIlPejcei6NUXrvm6t++xalsFwfbmio0oT6RYI4GRh+lvrjwJWiQ4m9etY+1Lvzz01ff8nrD0stOesrv8CEObiLx/zv4u7DWajvGdK7H2lhqoBNZE1B4V6TdJrqAk27ck5WWqonBw7FECoi59U9/NM8eVYj5CpHUYMDu7exskLwObLh6XI2ujwe1jZzcTAToIoAlja91m2GhTWmeAAZGZeMhpN0dGRRfryrVcsj6zYTPOQkGB2B78REcAvlw7+5+iX8tP3c7SUbpjbY7J8dFVVFYDsyoJxv81mPUHOPv+79w03tdO0jqPl+2zV6J/xpqDr1gj0lbOPImuEEEJuhQMXc+SbSp4r0pcDEERBZ9IHO/tKL03e9d7pokwAoS7+w8Puzqkq9Hf02Ltv/yefLEfTnD177uzZc03cCSGEEFIPm0c411XZ5g99pFf7w3nn3DXObDOrsiDIybtEX2EzLLeqaPr+ZY+0HXxvcNe6PrR3QEf5Js9xEa4B8p4d2cd3ZB8HsGnYfCmT6cbM32M9QgDYDLbBprMBUPHKzrJECiX6iqzKfBa8u5ieUVVZGR0duThl/dYsS2TNy8E1KahLPXtuiJyqwgBHr7y8vCNHjkudZrNp9Zdf/2/dmtrjnVValv8hIz2ziR9NCCENRJE1Qgght8KpHKvImqNaJT1vl4fVDGbj/3V96I3Dq86XWOa4OdS9CIUQQgj5W/H19WnXrq20OSioG2vo9CabkZ7ODgC6+7bt7msZHyRLZCZnFMzpZVfLatY8Auju09YgWO6hdVX//Oe2eQCW9n1WSnxm43DeOT+t5/8u7FYrlCPDe9/ozKxcLs9798TazPLcckOVgudv/IYmKNZXBDh6/fTzr7Nnz5H3h4WF2h9fXPLx0k8FQfjmm3UtemCEECKhyBohhJCWVW02OCjUhVU64HpS5zaeLjYJWRi1QhXq4rcq8aW1F3axHvY4nRBCCPn78/fztdv/362XbHreGHO9wo88M2nvgLi37nqUtY2CGYCC50Nd/FzUjtKY93ol2+ytyqSXqv0AMAqm9LKrAFi9gnd6PlGoL2MvSRPW5EE9ACLAAbO7PyKtBmVLQQGklWZ9n76PtWd2fhBAiIvvh/fUWfezKbRKjbbmRLSyM6qLm9rJXW2Z9McaZWVln376WUscGyGE1IUia4QQQlqWwWx0UKhhtLrjBLg56k3Gf2ybA+DrQa+xiWmCrGCZTRnQ337beosOlxBCCGmsNm3sLwU9fbXIaptDl2C/mqZVwR83tdOgIKtVn20cvb4d9DprmwTziQJLGR+O47r6xLD21cqCKLdAAMX6cg/N9WWnfxam92uTYJMTTa66ulqhUKpUSnYQ/o6etZ97/Zx54PsMS2Sti09MUlAXURRZLW+z2QxAp9MtXfrppEf+BWBC1ABPB1c2mC0FfXv+W2/Ofu3btesXLFgkijdIzzQgsJNNLe/2HvbnpjHOKi0rCUoIIX8hiqwRQgi5FUTrXw7xwb4apUqtUKLmR0Xixuk6k569umPEIq3SahFoeblt3pnmEhkZHhUVJe+prKjc9/v+Fvo4QgghrVhQkJ3ImgiYBauIkp+bE2qmicktPvkda7irnSe1Gyz151YViaIY4OQlQpy270PWqVaodo98H4BJMCt5BYApuxZWmw1fDnxFySs+6z8DgJvG/lJQvdnAKn46ODjYvFRYXeZVExpjivXlNmPmHlszq+u/qqp0bdvFS51Dhw4B0MEzzCaQ5+Li4uLi8szTyWu++jYrO9vu8QD49dctD054ID4+rvYhAdixY5dNz6VLl1d8tnLc2NHyTkEQ3vrP/Lo+ghBCWghF1gghhLS4cr3BpmdAbBAA6SF8/QRBqKqqvPG4mxcVFblzx+ba/W++Ofezz1e1xCcSQghpxRwdtbU7P9+TatPz2rCebNpXhVHnrNKeL82KcQsqNVSuvbCTDWCRNWmh6D+3z+vXJuH/uj6k4pW/j17CxvA1JT6VvMJPaymg+ULCAwA4cPLw1tmSy68fWsnag4K6PtH+/qP5ab38OwA4VZR5rCCNvfRQzCAAbxxetbjP00pO8daR1WMi7onzDK99RgMD7dQlmDdvQXlZuYury4TxY52dnbdnHas0VZ8vubLrasr3Q95S8UrbOKK1ioqKseP+AaBNmwBvb6uUc6WlpZcuXbYZL4riW2/Ne+utefXtlBBCbgmKrBFCCGlZHMfvO59j08kyNzeQwWCorKxq1oOyaBtjqXG2J+cka/QNiAfQvXs3iqwRQgi5WUrV9YyixfoKD40zgO+PnLcaxKFzmI/OpJfyiF2pyItxC6q9N2mh6IudJgwJ7s7aUkCN2Xz58JCQ7mzOGgAFxwP46M/vUwrTAXT3bfdE+2FZFQVZFflsgNRglp768Vi+JbIW5xnW2TtahCiKIjhszz7eyz8uzjP85S4T+wcmsDGJgV0A3O3fHsDly1bRLoPBsHDRBwAGD05ydnb+OPXHnKpC9lJhdZnd5Kp2Xb2ac/Wq7Z8NhBDyd0aRNUIIIS3LRaXNKbJaSKLgefZr4UJpNgcu3DWA5zgFxyuuP363+tlQXFzSoke4M/vEqwct2Y4TAzvP7TG5RT+OEEJIa6VSXv95JUW7yqutJm5rVSrUpOfPrixo6x58w92yMWml2RlllpDTvcHdADy8/W0lzw8J6c4qhHo6uLAPTS3KTC3KABDQ4HiWXRfLspPQxVGpSbSepHYlK2vt2vVUfJMQQhiKrBFCCGlxKZfz5Jtezg4ACqvLWLplZuvwd2u/URAFnuNbOrJGCCGENAt5hn5HpRpAqc5gk7V/cFyoWRTmHVsjiOLdfu2lyJqb2um5+HGs7a5hidgsq0HVvBLA7MP/ZRU/AUS5BUa4BphFQQkegCCKPMe90/OJBh4nm0xn1z+iElmc7q3uj0qVhbIrC/RmI2tHuAYEBwUtW/aZXq9v4McRQkjrRpE1Qgip1w1qWJEbSCvN9tS4XCmyqj/AFrc4KR0AZFcW6Ez6SLc2qFUfDfI1L7f+P8Rf9Z9epG/dzRNl/0tuCn3fGq11X7fWfXYtiVXMZBScAsDC3w7bjPn34C4Kjn+960NST5Sr5TmTTV1so9nMSv0EOlnlHavNKJiqTHo3tRPP2UlmlhTUJdYjhLXZrmJrCm4+HHOvlEmts3c0gD4BHdlmvzbXqxNM3DbXUBNZ2zNqsYpX1vevhwgAG4a8WVRT+sCTlSut/x8c+tY1AquCQZeucei6NQJ95epAkTVCCCEtqMJYVW6o5DirO3Cgx/VH5a8c+CytNIu1Vw98JdotEMDFsuzImp8ZovUPlZbQr01835rfD31lPyQIIYSQmyIIAl+T0GD24f/O7v7I8cxc+QCe41TWGQ8AhLr42d1bZnlujHtQhVGnUahVNWtL5Zb2fdZN7QRAo1BpFNdTvC3r9/ypokwAKl7JJr7VFZvr4Rfbwy+2gWfXQF9++fUrr7wIKaAGANixY3du7rXm/SBCCPmboMgaIYSQlrUl62hpldXt5q7IAAAOSnVdb/HUuAIorC7zcnDlgMjI8JdfnvHOOwtFsZmfkbHCCDzH26ygqaxskVKkhBBCWjeFwhL/MgqmaR3HACirMsoHeDjVV8BHFEWDYGIxsqP559nkbmeVpd7okJDu0mrQCNcAACysZpe8Nqi0qvT33NRvL+x8qsOIWI/Q79L3cgBb+Hm3f3tvBzcAVyryivUVAGI9QlS8ct68BTNnvqBU3txvxqVLl69bt8HmqVhxcbHJZLqp/RBCyO2CImuEEEJaUBsnr35tEn4xnZR3ejlp63+Xh8YFwJH8cz392rupndRq9dNPP/nzz7+kpp5u3sPbvXvv/Pnvdu3aWd5ZUVH55pvzmveDCCGE3AmkcJKKV3o5uAiAzSOhe9peTzCaVpq96dIB1n4ufix7uzT1rKtPjM3OH4oZZNNzJP98t1rDZv7xKYuOAZjXY7KP1l1KttDbP+6lP5ZXGHUAzpdc2Zi5P8ErsndAXIm+gkXWjuSdLzNWrjm/ffXAl/0dPX/66ZcZM54DEOkaoDebpFO74XUoKCi44RhCCGk1KLJGCCGkBflpPT3V7iKsImt3Rfrn6Uq8Hdx4jksM7Bzs7MP6o2UFDQAMDu5ebTYAqDYZHJRq3t5CmCYSRXHp0uXNvltCCCFk9bktfFGwzVzr5MQEqb32wk4pshbjFjQ0tMfR/LRwV39PjUu+ruTrtB2xHiGsBmht+3NPbczc76Z26uYTU2WqZqE0tuRzYGDXTj6RSk4BwMvBlY1fd2HX+Kj+AObcNbmbb1vW6at1X9bvefluR0f0ATAmoq9LzUQ5s9kM4IsBM20OoNlnkRNCyO2LImuEEEJa1ufH9so3OQ5mvnrkr7OW9Xs+wStyUrvBNuNXnN5UrC9/tN0Q6TH7lcq8aLegW3fEhBBCSJOdLr509bRB3sMBTurr2dCkB0uSrj7RrOGjdW/rHnSm+BKLrD28/W2bnKQOSvXQ0B6uKkcA27OOzzu2BsCapNciXAMGh9gJxo2P6s/KbfcPvB7ac1Y5ssYnpzayRoRrwODg7iyslpZ2obCw6NlnZ7Bpa3LLln1mMBhACCEEAEXWCCGkfvRAtul+OHka8JA2FbLUzk/HjXJUanr5d2A9IsR3T6z7Pn0vAHeN8xPt75fnY74TahhSicvGoevWOHTdmqJ1X7fWfXa3jEkwZ+SVAtcnXLtoNfIBj7QdXGms/vL8VnmnWTSnFmUkeEUNCblrSMhdde28i3d07c5lp35acLclbeiC49+mFKaz9qf9npeStU196tmXZr4QFhb6SpeJWRX5ANLLclaf28JejXBtMzi4uyiKHMf9Y+IjVTrdL79u+eXXLTd77o1A37rGuRP+OmohdN0ah75ydlFkjRBC6kf3jqYym6yKoPG8JdtLblXR64e+8NW6/3jfnGqzwUGh5sClFFyse093wq2cYh2NQ9etcei6NUXrvm6t++xuIcEqj0GQp6U0doGu1FvrBmBsZF8vBzcAQ0N7sJcUnGLdhd0JXlH17/iDP7/r7RcnretkSg3Xy++kl+VI5Q7Sy3LivSJY+9dfN/fr2ycsLBRAUK1Jc4wIcEB5efmt/SbQt65x7oS/jloIXbfGoa+cHRRZI4QQ0rIUZqsaoMGeLj5a955+7dmmr9YdQLmh6qqxkFU6kxNEsdRQQUtBCSGE3Hbe6ZXcf+e38p5RXSzxsi1ZRw5cO72kzzQ/rceEqP7SAL3ZqFGoHJRWU9sALO37rFkUMspyX/xjGes5mpdmEgQWWcssz2UxskAnr3qOh+csD7ouXKjnIRYbydU/gBBCiBxF1gghhLQsd/hUokLa9HF2APB+76fkY6rNRtaYHDukzFAFYFR4HwA8x7E6oefPp2WkZ9yyYyaEEEKa6LeT6TY9g+PDWUOe/v9aVbEIEUC12RDi7Afg9a7/snkjW8vZyTty6/B3WY9Kcf133LSOo6d1HN2QQ/ryq28cHBw43moueYRrwFNxI6U2a+zdt7+6Wt+QfRJCCKHIGiGEkJZVXFkt3zTXqiZ2rarotYOfz+7+CIDEwC42r5rN5oFJQ3Nyciorq1r0OAkhhJBm9NvJS/JNnrPMGRMhrknbHuXWhvX7OXrYvFEQRbNoVvHKz8/8sv7iHtY5vdP4pKDrt8ip7UfszT0JQGcyFOnLWKev1l3FW37fLeuoH+NuAAAgAElEQVT3fG5VEWv7O3oC+OzzVf/654MP/esftQ/1oZhB8s3UU6e1Dg7r//e1vHPN19+uX/99A8+dEELuKBRZI4QQ0rLMoiDf7BDkK7VNgvlqZcEPmb/HeoTIl4Jeqri2Nm1nQXXpgrufRAPWrRBCCCF/N1dLy+WbjjVVQXUmQ5Rbm+6+7aSXpuxaCGBwcPduvjFhLv4m0VxqqPRxcBsY1PXXy4eyKwsAlBgqAJQbdVWmaj+tRzffmG6+MQAulGV9/OePbD/L+j0PgNUfQE1ATfL45EmsYRYEg2ACoFWqAWzduv3I0ePSMMFsfvTRh9t0sM3P0L171x07dhUVFTfpohBCSGtEkTVCCCEtQhAFADzHG0xm4HrGFj8PxeXyayEufgCUvCLExe/fHcfYvNdkNg8L7amwXq5CCCGE3C72554qKNfJe0K8XVjDUalZ0mea1J9bVZRalBHrETousi/rUfNKHwc3AGEufi93/se0fR8CiHYLBOCi0rrUVPkEIELs6BnBAmoSTpYl7eC1M6zRwy8WAKsXpOD5IT+9ZDAbp3caPy6i7549+1au+lK+hyeenAzgtYOfF1ZbZsOxj1Ao6McjIYTYQf84EkLIHSJu/PgYADh7ft3J1Aa9Iz4u4WRqimwPCfF2x6WmnLTTuy839W6/9uB4UbRKhDzv9KfieePo8D4zOz/IekR54A0AEFmzRgbA1q3bG3S0hBBCiK2m3/usJMTHoe5XJYIo9PLvYDZbfWI7v+urPlOLMoyCqbN3tNSjrlnF+fTeDyyf5RX5RPv71QrLTLcgJ0sdz7TSbNaIdgvkZPfPzLLcarNh/7XTk9rey4oVLD/988qzm9mrT7YfPqnd4NXntjzaboi0YrR+KYUXpchakb7cU+PSkHcRQsgdiCJrhBDS+iW8tnVTcri0uSh9xwvTnlhnLxxmET9m1YcLkiKQvmxU37mpNTt5X76T69JXDOv3Th0/M7jswjKbLlFp7OITLYXVIAurCaLAc7wIkQOXmnr61df+D8Cff566wekRQgghtTTLva/WDrFs2CC7z5OsceV6A6tLIBnZ1RJHKzdWTdm10FmllcoRSE4Wph/LT2NtsyAA6OAZuvn+dwC4qZ0AJO9+P6XQkiHh034vxHtFvHdi3YxO4wHMPbYmtSgDwODgboFO3jc8REIIIc2FImuEENLajV++KTk8fdvMaY9uSAEQ/9KeTVMWbVqO4CfW2RkdN2vl+8lJ4UjPAKziaClznx/2k/XY4f/elJyYvmWT3bBajFuQildcKrTKMgNOhOzB+9oLu1hjRFgvrVLNnrFLT+CPHTtxc2dKCCGEMM1077su/qUPk8OxbeacG4fVAGDn6StW2xwifN1YM09X8l6v5L05f7JNf0fPz/rPcFQ62N2PglOwmFpdLpRmnyrK7OAZ1qDDqqFVqBUc76jQ3NS7CCGE2EWRNUIIad3GrFqYiPQVlp8WAE6+03d6ZNbCxGdei1tn55l8TFQStk0fNWldzKorCyKsXrJe9Tl++Z7kRGybaffBPmoSJ5/OvSbv5Hgh1MXPy8EVwE+Zfyw+uZ71p5ddfaXLRABmUVBwPIBDhw437oQJIYTc8Zrx3mcx/vkpEdjxwqMbGvLxPMcdTs+x6ZHaka5tIl3b9PaPA8CmadcfF/vj2um3Dq9e2Gtqe8/Qhny6pKdf+zPFly1t/1gADgo1WwrK5sHV79N+L0irQaWloAqFYvr0Z4ODAuUjr2RlL1z4gdlsvqnDI4SQVoMia4QQ0qqNH5IEbPvYerXmuiXLnk5MvndYwtzayWI2TApmPxti6ttt/Et7FiZGbJsZdKPfGN+cPAy4SZueWqdvB71ez/iLpVeP5p//R3RiYWFR/XsmhBBC7Gv2e9/45YuSkL5sib35bvbllFbKNx1Ulpo8ZYaqt46sfq9XMtvkrBONxntFLO37LGsneEWyRjefmHYeIayOZ7R7UJVJz/qj3YLk73275xSjYIKsJGi8V8T7vZ+Sj3m47b2sUVVlqa6Qlpb2/Q82M9KxffvOByc8EOjkLV9VevLP1NLS0kcfffjf055CLUVFxZ99ttLelSCEkNaPImuEENKaJUSHAxkXztp0p/60JSM5ObItcMM0zPaMWbVpSkT6imENeHQvClb1PXmerzJVV5sMng6udsfHuAeZBXroTQghpPGa+94XN+vpRKSvmFbHHO3aqs2G7GKryJqfqzNr6M2G33NTWY3sny8dePvY16z/yQ7D/xWTxIGTlzVgVLxSCpBNT3jA5tUZncZHuQUC8JLdWA8fPnoxPSPA3y8gwD883LK+VRDMLKC2dOmnnyxbUc/xv/TSrLVr19tE/U6fOWMwGFxdXQBkVxZ8dmYT6388dligkzfrJ4SQOxNF1gghpDVrGxUO7DhfKylMSloGEB4TDzQsX4xM3KzdC5Lqq1pgzayQb4V5u+7PPZ1SeGF6wvjhYXdfLLvK+keE9ZLGhLr63ewxEUIIIZLmvfclvPZ+cgS2Td+E8WPGA8D5detuEGJzUKgNJkHeE+njzhpHawoUABBEwSxahlUYdRy4LVlHThakz+g0PrM899PTP8/v8biUJCG7Ij/Q2UcQBQAsLSnDwmo6k16r1Hz55ddLly4HcC0vz2Aw3MRJWjObzYcPH61nwObLhzZftiRtCHLymRw7tNGfRQghrQBF1gghpF7ijYf83aVfPFf7LEQA4VENeXBv/d7xq95PjgAwZdOVKUjP2PbR85NqfmAMHDig9ruVgoN8Bpq3szYpqMuAwE5s87n4sbXfwrI4azQaF+c77gG4g8ZBpVTdgSfeRI5aR4VCQdftZjk5OnEcT9etkVrB3aEereDsmu3eN+b55HAASQt/SKrpWrQwY9mwQXNSgDrufQAMJpN8s3dMIABRFJed2ljPx16rKj5XcgWAi8qxf5sEACyslqcrDnDyAnCyMD2zPHdUeJ8yQ6Wr2glAhVFnMBvZTHC9Xl9SUgpAo9Zo1C1SnaCu3WrUTb1r079FjaBWq0WIdOkah65bI6jVapPZ1BruEc2NImuEENKKxcXYzcPcBOve3zYU+OWXNAAxQ6cmL/phz9CZfSdtANAutl3t8UpRo4dR2vR3c0LN74RSg2WljKvakS05EUQhp6qIZXWJjIwYPWZkMx/9355KpVIoFb5+d9yJN5FCodBoNHfgF6aJeJ53dNTSdSOtTrPe+8YPSQKAjGUvPD+HPUlKGLPqwwXJm7Zi2KA5KfbvfevO77Pp6RruC8AsCi92ngAgxMX+7Oy7fNt1920LwMvBdXBwd6nfV+vBGmWGKh+tOwAWVhMhOqu0UGnZqwajqaX/P7pdbNu6+pv40fRvUSNoNBoAkZHN/dfenYG+co2g0Whyc3L/6qP4O6LIGiGEtGKp59OB5v1zK+WdSZNq2us2/DRr66bkBavGb5i0Dtu37ZBGDUxKZA29ySppGqewbOrNhiE/v8TaoS5+rKyBzmTQm40A1q//YcaMl0ymOy7hWrt2bQODAuVXkjREmzZtevTs/v2GH//qA7nNuLi4jB4zcvV/v/qrD+T28/QzU//qQyD1aM573/ihicD1GWoAkLJhUl+sylqQ/PyYOZM22L33XS002uzHw9EBgJJXsJKgAESII8J63R/ak22yBZ5t3YPZZpmhqtxYxR41/ZCxzySYk4K7uqudO3lHspgaw55L/fDDT++8s7CioqK4uKR5Trtu3l6eAxP7T44dGuTsw3pYBDDlxMmm/GPy9DNT6d+iRrjrru4ixMOHjvzVB3L7oa9c47Cv3F99FH9HFFkjhJDWLsJOtuaEmHAg48K5pu47Zc4n25IXJA0dg3Ubzp69vjvp14UgWN19P8tce0TY9fE9z9belc6kn/HHJy92ehDAJ58svwPDaoQQQppN89z74mIigPRtP9muHt3wy7YFSUlDxmPDOnv3vowsnXy0o9rym6vSVF1uqGK1O0URHGeVMY1Z8uf3OlP1pksHjIJ5x4hFWqV6VHgf6VUWVjuSZ/nQUBc/H617z57dr1zJavhZNUVq6inWkE+pk/cTQsgdiCJrhBBSv9v7scy5CxlICo9JEG1+XliyO6fc8OzEG12BcxfSkWQZaUsARNGqX9BU1bWjfF3JiYKLrM3z3O1+5RtLlP0vuSk3/K6S2uj71hSt+7rd3mfXfPc+EQDS01LqvCD2+6sr1Hb7OXAGwZJ/jec4m1cNZqNaofohY5/OpFfxin9EJyp5Ra194HL5tWn7PmRtadL3LftPtmXLtnHjJrZpEyDvvHo158CBg03e9+39rfuL0D/jTUHXrRHoK2cfRdYIIaQ1S/lpa3ryE/cOj5uTIi9kxh7C3+SUtYS48W1RqyBa26gIIN3+O3JLKqxvvCJ4yy8KjUId4dqGtcNc/AAEu/juGbVYxSsBjBw53Gw2nT9/4aYOkBBCCEHz3vsAREQl2E5/u8GubFZLeTg5sIajUhPi7Gs9ErYBNgDAc/HjxkTcc7NHems0RxCNEEJaFdvpx4QQQlqVlE1b0hGR/Ox4eef4Z5MjsO2jd25YG83qTc//uGjR4lkJVp0Js6YmAdt++c7uW9KuWSV84TiurXtwuIs/21yT9Cr7v7k9JgPgwLGwGoBnnkneseO3gAD/mzlAQgghBEAz3vtSf9qSgYgnnh9v3T3+2eQIpG/ZVNeurljnOzNpSl47+PmX57fWHmkWzACyKvKlnkFBXQcFdY33igBwtuTyqrO/sf+7iaMmhBBya9GcNUIIqc/tP9c59T8f7UhelLhozwpM++As0G74s88kJyJ9+aJ1188uYfyKXxYlYtvMwEm2MTJpzNpJM4dmLUjetC1q2SeLfjoHoN3wxYuSw212JVdUYZVoRqtSrkp8yWaMSTAreYUgirMOfv77tVObhs5zrqlx5h8QcPUOKz9EM+wbjdaCNgJ935qidV+32//smu3ed2LOc5/c++PURRf3xMx8xnLve/aZ5ERgx0dzUuu6UJU6k3wu2tXqguzsCzlVhQ/FDLIZyfKs5VeXBDn7qBUqAK90mSi9+umpnw9cO83asR4hPfxiAYS4+LH6oQBCXfzRWv4BbAWncOvRP+NNQdetEegrVxeKrBFCSGu3bkogVuxdlLhokyWzcvq25UMnWT+0jwkH7C54kfvukaBzs1Ytnpq8ICkZNbua+cyk7+p6y7VSq6xqaqUit6qIZW4GIIgCz/HF+nIfrfvju947U3xJGnm2+HI7j5CbOUlCCCFEptnufalz+o7EqsVTkxf8cv3eV2tX1niON8vSjIraCql9tuTyozsWAEgM7Dy3x2SWbW3rlaOdvKM4+wtD7VjSZ5p802iwLUVKCCHkVqLIGiGE3AHWTblnHZAQlwAgJbX2j4GUOUmBP8XBKh/Nd48E1V7jmTpnUtIcxCUkAEBKSmqtAVYKKqrlm8WmktGb/29ax9ETowei5kG9j9advcqmqkkT1gA4Ojo25OQIIYQQO5r53oeEhDg04N4nAmbr6j1wLq5zsChyHDez84Pyzoyy3GqzIdbeEyaDwahSWf2CKy0tTZ7673qOh+O4xydPioqKlHfm5eV/sOQjKsNNCCHNgiJrhBByx7D3u0L+aoN3lJrSsCw1xZVWkTUoTHaHicAXA16s3b9w4fzExCGVlXWWEyWEEEJuoNnufTeOqTGnsgtseub1fggAi5SFOvt/1n8GAA+NCwCuVoVQ1hnu6g/g0XZDpPgaWwq6ePGSL7/6Rj64tLTMbK4vQDZ61IjZs2fV7jeaTEuWfNyQMyKEEFI/iqwRQghpKRV6g3xTVNhZriJCZOtfjIJZEAUAh/PO9gnoCCAoMDAgIODChYu35GAJIYSQZnAh12qGGgcMCOwkbWqV6g6eYfIBX6dtZ41QF7/e/nGoKZkNIN4rgpUykMycOX3mzOnynh83/jxt2gv1BNe8vDwBGAXT+ynrWc+DUQNCXPxYPyGEkKajyBohhJCWUlqll286ahQujl4Bjl7yTimtjIpXAAoALKzWCGq1etknHw4Y0FfeqdfrH5/y1L59+xu3T0IIIeSmFFvf+7QahdS+VlX8+qGVIkQAI8J6DQ+7u8Ko+/DP79mrLLLGCvsASCvNUnA8AA48m8ImKTVUsoab2mnkiPtnzZpdVFTnglNmQ/q+7zP2sbZaoXoufmxTzpEQQogcRdYIIYS0FJs5a+Pb3T2lf3ztYVN2LRwf1V/J8c4qbXffdgCO5Z8Pcfb1rknB1kBdu3YePDjJplOtVj/33DMUWSOEEHJr5JRUyDfdHa/nDz2Ud/bPonTWjnANGB52d+23X60sDHHxFUTh4e1vsx4Fx+8bvUSsqTZ6388vlxgsH7H5/nfc1E7Nfw6EEEJuBkXWCCGEtBS90WpxikojXNMV+2k95J2CKKYWZaQeygAQ6uL37aDXAfyQ8fvjsUMb96GnijKf2vsBa3fxjn6/91ON2w8hhBDSCGeuFsk3HVU3+4NLvPEQQgghfycUWSOEENJSjILVz4PlFzaszq/cMWIhgGJ9+f7cU8NCe9p9Y5Czb0hNlpmbZRCMBrNRajduJ4QQQkjjmARBvqlWKuoaCcBZpf1n9EDWDnXxr2eknUoHN2NCVH+NwvLTb1R4n6btjBBCiBWKrBFCCGkpPM/JUyovGfB4hI9lwtrsw/89XXyprsjaE+2HsYbRSKExQgght5Nq6/nasYHXs4sOD7s7wjWAtaU6Bs90HC0fzx5J8Rw/JKQ761FwlticyWRSKpVumuvLPxuyFPR82gXWsAmonT177obvJYQQ0hAUWSOEENIiBMBo/esizi/QQaUAUGaoPJR31lmlBcBz3NpBr7MB0jy1zMxLxcXF33+/8dKly7f2qAkhhJAmqdKb5JsB7s7yTZvCoHv27Dtz5iyApKTEyMgIAKE1t8I3uj0iH2k0GisqKj083L+tuWk20O7deyc8+FB4uNXn5ufnb9689ab2QwghpC4UWSOEkHpRtpPGyi+ttOl5O+Wr2d0eAfD1+R3RbkEuaktS59oLPx9//Cn2S+PmiADQ2Tt6z6jFrEPFKy39t8t/R1H2v+Sm3Eb/lf8+6PvWFK37urXus2th1UaryFqwhzOAapNh5dnNU+NG2Az+6qtvy8rKABw8eGTChLEKhcJkMg8ZMqj2bteuXX/o0JE337QNq61cubqo8AaFQfft3b9v79++kg996xqBFbagS9c4dN0agb5ydaDIGiGEkBZxtbTKapsT83UlrJkcNzw5brj8RbPZPHfuOwAEQdi374/GhNWAEydO/nHg0N0977IE1GosX/5FI/ZGCCGENIIgWv3o9HXVAsivLik3VgHIzr7KlmFqNJoePbovX/6RzdvnzVvw8cefdugQK++srKz8/vuNoih+990PLXv0hBBCbh5F1gghhLSIPOs5ayJX3+Mts9n86aefN/ETdTrdhPH/Uiqtbm2iKBoMhibumRBCCGmISr1tetAIPw8AAU5eMzs/CGDnzt0vvTQLwD339O7TpxeAI3mWfGfdfNsC6Nu3z8cff3rs2PFbediEEEKagiJrhBBSP5ru3EgqBS/fdNIo/hGdCKCouszTwdXeO5rhUpvNJrPZdONxf2u0rLERaFlj49B1a4rWfd1a99m1oEuFZfJNjuPYvVDJKQAIgtCrV88lSxbOmPEyu8hH8s5N2/chG9zdt+2SPtMA3KnX/84866ajPxsaja5b49BXzg6KrBFCCGkR53Ot0r4Eurr38e8IoI6wGiGEEHLbyy4ul2/aPGTieT4iIjwiIvzAgYNXrmTd2kMjhBDSUiiyRgghpEXkV+jkm3qTySiYIFUVAESIHDjWLiwsnDLlsc8+WymK9BCMEELI7epyUYV8U61U2Ay4UJod5RaoUFhuhYFO3k+2tyQebePkCUCtVrf8YRJCCGlOFFkjhBDSIsp0evnmpaqcvj88B2DPqMUsuFZqqHRXO7NXAwICZs+eVVhYuGHDj7f+UAkhhJBmcSrPaiaas1rFGqvO/jap3WAAVyryotwCJ04cz+53AU5erF/SoUP7W3WwhBBCmgdF1gghhLSIcp1V3QBRYZvUmYXVjuWnbcs6+nzCOBWv9PLyunXHRwghhDS39MJ8QCVtOmkt7TMll9JKs6PdAtlmfHzHiIgI1l5++mfWcFZpJ0YP1Ghues6ao6Mjx1n16HTVgiDc/OETQghpDIqsEUIIaRE29dE43n5hgW8v7Nib82eoi/+EqP634rAIIYSQlmNSybdcHSxhsoulV20GarVaABVG3cqzm1kPi6xVV1fX3quzs9MXXyxv376d1MNxXElJaXLytP79+7788gyb8T/++NO0aS+YzeamnQwhhJAGocgaIYTUh5J+NVq4t2tmwfUSabxzlUKhgizPGoCJ2+ZklOVKm1RqCHQRGoUqXDYOXbemaN3XrXWfXYtyU7oVolTadHd0APDW0dXZlQWsZ0Bg5/r3INhLODp8xP29e99t0+nu7r5580Zp0ywKBrMJgFapHjly+Fv/mZ+Tk4vbB33rGof+bGg0um6NQ185uyiyRgghpEWculok35zRadyIzpE2Y+RhNQAvznj+maeTAZxPS3vssSfLyytACCGE3D4UvFUx0CAvZwBjwvsODOwiLQVttD05J+cf/RrA14NmeWicAVQYLcWCnFVaBcc/sGV2YXXZxvvm+Gjdm/hZhBBCGo4ia4QQQlpEebVVnjVBFGxqgwJ4qfODrDEqvA8AZ2cnZ2cnAD4+3uPGjl656stbd7iEEEJIk10sLACu1wPVKpUA4jzD2GaFUbcoZf3/dXtIGuCs0kq1QZ3V2vp3XqqvLDFUABAhArj/l1cLqy1zwzcNm++pcWmusyCEEHJTKLJGCCGkRZjMVrmT30396p3MQgA7RizSKi15Z1hATfL6oZXHC9KmJ4wfENgJNtmYCSGEkL89TlTIN71dHAHk60reOf4tgHMlV5xUDjUviqWlpW5ubja1QS9funxrDpUQQkhzocgaIYSQFmEWrJIwPNvl/kBvLQAprCa3LevYj5m/H8k7B6BQX1Z7ACGEEHIbEDl5DiI/V0cAPlr3QcFdAQwK7hrq4sdeOn78/9m7+/ioyjvh/99AQEAq+Ii7atudSQhmbQjZdtS4bbf3ZiaS1Cp3HWrALtHdhiS2YVrMbzfVXeK92Ny70XYSlYTsLo67AkrcRashJEO3dbsGO3sXEOloyMyxVbRF2xIQFEjI/P6YPMzznDnznHzer3nxmpy5zplrLs4533O+55zres3y7cav3Fbp/fPKK68oLLxeRJxO5wPf/f+8E5+0/dt77/1a/ZfPmz13fu5F83MvSsQvAQCoRWYNAJAUY/5dMJt0RYsXTB3rezwel8s9MjLy+xPDf3rLza/9zu1NqwEAkL0CriotWTz+gGf5dZ/zne5w/L+v/8W9H3542tr2uIjMmzfvyOs/X7BgvojceONUybKyP//S/5q6o+22T9/8hT8smp970dxZuSLS+YVvj3rGROTMyMeXzJkvIs+VNyfnZwEAIiGzBgBIhed+9aO/ur7iw5GPPzFnvoicP3/+i39mEpGHH37oT4PGOwMAIBvl+I+ad/WihSLyrYbv+Ja5cOFCT8/ekZGRySlz5871ptU6fjE+1ufCOfO/vtT4B394tffPH//45d/85vjVVy9ZNPfiybmuXXhlwLd//PHH3pFFt29/5je/OZ6wXwUAiIjMGgAg+WaP9r3zP391fcXsnFkhP9+43HzPslu97+mDGQCQpfzuWMsZm52TIyL//u/Pq5n39MjH/zrY733vzaxNfvTrX/+m9JYvLVgwf+XK8tZ//J5y6td/63jS+5Hx2j+pXlY+Mjq6tfOfW/5vq8f/hnEAQAqEPsMBACCRLoz36LxgovOXY8fe9b75j/94wfvmsos+4X2JyPDwyR/96McpryUAAAmUyKF4zp49+/vfnzh9+oyIKKd+rZx6b/IlIr179n6v5R9JqwFAWnDPGgAg+XICj/VfeOEl75uf//zAsmXL582f5/vpmTNnzpz5KEV1AwAgCWbP4iYGAJgRyKwBQERc/k2EBXPmdps2ed97xy6w2f51sm1PnTp16hTjgXp5xMNaFztvi9FusaLd4jG92216/7pUWTAnV0Q8Hk/09vR4RGThnPn1N9zuneDtkzRERIiwqGz/X8v2+qcHhw1xoN20YJULjcwaACDp5s2dCjc5OTl5efoDB14VEY/Hs2fP3m9969ujoxfSVzsAABJv1uwcETl58mTUkufOnTtxYvjSSxf79q0mIr/85S9Dli+7tkR3yR9430++AQCkC5k1AEDSzZmdIyIPOrZ5PJ6Hb/zLnJyc3NzxAHT77bd1dv7Ta6+9ntYKAgCQYHMvuiAiH354OmrJc+fOVVbe8eUvVwRMf+aZXQFTfv7zA6fPnFl48cUBCbWXXtoTX2UBANqRWQMAJN0Nn7xMRFwn3108d6F3yrr//L8nzp1+7E+/9alPLElr1QAASIrLLs0RkbfffkdN4V/+8lePP94RtdixY+/eaPj8kiVX+k786KOPVX4LACAZyKwBAJJu3pzAXpyf+l9/M/n+jju+wj1rAIBpZsHoZeLtZy2hTpw4ceLEicQuEwAQDzJrAICke/t3ZwKmnBr5yOPxLJp7sYh85Stffuihh9NRLwAAkuUTF80VkXfeie1usosuuuiuu8yz/McVfeWV/UePDiWwbn/4h3/wuc99Njd39rx542Nzj42N/ehHPz537ryajuEAAL7IrAEAku6yeReLyNYvfsebShORNfbNvzt76tqFV3abNs2ZM2f58s+IyDvvHPv977kODwCYDhbOnyMihw8fiWmu9vbv33ZbYIdrHo+nuNjwwQe/TUjFFi1a9KMf9S5atCjkp9/85rf/4z+eT8gXAcAMQWYNAJB03rOLybRagCuuuLy394ciMjY29v77H1y4cGFkZOSHP3zpH/7h0YQ/RAMAQGosmjd3bJvFcJoAACAASURBVGxsx45nYppr6dI8ETn42yH3qV97p9yp+0JOTs7ll1+WqMzalVde4U2r7Tt2wDvlU59Ykr/oGu/7devWklkDgJiQWQMAJJ33iZhJI2MXzo6eDy42a9asq68eH9CgoeG+n/3sf37845dTUT8AABJt0cXz3n33vZGRUQ3zPnKoWzn1nvd9yRX5ASOBJsTbHx7/W8c27/tPfWLJM8a/Pf7RiSULLk34FwHAtEdmDQCQdJfMnzP5/vzY6Lf/+4k5s3IXz104OVSoiHT84ofeN1/L+9JlF31CRC666KIU1xMAgEQpuu7KJVddoqbkbbdVbNnSPnv27Mkp28u+e35s9MS5D//W8WTSKggASAwyawAQCc8iJsTyT1518uSp5oce/sH3/2HurNwnvrAhoMCzrp/862C/9/25CyOWoq+KiGfmtb/H51+oR7tpQ7vFY3q32/T+dSlz8UVzZs2apaYxGzZ80zet5jV3Vu6S+Zfed8Pt3j8TGBOjLictKwBrnQbsxuNBu2nAKhcOmTUAQNLlXBj9m7/5+xd++NL1y5aazf9bRC69dPx5kzGPZ1ZOTlprBwBA4o1eGIt1lnfP/Hb9y9/3vl9+uf7hG//yinmLrrn4ikRXTUTkk59YYrz2T7zvP/WJJSJCOAYAbcisAQCSrrLiKyPDvxWRTc2bNzVvFpFj77i81+d/d+7UlfNCD08GAED2umT+nLPnzsU0y+/Onvrd2VOT70VkMq324YenE1Wxjz/+2Pvm/xju8Z1+5fzFifoKAJhRyKwBAJJuw4Zvfv/v/8/YWNir91/L+7PzYyPe93flfSlV9QIAIFkuu3jBmQ9PxbmQ999/v6dnb1+f/d1330tIrUTk3Xff+8u/qrvj9i8XFy9fsuSqyekff/zxx2fPPvy9f0zUFwHADEFmDQCQdOvXVf38v37sO9Dn+fMj8+fPFpHJG9a+vtToO8vY2JjT+UYqKwkAQALNzZ11Ju7HK3/1q7e/+8CmRFTHz549e/fs2ZvwxQLAzERmDQCQdAvnzc3N9eub2eMZE5GPR8/Nzw0cAPT113/x8n/99Mkn//W9936duioCAJA4OTk5IvKLI7+Iaa6iy3U9lS3e995hsgEAmY/MGgAguUJesH/99V/ceOPnAtJq773365r19x04cMjjYdAhAEAWW7Rgroj8/eZ/UFO4re3xji3ts2bPypGcgITavz29Myn1AwAkDpk1AIiMFE+8cmfPmng71Zhf/4t7KipuDSj5n//5kw8++G2q6pWZGM1cG9pNG9otHtO73ab3r0uFSxfMExHxjKlpzBdf7HnxxZ65c+cuXuw3pM/o6IXf//73Saph5mGt08ZD02lFu2nDKhcCmTUAQHItujhErPnww9PPPvtc6isDAEAKzJ+bKyKnYhnQ8/z58++//0HSagQASBYyawAQEZdk4nbpgotFuL6lDrcQaUO7aUO7xWN6t9v0/nUpMXzmnIj8+r1f05hq0VAaeERyaDqtaDcNWOXCmBW9CAAAcZg/J3d4ePj114+kuyIAAKTIudELBw++Njo6mu6KAACSjswaACC5Xnf9qrT0S7/5zfF0VwQAgBQ5eeL3X/va2gsXLqS7IgCApONpUABAco2Mjp44cSLdtQAAIHU+Ov3hhxE7WcvJyfnrv76/pKTYd+KHH37Y2PjdmTRqAQBMB2TWAADJ5RkdSXcVAABIqaixr7y8bMOG+4Kn63R/9Oqrjlmzph4tcjj+34sv9pw/fz7BVQQAJAiZNQBAcnkuTPUyU1Fx6+bNm3JycnwL2GxPt7U9nvJ6AQCQLOc+eDdygXnz5onIyfNn/taxzTvFeO1nb/v0zcuWFSxbVuBb8i/+Yu3jj/+gsfG7Tz+9I0m1BQDEg8waACC5xkamrtu3tPz9VVddGVDgb/7m/uee2/3uu1FOQgAAyBYjp1Q90fk/7w/+z/uD3veL5y687dM3i8jPjr/x378ZH/Zn43Kz9813vtOwfftOj4cx+QAg45BZAwAk19n33JPvZ83KEZF7f/yPvzt7yjvlhZWbRaS19Xtr1qxLS/UAAEg4z4j2UUG73S+/MpFZu2nJ9bdcfYOI/MEfXL1x44ZHHrEmpn4AgMRhbFAAQHJdOPvx5Hvvc6Dvfzw8+fr9uQ9FJKALZwAAsppn9FwClzbquSAiX/rSnyVwmQCAROGeNQBAco2N0OkyAGBmyZlzkZpiZdeWLJ57sff9Z68qCFes48gPv/WZVYmpGQAg0cisAQCSyzNKZg0AMLPkzr84coHXX/+F901wQu3+4tU3/abQ+977KCgAIJORWQMAJFfuxYsWLFjgfQ7U++8PV26e7Gftsos+kc7KAQCQBKPnojwN6nYrN974+U9/+lO+E83mr95556qrF1x2p+4LvtMngyYAIAORWQOASBiCK37Fxcu3//BffKfMypl15fzFk396RMbGxmhqmVjfaIpY0W7a0G7xmN7tNr1/XWqMjZyN2oy/evudX739ju+Un/73wCsD+7/xjXsLr18mIrvcPxGRX314fMmCS70FpvF/zTT+aUnloem0ot20YZULicwaACC5vnjLjd43o2MXRCR31uyAAjkiZ858lOpqAQCQNL6j96g3Nja2c+euI6//wm7vEZHV+j/z/fRctPvgAABpQWYNAJBcV195ufdNQE7tv376ykcTCbVHHvlBqqsFAEDSjJ7R/vzm60d+0dy8ubzc6Dvx/PnzTd/9u7jrBQBIPDJrABAZ9zvH65IF80Sk4xc/nJxS98dfEZG//uvvvvXWL9NVqwzGXfba0G4a8DxoPKZ3u03vX5cKF04Px9OMnVv/qXPrPyWwPtmAtU4DduPxoN00YJULjcwaACC5rrl0oYj862D/5BRvZg0AgOnKMzqS7ioAAFJkVrorAACY5hbPn5vuKgAAkFKeC2TWAGCmILMGAEiuuXMChywAAGB6uzBCZg0AZgqeBgWAiOhGIG7z5uSKSP0NtwdM/9Uv36Z5A9F5hTa0mza0Wzymd7tN71+XfJ6xC3LhQrprkW1Y67Shl1HNaDdtWOVCIbMGAEgmj+e9Y8f+6NOf+vpSvzHOfvnLX42NjaWrUgAAJE+O5KS7CgCA1CGzBgBIJs/YV//3XV/96h0Bk//9359PS3UAAEi6WWTWAGAGIbMGAEimnNnvvffeY49tSXc9AABIlTGelQKAGYQRDAAASeQRHvkEAMwwHjJrADCDkFkDACQT1+0BADPMGFeVAGAmIbMGAEgmD2cXAICZZWT4t+muAgAgdcisAQCSaOT0cLqrAABASo2d/TjdVQAApA4jGADA9FN0110FIiJvDj5z6HCi54pt4RdOn1JdAQAANMug2Dc2Oqq6AgCArEdmDQCmleK/+/Heet3kn1blR5b6e585lJi5NCzcc4GzCwBAcmVe7BtRW3UAQPbjaVAAmEbu2ra3XqfY77/16k9dffWnrr51q6L7c+vebXclZC5NCx8b5ewCAJBMmRf7hKtKADCTkFkDgGnD/G/WPxdla/3Xu8cvpR/6XqnlRyJ/3vB3RXHPpW3h4iGzBgBIooyMfWTWAGAmIbMGAJF5suZ1161GEXv7w4d8Jz7zgy2K6G6tLI5zrpgXPm5sdCT9LZNlr6xa6zLoRbvRbrRbQA2JfWmMfaPpb5kse2XVWpdBL9qNpqPdfOuWNmTWACCStIcI9a/lS3UiytCbAdMPv7BXEV3esvjminXhUw14YSTtLZNFr+xa5TLnRbvRdLRbcA2JfcS+LHpl11qXUS+ajnaj6SYrlkZk1gBgmrg+XyeiHA3qU/nQUUVEt7Q4rrm0LVzoZw0AkEyZGvt4GhQAZhDGBgWAaURxvRH6A13+MpFwA5mpnCtaMYtlQ/Bnhs+WLP1cfoQqI1jh9denuwpZKeQaiKhoN23uvPPO5557Lt21gIhkYuy78bN/km8g9sWGfZFmN910U7qrkJVY5TR79dWfpbsKGYd71gBgeihaqk/eXNoWLkKYAQAkUcbGvrQ/mQQASB3uWQOA6eHwUbdIzOcAKudSVcxqbZt8b7FsqJj9rtXadjTWGs1s9957zyWXXPIv/7Ltww8/THddssmdd3712muvfa7734+9eyzddckmJpOxsLCwv6/f+UaYm3IQyk033XTTTTceO8bKlgmIfdOBd5t69dWfvfrqq+muS5bx3nXluxJCDVY5zbjRLxxuJgCAaUSXF/wYYfFEB8zxzqVt4QAAJBWxDwCQVtyzBgARZc/zHG8MKWLULV0e2KfM9fk6kX1HD8Y1l7aFZ1HrZZZMGOIoS9FuMfEEvYEavkOjTVfZ89OIfdPBTNimkop2ixWrXJxotyDcswYA08ShF/oV0d16e5H/5KKl+ggdMKudS9vCAQBIKmIfACDtcoaHh9NdBwDIXEuXfibdVVCvaNP+l+p1+yxL7t05Oa1q23Frmd3yybt3xjmXtoUDANLg6NHX45md2BffwgEAqRZn4IsT96wBwLRx+KH2fSJl1v3bqoqLiouLqjZt228tE6XzEZ+j/+KqbcePv338aXNMc6kuBgBAKhH7AABpxj1rABBJVl23FxGRqm37rWW6ib8Ue2fd3d/z7R+meNNP+up1onSW3+wzPdpcsRUDAKTVTLpnTUSIfQAw06X3njUyawAQSfadXXgVFxWLyKHDoQ/9i4vk0OGY54q1GAAgTWZcZs2L2AcAMxWZNQDIXNl6dgEAmMFmaGYNADBTpTezlpvG7wYAZLOiqqoCEZE3BneGvAsgkXNlvOKi4sAbGYqKi4PLHT4UdLdDcbH5+utFRN54ozv4U/VlgmYpyvh7K0I2kYRspVAtLJLw1gvzLZmpuLhIRA5NbEfeP0Pw/0XqWkPtdqrySzNBmC0ihpUwsU0X2/qPDELsE5Gi4qqC60VEBt/YGW5jj/yT1YbISQF7vKhiLZ98UX6y6t2pynVJwyqXFWtpIter+OOC/+Iy+BAiXN2i1TnSduQ/r/oVONZtP1twzxoARMJ1+5DGO6yZpOyz1N27M1pQ1DZXpis2P93xqFEnypYv3/zQ5JGHdzi5oMIBXfwUf3d/X61fKWWf5eZ7/frFVlMmuFKbftJXL1vK/+yhDG7ewPVhUmArhWzhRLdeuG/JVBOtp4z/L1dtO24tC1ly6hepao2iTU+31xt1fgsItyKp+dLMEG6LUL0SJrrp1H+1VtyzlgzEPhEp3rSto77Mf0UP2N6jbgvqQqTfl/rv8aJXMrbyyRftJ6vbnapbl2LbF2mdJfUSvF7FGxf85sngQ4iwB1HR6xx2OwqeV+3xQMzbfky4Zw0AkFWqtvXV6xT7xrq7uw/J+DmntW+bLImY7tE2V0abOMhTFJFQB2H2jeWPDPpPOhx4ru5zWFxcta3DWmbd/903Jg8v1JQJVvzdjnqd2Ddm2DFxoEMPNZS/4D/pdktffZmy96WJiodv4US2XrT/xwzk/S/2tfPe8jeCLhff3t5XL3tf8EmrRWuNqqdfqjeK3fLlu3d65zI/3fFofd9PJOQpVtQvzRDhtwgVK2Fymk7lVyOjEPvE+3PKFPvGcu/PkaKqp1+y1r/09NFP3j3xe9RuC5FDpK/gPV5ksZZPmQg/Wc3uVN26FOu+SNssqZfg9SrOuDAlkw8hwtVNXZ1Db0dh5o3peED9tp9VyKwBQGSedFcg06x+2lomSmfd3bvGo+Chh2+25B23ljVs+szOsFfqtM2V4QryjWK3VN69c9nTxx/Vi8dnbRl/c+jQa+Fmrrq/Vif7LDffM3lAfGjnPTfLk8ettR2bXvRe31NTJuyS794V/y9Mstf8bv6venJ/fZnYN9780GSjhW3hhLZehP/HDOX9aVu26OrrJfzKVrSpQydK5wuHPKK2NVZXGkXsG+/eObGoQ7vursvf31d76+2feSjUwyCRvzRDRNwioq6EyWo6NV+dVhn0P5gZiH0iUrSpoUzsG2+e2ppe23n3xsrjjxobvlu88+FDIuq2hegh0lfIPV4Cy6dE9J8cbXeqcl3SsC/SMEvqJXi9ijMu+MjkQ4hwdVNV5zDbUdh51R0PxLbtZ5dZ6a4AACCrVK00itjbH/a7uLTzB1sU0d16W+iOKTTPlel23b3ki+PXTgMty9eJMvRm+Hm9x4i9gfcseNskf5nqMkGqnrQaRdnygyy7G6L4gf3WMp194xK/w9xwLZzY1ovw/5iRqp60GsVuueeFKMW+Xa+b3OjUtUZxvl7E3uN/pnHoxb0R1rdIX5oZ1G8RoVfClDRd6K9GJiH2iYgcfujmyvLAtXRXj93nL1XbQtQQ6UPlHk9z+RSJ5Sd7BexOVa5LGvZF8e/5UyCx61W8ccFXJh9ChKubijqH3Y5U/97QxwOxbwjZg8waACAGxUt1IsrQGwGTD7+wVxFd3vUJnWvaC3tsoc8vjqWMj6JNDWWidNZl2a0Qq5/uq9UpnUEnbJEkofWywvhtC49EOyGoqiwT2dfjUyx6axwacovolwY80BHDcXDwl6ab+i0i0kqY5KbTsv4jxYh9E0J0975U7/NX3LsRf2r3eFrLZ66A3anadUlD+yf4vyw5ElnJxMSFaS0B21HmHQ8kHZk1AEAMrs/XiShHg7ulOKqI6JaGSVdomyuLFefrRdxHD4tIcXFRcXFRyJ8Y6mrwsnydiHvoUCxlpr5202P1OrG3vyhVq6uqVldVhRmnKbMUbdr/qFHpLL85thudEt56WaF4031GUbbURWur4gcagi7Iq2iNXY9sUXT1j22aWnOKNu1/1Cj72tXkakN9aXqp3iKirITJbDqN6z9SjNgXVtW363Wi7H0xhm1BXYgU9Xs8reVTR/VPnigfuDtVvS5p2BfFt+dPkYStV4mKC9NYArajcMcDsW4IWYXMGgBE4uEV9BLF5Qw5XXT51yd4rmx5hVxVdJVPDhx/p6+vp6+vp+/4OwNPP7B86tNdL9lFjPdtKvabZfmm+4wi7qE3VZfxfa2+v14nIkZrT5/1Uav1Uau15/jxlwNmz7TXXU8/Vq8T0dX2HX/n+P6Xn64qUtHCyWi9sP+PGfQqfmBLvc695VvNh6YqHLLOy2836UTZ+8LhWFpMPCIHH/qiaYtSbu05fvzlgf0vHz/eUy/7NpTfs0NF9YK+NO0vtVtExJUwuU2ncv3X8CL2JfxF7Av1KtrUUCayr+2hqQ1f5bYQMUSKR2LY42ksn/JX9J888Qq5O1W5LmnYF8Wz50/ZK0HrVULiQuhXRq1sKusWYrrq7SjC7418PKB+Q9DwM9OIzBoAQL2iAn30QgmaK+vpjTply0ZTeaWpvHKDXdEba/v3PzB5dW7nI51u0dX3vby9qqi4uKi4eHXz0y/31+tElL6JcZTUlJlStdIoIqJssVReteS6q5Zcd1X5Rruiq+97uTmDrwnufKTfbu/cYNm4wbJxi1uM1p79T69WMVeiWy8bVN1fq1d1E8Hqxnqd2J9o9rncrLY1ilc33lqmF3EriuJW3CKi0335djU3P4b40jRTvUVEXgmT2nTa1n+kHLEvtKqne+p1Yrfc43dnirptIXKIlBj2eBrLp17UnzwheHcay7qkYV+kfc+fQglZrxIUF6axRGxHUY4HVG8IWYaxQQEA6h0edIvEfKqgba5sdujF9i0iLzy8c+Ko4tDdX9xZ9eT71trGqofXek9BDj18c7ls76g1WnuM3kKK4hbR+x6LqCkzoaqyTETZUv5Fn9l3rb1Zth9/tP7+1c0Z20vIoYfX3j3xfueu5ze93F//6PaqXWsjP1KY6NbLAlVPthmDzmBDl1xpDNHTs5rWWL2971Gj0mlaMvUMSHHVk/3Wnu1Hr4vyPxLyS9Mqhi0i8kqY1KbTtv4j1Yh9IRRvernNKO4tlf6rq4ptQU2IVL/HE03lU0zNT54UYneqfl3SsC+KY8+fOolZrxIWF6arhGxHEY4HYtoQsg33rAEAYhSq3+UwfevGPVe2OrzzoanjhnE7e+0ixkqfa56HHl5783VXlVeayitNS64z7RW9KFseCUyIRC8jMn5BW+l/PjBn5H2WbWVVgn5Ysh166InAVgpbNIGtl/lWb7eWidLZGv24s6i5oUxk30vBJaO1RsiuVQ7tvGeDXYzWJyOuQuG/NG20bxEhVsIkNl20r0bmIPb5qnqyv14n9o03+9/bom5biBoi1e/xRFP51FN3VCASaXeqYl3SsC9K1O4rqRK0XiU0LkxDCdmOIh8PqN8Qsg+ZNQBADN4YUkR0BUE3bXv71h0McyuQtrmmnTeHlFCTDx0+dOjwoeIHOiLcPK+mjGRxx/w+wrRSOAlsvQxWvOk+o4joavuPv/P+xKu/Xieiq+975/3jPic/xbeV68QdYRiB8K1xfb4u1CmH7OzZF3L79alftC9NF41bRMybqvamU/nVSDdin5/iB/Zby0TpNAXdDR3HtjC18sewx9NUPmOE2t7D7E5Vrksa2j9xu68kSsh6NS6xcWEaScx2pOV4YJq0LU+DAkBEae8PM8Mcer7fXV9bfntR80Hfy9RFBToRt+uNMM2lba7sM/lDiouqRHYeCuilwjuYYOiVytuxxYa1kW6nilLGI6LLL/aI/yFjBjdycVHV9bJzZwytFG57TEDrqfiWdBrst9vzAifqyox6cdv3KTL1/1t1f61elC3PH478K8K2hi7v+sBVyHtPRKT+gVV+aaqp2SJiXwkT1nQa1v9USnsFMgyxb0rxA/v7avXuTlO4MROjbgtRQ6TqPd64WMunnuqjgnC70xjWJQ27cU17/lSLf72SZMUFPxnSXCGFq5t3urbtyH9ilOOB2A+Pswj3rAEAYnHoxT636Ou/7Xflqurb9Xqxt4cfn1vbXFmrqrGnrf/bVQEXUb0dT7wUKrNT9WSbMdolvihlDj/fp4i+tjHgkmLVt+v14u57MQMbuaqxp63tsYA+g4ub7wvbSmEXFH/rZbpDOx9eu/aegFdrnyKi9LXes3bt5Ea0+stGiX5fXpjWeGNIESn7cuBV6dWN9ZHvr1H3pammaouIeSVMXNMlbP1HahD7xq3e3l+rl30bwqTV1GwLUUOk6j3euFjLp57qo4Lwu1N165KGfZHWPX9KJWS9SlZcmC4SsR1FOR6I+fA4q5BZAwDE5HBz+z6Rsrb9T1YVFxUXF1U1P7m/rUzcfv0yFFc9+f7777y/fXVMc00bO9dutEtZW//L25tXF4//3pffD/t7i5obysTdWdccYSSmEGUCGvlQ87e2uMXY9s7+qS99cn9bmci+9khLTpudazfaRVfv30r99boY14rEtN70oO7QP2yLTa1C28f/R4qrHti+/1GjiH3DeH/Gwe2WsecbaraIGFfCRDZdgtZ/pAyxT0SKmvc/ahRxb+mVqtVV/i/vybKabSHGEBlWFu3GVf7kiLtTVeuShn2RmlnSLlHrVaLiQhate6kUvAKHCnwJ2PYzE0+DAgBitPOeq+TJ/W1lbf1l3glue6cp4FpWgU5ERJdfLBO33KuZa/rYtdYk2zseNdY/aqwfn+S2b6xbuyv49xY3P1avF/uGSE0RukxgIx9uvrlStj9WX/9o/9SXZnIj71p71ZvN2x+rV9FK4SSu9aaBojvKo+dlIrbY4eabKwe3P9ZmfLTfODHNvW+L6Z6p68+B7abqS9NEzRYRw0qY6KZLwPqPlCL2ybJ8vYiIvv7RtsCPlC1v7Dp0SFRtC7GEyEiyaTeu5idH252qWpc07IvU/JelXaLWqwTFhWxa91Im1AocHPgSsu1npJzh4eF01wEAMld+/g3prkIGKy4qFpFDh0OHw+IiCexJQcVc001RcbGIyKGQTRG/MI1cXFyUxC9NvCS3UjjhVlFMrEKht9MsbDcVW0TCVsLYmy4p6//Q0JF4Zif2RULsUyfStjAu7pU/+3ZHidje1a1LGnbjKv7L0i9R61W8cSH71r00yZ7AFycyawAQCWcXAICsQ2YNADCjpDezRj9rAAAAAAAAgBZk1gAAAAAAAAAtGMEAACLzpLsCAACkGLEPAAC1uGcNAAAAAAAA0ILMGgAAAAAAAKAFmTUAAAAAAABACzJrAAAAAAAAgBZk1gAAAAAAAAAtyKwBAAAAAAAAWuSmuwIAkNE86a4AAAApRuwDAEA97lkDAAAAAAAAtCCzBgAAAAAAAGhBZg0AAAAAAADQgn7WACAiOpsBAMw0xD4AAFQjswYAANJvxYrlInLw4Gvhiyxfs6Zg/O0bu3YcTEWtAABILG+883PwtWgxjQgIZDQyawAAIM1WNP9X/306EZH+71y5dleoEg++2l+rn/jL/cTgjkg5OAAAMtIaW39bWchP3P2d7Y9sDpE1IwICGY/MGgAASK/lt9+qG39rqlgju3YEFWju8J5U7NtgquZaPQAgyylPbPjWC2+ISMH11y9dWmm6z6TTm2rbTKbKDd9au8M3cUYEBLIAIxgAAIC0WnHbrZPX4qWsck1wiYJ8vYiI+4kfcFIBAJgO3njt4MHXDh7ctWPH5ua1X7jS9J0n3CKiM7X1bPeLg0RAIAtwzxoAREY3zkByrbjdpBcRUdxunV4vpsrVsuPZMGU9bJJASrChAcnmv5UdfLb5Jsn/4PsmEVPDAyt2bA5KoxEBgcxFZg0AAKTR1+4f72Ht8bqhb/bfpxNTxRp5dvKB0BXNT92fr/Pe06a/9Tvb80VEhnq+37zjtRVrHry/Ml9k6JFHXrz+/scb9CKi7K1b13xQRGTFmgfvbyif6phm7+OPND8bcKKipgwAACnx7NoNFR+0lYm+7v41m9fuIAICWYOnQQEAQPqsqTCJiEh/z7MHX+hzi4iUNTRPjZt2fb5Orx8/rxC9Tq/X6fW6/KUiIrK03GQqM5nq+vv3tJl0er1uaqnbf9rfVmfS6/SiuN0iep3pvu/3f/CU7xM2asoAAJA6bwy5RUREv3S5EAGB7EFmDQAApM2aSu8Qaft6dogcfHGvW0REf+ttKyYK7Fj7+Ztu+k6/DTF8JAAAIABJREFUiIi4n/jmTTd9/qabPr+2OWBYNKV/Q8WVV15z003rmg+KrHmqzaQTEfcTFVfetG7t2s/fZPIuoaxt+9cmvlhFGQAAUungRGYtf5kQAYHsQWYNAACky9cqx+9Y27NDROS1F/YqIiL68ttXRJgrUP+Gz/uMpLa8uaFMRMTdUTd5+nHw2UeeUES8Y4+qLAMAQKYjAgKZgH7WAABAmkw8CurWV2zfXuHzge7W25c3H3wt9FyB9vXs8P1z2fgwau4hWbF8KkF3VBHRieiWrhA5qKaMtp8EAEDKEAGBjEBmDQAApMfEo6AiotNP9KLsFtF7Hwhtfi2eY3u96fv9pgSUAQAgRVZ4s17iHnoznsUQAYEUI7MGAADSYcWDDSYREfcTFTf59hqz5qkP2spEX377is0H40ituZ/4Tt0LIc5MfJeppgwAAKmx4nbvYJ3K3hdU3rUdGhEQSDEyawAAIA3Cnj/s2NPfVmYS3X33f6157bOxL/jNIbeY9KLPl4NhnydVUwYAgBRa8WDHfToREXffCxrTW0RAID0YwQAAAKTe8ttvDXf+8GyPdyA0jf0oTwyDYPpms+8wCGse3L79qeY1y1WXAQAgRVasefDV/jq9iMi+DXWbtd43RgQE0oPMGgAASLkVt93q7UF574vB5w87evaJiEhZpabU2sHmx/tFRHT39f90+5rlK1YsX9P80w/a6kymsvsql6kvAwBAkuTf/rU1a762pvmp7dufevWDd/vb6vQi4t63wbRuRxzPYxIBgbTgaVAAAJBqUbqSGX8gVEyVX5MdGh4IfXbtlW82b3/8PpPO1LZnooNmxf3E43XNz8ZSBgCAZNCZ7vu+z/gBitut7G3/fvOO+B/PJAICaZAzPDyc7joAQObS5xWmuwoAtFuxYvzBlgi9yagpA2QXt8sZz+zEPmAaIAJiRokz8MWJzBoARMLZBQAg65BZAwDMKOnNrPE0KABE5El3BQAASDFiHwAAqjGCAQAAAAAAAKAFmTUAAAAAAABAC54GBYDIeCQGADDTEPsAAFCLe9YAAAAAAAAALcisAQAAAAAAAFqQWQMAAAAAAAC0ILMGAAAAAAAAaEFmDQAAAAAAANCCzBoAAAAAAACgBZk1AAAAAAAAQAsyawAAAAAAAIAWZNYAAAAAAAAALcisAQAAAAAAAFqQWQMAAAAAAAC0ILMGAAAAAAAAaEFmDQAAAAAAANCCzBoAAAAAAACgRW66KwAAGc2T7goAAJBixD4AANQjswYAEXF6AQCYaYh9AACoRmYNACLj9AIAMNMQ+wAAUIt+1gAAAAAAAAAtyKwBQCRXXnlluqsAAEAMrrrqqjiXQOwDAGSR+ANfnMisAUAkn/nMH6e7CgAAxCD+yEXsAwBkkbSHLTJrABDJN77xlzk5OemuBQAAquTk5HzjG38Z50KIfQCAbJGQwBcnMmsAEMmNN35u48YNnGAAADJfTk7Oxo0bDIbPxrkcYh8AICskKvDFW43h4eH01gAAMt/PfvY///zP215//Rfvv/9+uusCAECgq6666jOf+eO/+qt7b7zxc4laJrEPAJCxkhH4NCOzBgAAAAAAAGjB06AAAAAAAACAFmTWAAAAAAAAAC3IrAEAAAAAAABakFkDAAAAAAAAtCCzBgAAAAAAAGhBZg0AAAAAAADQgswaAAAAAAAAoAWZNQAAAAAAAEALMmsAAAAAAACAFmTWAAAAAAAAAC3IrAEAAAAAAABakFkDAAAAAAAAtCCzBgAAAAAAAGhBZg0AAAAAAADQgswaAAAAAAAAoAWZNQAAAAAAAEALMmsAAAAAAACAFmTWAAAAAAAAAC3IrAEAAAAAAABakFkDgMxhtyw2dSjprgUAYIZS7B1ho5DdsnixxR5l/g5TqDimZlYRu8Vk6gguFWaZAABkitx0VwAAMpGi+B/D63S6UIXsbrfeaAzxUfgFd5hKdq860F+nizRJZaWkz1K72xl+hsJVndaoSwUAwEvpa21qcgzmDVuNmmbvqG1yGKpXue1298Q0vd7objfbDNUtYrf7ps30eqN/aLX32ByF3Rq+2G4xtUaIhZMKG/u1/S4AACIiswYAQeyWErMtaKqhusUvUWVvLzHbxNCiIic2RVfXWN1kLrFMnbYofbsdhlWdURehdNSWNDl869PS3VhQWDj5t9NmcxgM1T5TCvJU1wsAAF1df/fgYrPZVBBTaPNSOmqbHGIw2JrMNhGDwSAiIoWFPTabGAzO3WabQ6amS2Gj0erzFXaL2WZoOaAt8+VwSEt341TMc7Wam0JMAQAgKcisAUBIhpbuznK9973b3efq2d1kayqxDXZPpsSMDd3V4qqM9dzDaD3Q4iwxWyq9C1L6djvE4ag17RYRh0NEvG+9fO4609X1D9eJ2C2LzeJTicmTELvFZhNuUgMAxMMbpJp8rwCpYreUNDmqu4etRlE6TCWD4/eH2S2LzROXoHynB1A6Wm1S3T0ewZQOk/+lJBFHyWKfzFh1d2DlCvOMRp8pPSISPAUAgKQgswYAYegnHwHV6eqMxrq6Sstis621o8E4kesyWjU9V6Kr62zZXeJdkNK32+9GM4dDCjXddaa4nCKFeaTVAABx0dX1dw9aXKKIqI0pSofJbKvuPuANirq6zu7x5z4VKWjpnrpC1NltD7lYe3uTo7q73+hdVLs0dh44MPmhu6/WvHvV1NUuEQnuocHZarFMJc+cThEJmlIYOBMAAAlBZg0A1DJWVovNNuhWf64Rzvj9ZxMnE5OX3u0WW2tBQwy3nU11LuNwOEQcrSZn6/hHdLIGANAm1gtHurrOA+U66TMtDrjVTEREmvyfwwzqRcHnQVClo7bJUdhtDE6d6UN2eAoAQAYgswYAaikup4ihYPKiudJhaZfKhjrvEAaKvaO9RxqsdWLvaG/1DixQuKpx4uPQSxSpbqmMqz9lhxS2NFYG3trmajXvDlkcAIAQFHtHe8+g933BeGgLHDhHJHCaz83dOlEkRNosYO4OU8nuwEmtNhFpmnjc09DSqSEsFjb6JgPtFptZgqcAAJAUZNYAQBXF7u2auaV88ozBPWizOQsa6saP3F27bbbCggJT026pLiwsFHHabE1m357ZxG5ZPD40gqHlQH+duKWyMs9ntDSXU0T67HbfRFnUwUcLyo1GnfekyJU3kcijQxkAQCxcg06n03sHtKGgoc4YPHCOiIi5xObzV3AezdHk21loMIdDDKv8pujKG1vyJE+v17vbS8zOls46XcBwnw6HiMNnsaHH+AxOA4ZKDAIAkHhk1gAgJP+TA4fDIWKo7j5gjZzmsjUNdh/onyhjrbQsNtsmBysQ0Td0d1eKq6e1ySkiSl/P+L1t48s3GMQgtiazbWrsNClcpTeqe6jTtdu2e9Vkng8AAPV0ddb+OvFeAnKOT+k8UO5Twt1eYpbuAw1637kC45OhpdG3Q7RA7r7aoFuqdd4oZ7eU2AwtB7wRT+879LVv96MiIgUhlm/zT/mJBCYBRaQ6bLUAAIgHmTUAUM3Z02fXR3q6UwwtDb4fGxtaDLYmp0sR71SdzqjTid7lzaxNnMaMPx6zqrO/Thdp6DQAAFLIv2szd4hpQRy7e9oHI3zudIisCjF9vK+1iStJujqrVXU1jdbhYf/SAcNoAwCQVGTWACAkQ0tnwCMuit1SazaXDEY6Vg8cnFOXVyjiDFM4OkWxiy7Kw6AAAGQKw6rKhoj3rDltwQ+Ljg8tOlzn7dvNm7wL+yynf24vwiOfIT9iIAQAQMKRWQMAlXRGa2eLs6SptaNB5fOZqrkHHYZVncHLdLebWwsidgYNAEDm0HDPmtJR2+QQcbQu9g4yYGg50F/ntpSM90sayK9vN3vYYiGeBhURkWpuZQMAJBqZNQBQT1e+ytDUNOgWSWSua/wZmOBFKi6nSEHomRTF7hbfkwP3oEMKG8nBAQDSJG9VdfWgiNNpc4ih2r93tImJ1dUFAcNZ6/JWGaoLVxVU5uXp9frxe8rcIlId0KlbiG7agh8EFaXDNDHwQpSBSgEASAwyawAQA/egQ6QwejnVFLul1q9vGRERW2tHpeSJ9Oz2T5Ypir2vxyniMC+2iUh193ClGMZrY++xiUirpUBvrdOJTE4HAEALpcNU0lQYwy1eOmOd1SgidovNLI1W//lCTvQy1vWH+YpYH930xlRpaaluapKWFmdTiWmwuzPK2EMAAMSJzBoAqKXYLWabSHVlfM+R2NubHCKOdnudVSy1Zmeh34ijurrGlt2tu1tbRUSkuqVh/MsmL8IbDNUtqyrLy406nYgY+40y3kWNoaW7cbDVXLJ4d8uBfmu40xQAAKJxd1hqm2wOQ0unmmCidFhqd0/1KepwiIjZ5DT4lgmaWBhqsB5FUdxut14fewhT7B3trU02qe4+YDW6LU0ieXX9B/IsteYSU3VLY0PE4YcAAIgHmTUACG2wz273PrHi6ukZdDptDoeIGKq74+qgZSIHtmq32WyS7s7OA0FX5I11/ca6oBl15Z3d5aFGM/BeoXdUdx+oM+rEeKDSUjueXeMRGACABo4ms0MMLQeGVcYRXV1DZ/nkX33tJQ5pOdBQ7lfG3V5ilu7Oqcc7J4KfYu9o79ntdDocjvFPDC0HjN74GzgGgTvUt4/n1ByG6hZvJJwqpzNa+w9UdrS3mkuaDOTXAABJQmYNAEJy2Jp8e0U2GBJxTG63lDQ5qruH64xSd0BMJeYSmxgMhsLCCI9uFlRa64wiotMFZPQUxd5e22pzOAzVPmk072kE2TUAgAbergVi7qBs4iKRYrfUNnm7OAiY3e1XzvcD126nUwoLW1Y15pVP9rNmFxFbyDEIDD4DINg7TOYmh4ihuqW7M0yE1hnrrMbyBnt7rdlc0iSG6u4Q98oBABAHMmsAECREj8jhik39pavrHw6+1cy/jL6gevKeN11d/3C5Ynf39fREGkZN8vShp9vbS8w2Q3X3gU5j4ImKzmjtP1Bgqk30UAsAgGnO2NDdom0AbHuHqbXJ4TBU+3VxoOIbQ96oLRJqGE+lw1TiO4KBMW9VdXdnQ1AYDKLTGa39w9agwX8AAEiAnGHfcz4AAAAACKIodrfow2exFLs9wsfR5lZXXLHb3Xpj1MRdjF8GAEBcyKwBAAAAAAAAWsxKdwUAAAAAAACArERmDQAAAAAAANCCzBoAAAAAAACgBZk1AAAAAAAAQAsyawAAAAAAAIAWZNYAAAAAAAAALcisAQAAAAAAAFqQWQMAAAAAAAC0ILMGAAAAAAAAaEFmDQAAAAAAANCCzBoAAAAAAACgBZk1AAAAAAAAQAsyawAAAAAAAIAWZNYAAAAAAAAALcisAQAAAAAAAFqQWQMAAAAAAAC0ILMGAAAAAAAAaEFmDQAAAAAAANCCzBoAAAAAAACgBZk1AAAAAAAAQAsyawAAAAAAAIAWuemuAAAAgIiIx+O5cOFCumsBZKvz58/PmjVr3rx56a4IgCjmz59/5syZsbGxdFcEyG6jo6MLFizIhE2JzBoAAMgIY2Njl19+ebprAaTByZMn419Ibm7uRx99FP9yACTbmTNnFi5cmJvLyTgQlzNnzpw+fXr+/PnprgiZNQAAkBk8Hk+6qwCkzenTp0+cOKFtK5g9e/aiRYsWLlyY8FoBSIaxsbHc3NycnJx0VwTIbrm5uRly9EhmDQAAAEizkydP6nS6OXPmaJh3ZGTkrbfeIrMGAEBaMIIBAAAAkGYXLlzQllYTkTlz5mRCLzMAAMxMZNYAAAAAAAAALcisAQAAAAAAAFqQWQMAAAAyl9PprKysdDqd6a4IAAAIgREMAABZQFEUnU4XvZBMlFIUu9utNxqjzQNMP67e3iERkfz8lXl5iZ5L28Kh3bFjx2pqao4dO3bXXXf19vZec8016a4RtFMUJfQH0SMcMGNpiDsuV+9QtHmiL1bNUmKtnsvlEpG8ECXVfRsyFZk1AEDGs1tKzDap7h62GsOWUTpMJU0OQ8uB/jqdiL29xGyTib+AmcLVdku+ZWDq79KaPU9tXRntCF3lXNoWjnh4E2rHjh0TkVOnTt111109PT2XXHJJuusFTbyxLKTIAQ6YqTTEHVfb+nWWLp95pNQ69MqGvFiL+H+xSGnNnle2royvehPlA79ORYWQ6XgaFACQJWytHWEu9ouIvb3J4fOnsaG7urqlkbQaZpTe9fmWgdKaPUMej8fj8QxZSwe6KvLX9yZkLm0LR3z6+/u9aTWvd95557nnnktjfRA3Q0v3gRBIqwHBNMSd3vX5li6ZnMUztKdGBix+8/Suz7d0DfgVKR2w5N/S5poo4U2AlQYU6arwKaKleq62df7JOvV1RubLGR4eTncdAACIyG5Z7L3OH+6q/mQB7lLLZqOjo5dffnm6a5G9etfnVHQFXOYONU3TXNoWDrVOnjz59ttvL1u2TPMS3nzzzU9+8pMfffTRggULElgxJJLdstjsJEpBREZHRy+77LKcnJx0VySTaYg7rrZb8i037PH43VsWME/v+pyKrhr/Mq62W/ItMlEkVIngr465et7FWq1HLFNfpbLOCOvs2bMnTpzIhMDHPWsAgKxgaGmpFpvZYg/+SOlotXk/B2au3ue7RGoe9D8KX9loLZWBXT2uOOfStnAAALTREnfyNrwyNBT4yObKO2p8/nIdPSJSc4d/mbzK1aUy4Bzy+eKAEhNfPV4m9ur1rq/okpo9Wys11BnZgMwaACBLlDe0GEI8Eqp01DY5DC2ddXn+Uy2WDvtEUcXeYbF0KN43Ji+fj4Hs5zp6RKS0MD9gst/pgua5tC0cgCY+kSooVPmEM8tEialQNzVbiAAXfrFKh8Vi6bAHlLZYiJNIH61xJ7jvf9fRI76fL71B5MjRgNzXkHPA78uCv3jcxJwxVq93fUWXlFobA9N16uqMbEBmDQCQLXR1nS0GR1OtX27N3t7kkOqgHtXcgzbb7qnjJtdum22wr8NU0rpbCgsLCwvFYWsyl4S6Aw7ISkPOAZEblgYdnoc+iYhxLm0LBxAzpcO0uMTc5PSGqkKxNZlLTL6xyrXbZhtst5hKWmWiRMlii12UDlOJ2Vk4EeHMJaYORe1ideUFTluT703hSket2eYsKGeAbaRLwuJOb6tlQEpXV04saWWjtXTAsq6t17dbtYou//vPQuXu/GoUU/VcbZu7pNT6lOpHOwPrjCzA2KAAgOyhq2usbjI3tdvrxrtbG38QtEFN38+2psHuA/0TpwnWSstis81sqWQ8NkwbYS+yDziHRMIdoaucS9vCAfhx7G63DAZOLKhsqBsPTrq6zu48MU5mtLyxqrWjwehzAclmk+7h/vHY1VBgKmkyL/YbQLuhwFTS5BMroy1WV9fZsrukaSIkjt8LfoAO4ZBeCYg7rrbNgU9t5m14ZUjWr6vIt0hpaakMDAxIac2eqQcyV95RI11dm9saV/oP37m5K6BGKqvnaltnGSi1DqnOq4WoMzIfmTUAQDYxNrQYbE3jZwOxHfwbWhp8r757l+R0KcI1eWQ/bU+OqJyLx1JS5M0330x3FZB0DqczeGKByOQ1Hp3R73KPN1YNukWmQpXf9STvJSdbiGl+AS7KYnV1/d2Di81mS+Vwg4u8GtIuMXGnd32+ZUBq9vh3Y+bqbd3VNSBSWnrDDTeIDAwMDBx5vsc1mUhb2Wgt7bJY8m9x7nmqMV9EhnpaN1u6BmTqNrIYqtfbahmQmj3q71cLWWdkPDJrAICsMn5lvbajvD+vvckh1d1qD/4L8/wL6vIKRUKc4QBZyPsASpLm0rZwxCzOsUETWBMkjaGlM/6xQQPCmb7AEHKazT8fF43R2l1tM5tNTiGvhrRLQNzxPuRZah0KHOMzv6Kr1Drkmch1bd3q6l2fX5EvSyfG5xy/q83SVZHf5S1TWloqMjB1G5nq6k0MXKAyTRamzsgC9LMGAMgyurrGanE01ZrMNqnu5llOYEKojmHC9LIc+1zaFg4gRt6BBhZPKmlypGqxxoYWgzgchuC+S4F0iCfuTNz69Yr/zWIhuzzLW7l1T410VazvnZq0YesrHs/Q0NDQ0JDHM7RaBoIHIIhevcgDF6itM7ICmTUAQNYxWrurxeFQ28EaMAPkF5aG7NQ5XC/LMc2lbeEAYqV0mErMTTYpbGnpHtdSbUjVYu3tTQ4Rcdh6GN4H6RZX3Al/69eQM/TQACvvqAnxdXl5eXl5ea62dZaBgH7P1FTP21+aDFjyc6bkWwYmJvkk8iLWGVmBp0EBAFnI2NBdLa4GrqoD4/IqV5daLLt6XBv8rnVHubqvci5tCwcQI+9o191+I+voXa1NKVms3WK2SXX3gcqeEjPD+yDdtMcdV9st+ZaBUutQuFu/Qo1/EKHjtPGO0vwTXqqqt3R1Tc0NgYs70tU1IKU1NTeIz6+IWmdkPO5ZAwBkI53RaiWvBkzJq1xdKgOWVr9r4N4TgggDjKmcS9vCEbdt27Z92t+2bdvSXSkkl6FA7/vn+H1kyV6s0jHRw4LOaO2uFpvZwn1rSCuNcSfKE5X5haUiXc/3Bs7VaglzK1y4BzpVVC9v5YatQRpXl4qUrm7cunXrZA15CnQ6ILMGAAAwDeRteLBGpKvilvW9LpfL5eptW39L0AmBq3d9jt8zKKrmUl0MCXbnnXdee+21k39ed9115eXlaawP4jfYZw9FUUS84w44mto7FEVEFMXeYTG1Og1xPw0adbFKR22TY6rn0vHcmqlDifebAe00BDXvE5VSar1DegO5xhf6lLVUuipyJpY6udyQ4wyE7JYthuqpEL3OyAo8DQoAADAtrNzq2SO3VPiMZlZjHdrqf0LgfeDlyFGXrMxTP5f6YkioSy655JlnnqmoqDh16tR11133zDPPXHPNNemuFOLhsDWZbSGmV3cPW3Wiq+tsGaxtaiqxeZ/UNFR3d3a6akvivGstymID8moiE+OENtV2lMc/kimgVcxBbcg5ICIyYKmoCFxWqXVo5YY88Q78uXT9Op+lho1n4x2s7QkT6RITFtXUGVkgZ3h4ON11AAAAkNHR0csvvzzdtZgWXC6XiOTlhT4gd7kk5CeR54q1GGJx8uTJt99+e9myZSE/dTqdjY2Nra2thYWF4Zbw5ptvfvKTn/zoo48WLFiQtGoiVRRFERGdLsFJrSQtFrEbHR297LLLcnJy0l2RLKEtqKlbagLCGWExfc6ePXvixIlMCHxk1gAAQEYgs4YZK3JmTQ0ya0AWIbMGJETmZNboZw0AAAAAAADQgswaAAAAAAAAoAWZNQAAACDNcnJyRkZGtM07MjKSm8u4ZAAApAcxGAAAAEiz+fPnHzhw4Ny5cxrmzc3NvfbaaxNeJQAAoAaZNQAAACDNrrjiiiuuuCLdtQAAADEjswYAAACk0yWXXBL/Qt56661MGB8NQFQ5OTlvvfXWH/3RH6W7IkB2e++99y6++OJ010KEzBoAAMgQs2bNeuyxx06ePJnuigBZadGiRXfffXe6awEguosvvnj79u3EOyBOixYtqqmpOXv2bLorIjnDw8PprgMAAAAAAACQfRgbFAAAAAAAANCCzBoAAAAAAACgBZk1AAAAAAAAQAsyawAAAAAAAIAWZNYAAAAAAAAALcisAQAAAAAAAFrkprsCAAAAIiIej+fChQvprgWQrc6fPz9r1qx58+aluyIAopg/f/6ZM2fGxsbSXREgu42Oji5YsCATNiUyawAAICOMjY1dfvnl6a4FkAYnT56MfyG5ubkfffRR/MsBkGxnzpxZuHBhbi4n40Bczpw5c/r06fnz56e7ImTWAABAZvB4POmuApA2p0+fPnHihLatYPbs2YsWLVq4cGHCawUgGcbGxnJzc3NyctJdESC75ebmZsjRI5k1AAAAIM1Onjyp0+nmzJmjYd6RkZG33nqLzBoAAGnBCAYAAABAml24cEFbWk1E5syZkwm9zAAAMDORWQMAAAAAAAC0ILMGAAAAAAAAaEFmDQAAAMhcTqezsrLS6XSmuyIAACAERjAAAGQ0RVF0Ol30QhK9FDADuFyu4Il5eXnRZ+ztHRIRyc9fGam0ymJImGPHjtXU1Bw7duyuu+7q7e295ppr0l0jaKQoSugPooYvVYEQmN5iij4hQ6H4R0M1ZUIvN0IJl8ulJuRGWo7L5VITtJFhyKwBADKY3VJitkl197DVGLaM0mEqaXIYWg7013HigZnN1XZLvmUgaHKpdeiVDZGyZQGzldbseWrryqAZVBZDAnkTaseOHRORU6dO3XXXXT09PZdcckm664XYecNZSJFjnNgtJWYnIQ4zWKzRx9W2LlQs9IuGasqEqUbYEq62W/ItEiXiRliOq3f9uoqugahBG5mIzBoAIOPZWjsajOHOKeztTY7UVgfIaDV7hhrz/SdFvPrduz7fMjB1nuJquyXfUpEvezxbV2oohoTq7+/3ptW83nnnneeee+7ee+9NY5UQB0NLd2e5Pmgyt6MBEcQeffI2PDVU6T+ppzXf0lW6ujIvljJ+XG3rQmbiAgrU7ImSEwu9HFfb+nWWrgEpLRWJ+C3IVGTWAACZz9HUbq8LeUnfbgl3EwAwY8XyHEnv+oouKbVOXf7P2/DKHmdORdfmtsaVU+cHKoshwe69917yaNOKnqc6gZhoiz7+YbB3/S2WLqnZ438jmJoyPp+3Wgakxmo9YrGEqWirZUBq9kS72BRmOUPOLqnZM7R15dD6nIojkReBjMQIBgCADGdoaakWm9liD/5I6Wi1eT8HIDLkHJDSwvzoBSf1Pt8lUvOg/5nEykZrqQzs6nHFWgwAgASKP/q42m6p6BqoiXiDddQyvesruqRmz9bK0B9PJgAbo+XVwi1n5VbPK3SvkNXIrAEAMl55Q4tBbK0dAZ0/Kx21TQ5DS2dd0JGIYu+wmMZZOuyK7zwWi6XDHlDaYvEvBcwQrqNHJEQuLq9ydakMOIdiLAYgfj4BLERkUuwd+sMxAAAgAElEQVQdFkuHIqLYLROFlMnPpiJfiJBGZET2iTv6eB8ltQ5FupUsapmoaTNX2+YuKbU+FeUObpXpN2QlMmsAgMynq+tsMTiaav1ya/b2JodUNwb2v6Z0mBaXmJucUlhYWFhYKLYmc4lp8oY3XXmB09bkewOc0lFrtjkLyo08oYNs5zp6ROSGpXki4vKKNseQc2BiDj95S28QOXLUFVsxAHGyW0wl5iabwxvBnE3mElOH/wbm2m2zDbZbTCWtMhHkShZb7KJ0mErMzvHA57CZS0wdfrkzIiOyUXzRx9V2S0VXlOEAopeJmjYb72DtwUrp9QpdLZXpN2SpBPSz9vzzz8e/EABIuDvuuCPdVUDi6Ooaq5vMPt2tjT8I2hDU+ZqurrM7T4yTpwPWSsti89QYCLq6zpbdJU1mS+Ww1Th539sBxlzDdHHk+fW3VHRNdoBcWmN9amvE4/iwj48OOIdE8mIsBiAsx+52y2DgxILKhrrxiGW3mG0Oqe4+YB2fYG3oMJU02UQMfrPYbNI93D8e/hoKTCVN5sV+w2g3FJhKmnw7KCUyIntpjT69671DBVjycyxSWlrzYIjxRKOXcbWtswyUWofCx9HeVsuAiHRV5Hf5VDpo3M+oy0F2S0Bmbd26dfEvBAAS6+TJk+muAhLM2NBisDWNnwdEPOzXGY3BMw66RbyFdXX93YOLzWZL5XCDi7MHTDcDXUdqrHueqswXkaHWdRVdlvwjEuZqvOuoqn6SVRZDvN588810VwHJ5XA6gycWiBhFJi8YTabVRCYDls1/Dr+rSt4LT7YQ05wuRSaXRWREFoor+qxsXF0jq++4Y6mIHH1+s6Ui/0jNnlf8H/mMWmZ8XIII+bDe57tEREqte57a4M3KuXrXr6uw5N/iG3qjLwdZLgGZNU5fAQCpMH5NvbajvD+vvckh1d2aD/uN1u5qm9lscgpnD5hG8ioftIpUbpi84p639RXPHetzKiytvRtCdSDjfZ4m+nLVFUO8li1bpnlesnLZwNDS2R8+4rgHHWJoKQ/83FhZLTb/hFxhnl8hfYEh5DTbVOJMDSIjMk580Sdvw9at429XrlxZWXhLvqVi/R3+oxRELjMx4ECkTtqe7wq8Qy1v5dZX9ohv6FWxHGQ7+lkDAGQNXV1jtTiaak1mm1R3W4MeBB3n7aV58aSSJkdQGWNDi0EcDkNwP21A9spbuWFD4MMuK++oEel6vjfsTKE6gQ7RabTKYgAyEpER2SpB0Sdvw4NRomFgGTUDDngrsroy8F4039DLwAUzApk1APj/27u/mDavNPHjD39mOkmr5k/pTJW0VQbsuEH0Bu1aMmF3riAytpRUGlcjzWhidRcwN7GF4MKimotRERdEyM5cYOzVyL3oqlr/pBQJ8yrxXZdgyStxMbUgxm/czrSNNFqUP502S1sIvwsb8H8bY2JMvp8r/Pqc8z4dKXP8Pu8550Ed6XEFrBKJ5D1gLSkx3dtpcfqlfWIikDJh1ec0C91wRkQk4g+GcscAjhJte1fx7/IcAp11aHSZzQAcTsyMqFNVnX2KzYa5bVT3B14RWXRoG3ZpHYvblwZ3U3RFA9nDOKhnVdgNCgDAs9NzLWAV9Vqh9+nJgqG7xziLiLSpk86sVg6LX6yBJVOw07J9YjNQ91RVETFqsn7hJx9A8vfQmN7tcjj+K6jaM09azloNUGYzAPtQYANnQs1zNtveMDOiXlU4+6iqEhdj9hLuzNmwZJvz7w4M5MydUa93UboGBjok7e7RVVWyCx/sRlj+OKhnZNYAAPWltcdV4ue+XteW/jH5Er5953Niens3aav0BKx+niBwRCiT2j7vwHw8s7KZ8olXZOBKgV0oyaeWrHPYck9aLrMZqu3Pf/7zH//4x/Qrf/jDH957771axYOD1HrpHb3TmT0jJaew3PVle8XMiLpU0eyjTGr7vNnVOZNrx3Zmw5JtNMY855Oq7qh3Ud4d3Sm5nTe+VIRdLpNGRMoaB3WP3aAAgKOkTaeXiPPGdCIhIolEaNrRO7msT3smSUzbnJHdU9p6XAGr+C2904naxAtUj3FmfkC8fdqLg25FVVVVVRX3xYbM411UZbAhY/dJ6lSZvouDSqrL4MU8J8KU2QxV9utf//r111/f+fjGG29cunSphvFgn2K3QvkkkjNQ65BnQi9+S69jOpRIJBKJ0HTvSUvGFFYZZkbUr7Jmn6ypzTgzPyCLjszZUOtYTO9VTpvy4vvQ1SXevoaLu+MMXuzzigy8T9rsecKaNQDAUdI65JmI2ZzOTn9ym4veGvB4VFtn6qTmrKcHke1qaE7b9KUiJduAumCcic/L1T6vo8/rSF3qGpj/MH0R22pUJHPrinFma14u9nn7tN7tLq547nv0Mpuhql5++eWPP/64r6/vm2++eeONNz7++OOzZ8/WOihULOJ3Wvx5rlsDj1ytIiKtQ7eXxGFzOi3JOUxvnVhyaW6ctOxvQygzI+pZObNP9tRmnNmKtw9edRSZDctqUw6N/U5cBq86HH3a3XGYH587DY8ePap1DAAAVFsikRCR1laeCOrIxsbGK6+8UusojgZVVUVENNlnrqW+lALX1YJ99t4Me/H48eO//e1vb731Vt5vl5eXR0dHJycn29vb8zYQkbt377755ptPnjw5fvz4gYWJZyaRSBzAFMbMeGhsbGycPn26oaGh1oHUleKzT/6prehsuIc2VQgQB2F9ff3hw4eHYeIjswYAAA4FMmt4bhXPrJWDzBpQR8isAVVxeDJrnLMGAAAAAAAAVILMGgAAAAAAAFAJMmsAAABAjTU0NPz444+V9f3xxx+bm6lLBgBAbVRzDg45eoM6j6vy+jGJUOheW1vP9qGaIUdv0ORx9XDGJgAAAI60Y8eOLS0tff/99xX0bW5ufv3116seEgAAKEd1325F0gpChxwn81aVTtaV7slzPXFr0uJs3y46nZie9EfaTaTVAAAAcNS1tLS0tLTUOgoAALBnB7tuPDeHFnKctBRonLh1MyLW0Z58nwAAAIAj6uWXX97/IJ9//vlhqI8GoKSGhobPP//8l7/8Za0DAerb/fv3X3zxxVpHIVK9zFoikUj+cS+RkNbW1pzrpUfISKWFbjgjIpHJ3uXJPG3bR2/nXfUGAADqVmNj45/+9KfHjx/XOhCgLp04ceJ3v/tdraMAUNqLL7740UcfMd8B+3TixImBgYH19fVaByINjx492v8oieneTmdk56M18MjVs8fdoCHHScvyxNLtodbt8WQiMCqTFqdMBEY1mY3TDmMDAAAAAAAAaqI6mbWkkOPkpC6VG9ujZGoulXJL5dWWbg+1hhwnLVLgWDYAAAAAAACghg7mnLXEtMN2c7eaQfvobZc4eifTrryTUUM0ufcz7YN+YqnyEqMAAAAAAADAwTuoCgbLkfbRpWttIvdu2SwxERHZviL3bnRmHJ6WmJ707/7da/GLNZCRV8s8rK2VjaAAAAAAAACovWpn1mK3HL0xk0cnki8FlrxyL+NaYtrmjFgDAbFYRKRV026d8GTs/vRbOv1pH/UTlW04BQAAAAAAAKqperVBQzcm/RIRp+gnTCIifkvvsl5EIhGxJtukXdFP7HS8dTOin/D0yI3k5x5X9qFq1kByqds2lqwBAAAAAADgEKhKZi1Zf0CvT1tQ1rZ0KaNFQq4tLV3bvbCTHmsd8ixdam2VUJHx2f8JAAAAAACAQ6cqmbXWS56lodbWkOPkzvlpGcmw4hU+yZsBAACRra2tzc3NWkcB1KsffvihsbHxZz/7Wa0DAVDCsWPHvvvuu6dPn9Y6EKC+bWxsHD9+/DD8U6rObtDM5FhyCVt2G8tJf/rH8o9LW1ZDmQva2tp6SMYBAHDUPH369JVXXql1FEANPH78eP+DNDc3P3nyZP/jADho33333UsvvdTcfFDlBIHnxHffffftt98eO3as1oEcSG3Q1iFP2l7QWzc6nX4RyT4wrezkWMRpsWRcsAYeucisAQBwxGxtbdU6BKBmvv3224cPH1b2r6CpqenEiRMvvfRS1aMCcBCePn3a3Nzc0NBQ60CA+tbc3HxIfj0eTJo8tYYtEZq2WZwyMWF1OmViYtnSaaugsKe14D5SAAAA4Ch4/Phxa2vrT37ykwr6/vjjj59//jmZNQAAaqLxgMZNhKYdvZ2Wm+2BpdtDGhERzdDtpUD7zc6TvY7pUOKAbgsAAADUn83NzcrSaiLyk5/85DCcMgMAwPOpOpm1RCgUCk1P+pN/O3pPnuy03JR3Aku3XT1pK9Rae1y3lwLvyE1L58leB+k1AAAAAAAA1LHq7Aa9F5ycXBbRW0cvtbaKrn0i4Bnqyb/ps7VnyNUzdC00fa+Ns9IAAAAAAABQvxoePXr0DG6TSJSuWJCvTSIRuieUAgUA4DmwsbFBbVA8nx4/fvy3v/3trbfeyvvt8vLy6Ojo5ORke3t7oRHu3r375ptvPnny5Pjx4wcWJoDq2NjYOH36NBUMgH1aX19/+PDhYZj4nlGh33JSY/natLYWWPoGAKhfiUSitV7fmdRz7HiOqIoSFxHRao0aTZldVCVeqk8Fw2K/vvrqq4GBga+++uo3v/mNoihnz56tdUQ4cIlE5qk55U47+5qhmN5wuFU2ARXvpapqbhdNbsNyJkhRVTVP1/Im13LGx+H2jDJrAACkhBydluUKSkUfBolpW6eznZrVOMxU90WtY3H3c9fA/IczxqK/1FX34FWHN62PdLnid+yazDZ7Hhb7l0yoffXVVyLyzTff/OY3vwkGgy+//HKt48JBCjk6Lf7cy3rrxOi1QgfubPerdHZNTPd2OiNiZX7DYVTRBFRyZssetdxWXQPzd2aMGbdSBq/2eRdzps6y+pbRBvXgoGqDAgBQPSFHb69jmso3QCnKoNax2DUwH9/a2tra2oq7uha9fdpBpUQXr+x02YrPD8iiI7NPBcOiGm7fvp1MqyV9+eWX/+///b8axoNnRT8RWNoWCAQmJqz6iN9p6SxSBC4U9Iv+nUsVvbRK3LoZERHxB0MVhwwckIomIGVQ6/AuZsxsXYsO7UV31iK1gfl4lg9z0mpdWcN4+3aHUd2DFxu0fV7pyo6gdN/y2qBOkFkDANSDSGS51iEAh54y2OeVLtfuu3yN/c78gIj3g4K/0lX3B14ZmL+z+/pfY5zJ6lPBsKiO995774tM7733Xq2DwjPR1rqtp6dnaMh1+9FSYEIf8Vs6HXmzX/tOrFmtVj2pNRw6lU1AyidekYH5jJntQ1eXLP5XMLuXJlvaKJOOxZwJ8s78gCw6rqbuHl9Ovpm68/5AVgSl+5bVBvWCzBoAAMCRkHyUeD9zG6dxNP/DRIrGficez953YryS/ohQybAAqq21Z+h2wCrin8yzhHv/iTWT69o7pNZw2FQ2AamrUZGBK5lTm8b0bpcsLse3P8eXF6WrXVvq3leyN2Ym754axzizdSffxtRy+pbTBnWDzBoAoJYSoWmHYzqR/KM3yTGdttslMe1wOCaXRSI3bziS0p4p0npldksbWRKJkKO3t/c9xweOrDZJoen060WGBA41dTUqeR4Tsh8mcuQ5rHk1uv9hAWQrOeWV0uMKWCXivJGd/goF/SLtmp3E2l5uFLrhjIjV1COtl0it4ZCpcALSnO8Qia5mZd5KptLyKNg+Z/TK+u5nfBwqZNYAADWl3vT7Y7emezsnb0p7e3t7u0T8zrTdLvdiy8vLkYiIRJZTYveSX4UcvZ0Wpz/ZrV2WnZbOk2m7ZNSbfn/sXmK6t7PT4o+IvNwiy37n5K2sJ4vE9KTTvyxtrSKSmO492WlxLm8PmTrV5ln87wDsW3x5UaTjfE6eLP8jRhHKpGNRut41aao7LIBSU15pbTq9yLKaOZOFgn4Rqymt+ED5N0rrm0yt5VsSB9RGpROQcdTVtei46lZ2Wqjui33e9NVv6mp0e2g1Kd9A+dJ3hYKqpO9+xsehQm1QAEDN+Z2xwNLt7YpnLpPjpMVvcZgeuXpEely3eyTkOGlZnvBkVDwLOSz+iD69DNq1kKPTst0vNbLFprfujh1au265eSsxlDZO4tbNiOgnkltoWoc8AY307NReS4YyOX2tpx4rmeJ5VPD19+JyXKSs3+mq+4OczTdVGBZAUrEpr7RWTbuIP3ZPZHdayk2slX+jjL6tl97RO51Z0yRQWxVNQBr7nbgMXu3TOqSrq0sWFxela2A+5+yD6CeDF/t2C4h2Dbg+nNmZ/IxXBsTr/cA9asws+PmBt0hQe+i7n/Fx6LBmDQBQc/qJaz1pP+J7rk3keSWfKTE96Rf9hCf9x39rz7WJ7J0s1tHbrt2xe0xWidxMX7WWPF5mdGeY1p70SJKhRLYXyQGHWcYWzoopg1rHogzM7zx+VGdYlOPuPtQ6dpSvgimvuIS6nC+xVtaNspJyrZfe0WdNk0Dt7GMCUpXJ//IuinR1dXR0dHSJyGL0k5yT2Ra90Q5Xqjzo/EDXojejfGjyxDOH9uKgklzVprgHL2odi7K7qrugcvruZ3wcNqxZAwDUXNrZMCKSeiVfvBbovVhE9FaNJBIZv/817cnHhu2HiexHjR6TVfxpr+NTibWyFgoAh1tyc8y+hkjululypb/Wr8KwKNNbb71VcV+Sa/WjgimvqIITWRk3CgX9IvrloMMRTLsaYdUaDoeKJyBlUNvn7XLFt7ZXg83MqMqgtk8r57dSE5zG9L5LxGTfrcs5c2frymBDn2NSsW+3Sa58c3j7tN5ko66uLpHF7JIKeWMvo+9+xschw5o1AEC9ivgtnVks/hJ9ekzphz/vnNu8I3nY88kdnc7IQYUPHIB8R7YUOAE6x/ZytTu5v+j3MyyAKkqoyyJ6XdvuhWRlz4reEIWCfhERWU4jemHVGg6TvU9AqvsDr3S5PsyYzDTGmfkB8fYNKjsX7Pbsqp7GKwMi3k+UtG72mTtbW8lVbVtb8XdlUbpco9n1PPMrp+9+xsdhwpo1AEC90k8EPJfacq+3FnvR3nNtQu93BkOunh4JBf2in7i28zySmO7tdEZEb52YGE2VS1SDk05/leMGDoa2vSt5onPWo0J8eVFkoMRhyPmWq1VhWABVlXE26M6FypZep45VWLqdtTwt5DiZfSQpUBuVTUDx5UXpcuXupzReGRBvntGyb5hLo9GIiOq+6FiUgfm9LSgrp+9+xsfhULXM2sbGxtra2g8//PD06dNqjQkAe3X8+PHTp083N/Pa4Mhr0+nFH5PWvf/wTx7QHAy5eiToz3g+Sa5gC2Qc7tymTjqrEzFw0DSmd7scjv8KqvaMX+VlrC1T3Re1jsUuVzzPcrV9DAuguhLTNmf1EmvZSbptPSar+J03QkPl1VQADk7lE1C+8gYZx7apqiJi1GQ1SdblzD+kMpl5DOlelNN3P+Oj5qrz8LmxsXH//v1XX321paWlsZEdpgBq4+nTpw8ePLh///6ZM2dIrh09kYxSaMn8WE7VztD0tFwa6imabkul1qZ14s99pkjfYiOpZJu0VyN+4MAlH0HSjogR2fmpXuQVeJFdoPsZFlXw5z//+Y9//GP6lT/84Q/vvfdereJBDSVC0zaLMyLWQFrtnmR27J08q7dLj1cosZZKrfmTi7uBmqpoAtK2d4l4P1FmjBlJKmXSsbvSTZnU9nkH5uMzGevXlE+8IgNX8uW2lME+b6UbNcvpu5/xcQhUJwv24MGD11577ec//zlpNQA11NjY2NLS0tLSsra2VutYUF1tOr2IPziddu5L69CoVSLOzl5HKJEUmu49aXE6gyULebYOjVrF73T604uCpu4Scd6YTiREJJEITTt6J5f1+uzuy2qC82dwOGns7w+IePu264wp7sGLOT/VVWWwoaGhIXXUTHIXqHS5roiSTd3LsDgIv/71r19//fWdj2+88calS5dqGA+emditUMq0w+Fw9J482WlxRvTWwFJavevtxFq+7FgpRbv2mKySVWkbqI0K5jXR2D90dYm3r2Gn6OZ2t90lYalT17QXB907hTkvNhSc2vIe3VamcvruZ3wcCtVZ0/HkyZNz585VZSgA2Ccya0dR65Bn4man09npd8rOfs0e16MlncPmtHT6U830+omAZ6iMV+zJ9/HZRz63DnkmYrbUXUREbw14PKqtc7eGQXK5m7OzM5a5ZxQ4LIwzW/NysS+tztiAKz6T+VM9uR0mddRMfHlRRGTR0deXPVaXK25M9SxnWByAl19++eOPP+7r6/vmm2/eeOONjz/++OzZs7UOCs9AxO9Mr8ij1+utE6PXsldkF1l2VkqJrqxaw+Gx53lNkkU3zw9eTeuU2804E5+Xq31eR5/XsdNk/sOZPIewqe6rFS/TLqfvfsbHIdHw6NGj/Y/yxRdfvP322/sfBwCq4rPPPiPdfyQlQqF70tbWk12iIJFIiEhr0coFe7lNieESiUTV7oU0Gxsbr7zySq2jOCpUVZXtQ5HzfSsFvtnXsKjU48eP//a3v7311lt5v11eXh4dHZ2cnGxvL7g3/e7du2+++eaTJ0+OHz9+YGECqI6NjY3Tp083NDTUOpC6UtG8luxUdNoqowkOq/X19YcPHx6GiY/MGoAjiMwaUI/IrOG5VTyzVg4ya0AdIbMGVMXhyaxxLBoAAAAAAABQCTJrAAAAAAAAQCXIrKEcitvm3qkQVukYtqYm214HUd22bpuS/2qRoRRbd55uAAAAh1RDQ8OPP/5YWd8ff/yxubk6dckAAMBeMQejDMrssC86NWI3Krbu8WihVh1jC548JYp3xvCJYUpb1rmQiq17/IJ/wa4RkWhYLqcuNo1fiC3YNSLxFV9YLhcdKhze/kt126yBgkGXiBoAAOBZOHbs2NLS0vfff19B3+bm5tdff73qIQEAgHKQWUNpyqxP+ufsGpG4hMNi6O/oyG4SjfrC6Z9VxX19diWzgYhh5brNVvA2F0Y8qULDRs/YbJPVbVqw78ZgM/v65zY1u/GUnw6LhsUyN3Y+94vVcfNw2aMAAAAcmJaWlpaWllpHAQAA9ozMGkpR3eMZiayOMU/uIi/F5jMXGSMaTWbkyr6p0TM3231dMY1sDz8enYotJG+rzPrE0C+Kkr7dU2s0FlnD1nHeaMyXiZstOyAAAICD8vLLL+9/kM8///ww1EcDUFJDQ8Pnn3/+y1/+staBAPXt/v37L774Yq2jECGzhpLUYCAs/WN73DCpMdrT0m+KrcknU/7tJWklb6kocZHLY5clHlwRia4qly+PjUlcUeJarTE+6xMRn9nsS+timIoZ7RoRxda0c93c5BPDVMy/t8gBALXS2Nj4pz/96fHjx7UOBKhLJ06c+N3vflfrKACU9uKLL3700UfMd8A+nThxYmBgYH19vdaBkFlDCcr14bAYLNr9DGEzb+8mLYsaX53d3kka9YXFILOz26vdLlxeDfgMU8nj1kRUd7cuYNn+JCJGTyw2IhK/rjPLXGxEKxqNuEV85iZf7o1ERKS/0v8sAECVNTY2/v73v691FAAAHKz19XXmO6AqDkNaTcisoTjVPZ6TkfKZu6OG7IvhcKEcleoe94lhasQo5ZY/2Fnvprq7dSISFhkb8SQ3eyq2prBIR1xEIyISXwlLx1hGyk6j0YjEd/8UVUT652Ij28nBeNBqDljm/CZtqlGR/34AAAAAAIDCyKyhCOX6cEZdAtGOzM1dTv29Om4elqm0ygDaPAvbVLd1OGyYitk1IjIyNhbPbrA6Oz7sy7MqTnV364Zlam5KzIEOGdc1jfdPjY3IuM9gMISjq6oYNSLqarTc9XSarAyaNvsCAAAAAADAHpFZQ0HJXZxTU9HhwPYljca4m5CaFZEClQF2RtANh8UwZdLkdBYRURWbddgn/VOxjBPYVMVmNfukfy7mMYo7IB2XPR7PiGKzmq2Wqbkx0+q4biW5aC3PkrVd0fHubrNYYn4RiY7bbDvVCqJhCct1207l0guXR+zFyh8AAAAAAADkRWYNhairUemf85hWu4dTF1Q1T6vMi2krwVR3t7nQ4WYiqjuZVZuLeXKyWqvSkbysKu7z/uR6N43Rs7CZ+n5WAquqGDX5l6ypivt6ag9r/5zfronbwiI521cBAAAAAAD2i8waCtGY/DG7RtTV5EfVbdVl7Q0VEbMuM3nWP7fpMUpqM2fYMDVnCZgD2Z1EROIrvvB24+wb2z2e1B3Nwx1zOevJjJf7zeNB1W4KBsIGiz/9W1Wx6cw+MRgMuye3xUWkY8yzcyfVHfWJZaTcQqUAAAAAAAAFNNY6ABxemSeRaewLm7tiU6lVYIapWNrlnUxZfCVsmIot2LcXlCm2pkxmn4jPnHGp261mtNUNhzPbbDcwXu4PD1+3XR8OGyymzPIF2pG52ObmwljHziV1NSqGC1oRUZOSR73FU5+q/r8aAAAAAAB4brBmDRVQbLphMRgk3NHfMayznc9demb0bCbLe+58jsVG0hvEr+vMklaxU2SnTKfRs7npEcXWZJbdRW2Krcks51NpNOPIlEE37JP+ueyFZxpNvmPfOs5rJLmabVvYrEvucS2wbg4AAAAADsKxY8e+++67p0+f1joQoL5tbGwcP378MPxTIrOGvVLd3WafYSo2tqIzy2XPnDSZu2XOn3tcWqasWpzxfBd3JasnzG3n3VT3uM8wFctKgSWXopWINhgIGyxakbiIYSq2kFEqwd2tWyncFQBQCxsbG2traz/88MNh+J0E1IXjx4+fPn26uZkf9kB9+O6771566SX+zQL79N1333377bfHjh2rdSBk1rAnqbKdU7EFu0axiYiI0RObs+nMumhW2mp/jCNzUzJu1jUZDP2WjuiwT6ZiO6MrNt1w2GAwhPOvl8sIOBhIlQ+NVys0AMDB2djYuH///quvvtrS0tLYyJkVQGlPnz598ODB/fv3z5w5w4M6UBeePn3a3Nzc0NBQ60CA+tbc3Ly1tVXrKEQ4Zw1lU7x0ENIAABpkSURBVBW3rVtnjnbMZWfQNEZPbK5fhnVN3TalWgeXaYx2z8LmXL+EfcO+sBg6zqd2liZLjvbPLSwszPWLz7x9+Fr+oIOBsPRfZrsnANSJBw8evPbaaz//+c9JqwFlamxsbGlpaWlpWVtbq3UsAAA8j3ivhfKowfHhaMdcLP+mT43RsxC7bLOOz8al6K7Q7ZoBwVmfSH+Rdor7+viwLyyG/rnYiASvj5t1uv6pOQmYfeH+uZjHKMnlcqIz67pXdjejqqoqEp+NinSIKNeHw4Yp/3ZiLTxs7c4oVBoOF4sBAPDMPXny5Ny5c7WOAqg/ZNYAAKgVMmsoj8a+sGkv3sLoWSixOEx1W3XD4dQHw9RI3uZqstaAwdA/F/Mbkwex2T1G+4jitpqHM0sOaFLJtfHgiNGuERHleqpOgWHKr1WuRw39Y7sL7AxTY35T2tFs8aDVzDlrAHDINDU11ToEoP40NTVxNCEAADXR8OjRo/2P8sUXX7z99tv7HweHkqqq+SsNqKoUqkBQRu9KuhS4YzmBqKoSF2PmgjpVUURr3GN0qAufffYZy16AesQvCqBizH1AvdjY2Dh9+jTnrAH7tL6+/vDhw+PHj9c6ENasobSCibGyUlJ7TasV7VLgi3JuodHkblPVGDmBDQAAAAAAVIzMGgDg0AhN9wY1HldPa8ZFR++kjN529dQqKgAA9i2RSLS2tua9LpL3m1I9d7vnk9alZJtyBgEOo/y7nVRVicdFRLSFNiiVbrF7g9yL6bfM20DyrRYp+56oQ2TWAAD78umnn3766acPHjwo0ubs2bO/+tWv/umf/qn4UKGgMyKB3B/xkUjxfonQ9I1grHSoIqIzXRtKS9xlP0sUeITIeqgp9YzDgwieD6pi05kl/fxTAIWEHJ2W5Yml20MZE0RiurfTGdFbA7ddBSeO/D3TvvTn72cNPEq+kyrcRp8ctmQD4BBSlcGrfd5F6XLF79jTEl3uwasO72Jaw6wGorovah3pDaRrYP7OTL6pLLdp9oiq+2q+Ftl3LR0V6lx1MmuNjY2bm5scOQzgMNjc3Kx1CM+R//mf//n0009/+9vfFt/5/fXXX//Hf/zHkydP/vVf/7Vwq1DQL/qJtkQodC/9srosImoolNG2rSd9YZt60+8Xq7U9rcGy3x/R663tWdeWddeGdha/5X+W0FsnPK70B4msh5pkr50nlkyJaVunsz3/d8DhodiakhV/ymaYii1kPQNotBcMElhV85UFV1UlHlydDQR84XCergAy0mr7mjP0EwHPpbacyxkveUq2KWcQ4JDYzlN1dYlkZrWUQa3D2zUwH59JzkyqMqjtc2gHz2+lMmfJXFnXwPyHuy2u9nn7LrYXTHQNzMdHtZmXdn/1auwfxk2ZXwYntQ5v17um3dFKRoX6V53M2k9/+tO1tbVf/OIXVRkNAPbjkBxj+Zz49NNP//3f//3s2bPFm509e/a3v/3tRx99VCyzlkysXZJbNoszZ5Ga02JJ/6ifWOrJfIuuf+daejosMb3sj7SPutKfVhLTy/6b2QOnP0vcu3dLDd50+p2d/lip5Jjf4jCRP0Pd0o7MzV3Ovbw6bh6Wqbmx8/m6bD8jqG6bNRAVEZFwWCSs6w4YRESkY2zBIxkpO4Ohf2rOb8qTeQOed6m0WnXWhLWVsVa6ZJtyBgEOhfiyVwbm4zPG+GBDX3T3uur+wCsZ6880xpn5AW+f9wP3qNGuEVEmHYs5Le7MS0Of46rbVCi3VvT9ceaXyuBFh1cG5jPWq5WKCkdAdTJrLS0t9+/fb2pqOnXqFCvXANTK5ubm2tra2tramTNnah3L8+Lrr78umVZL0mg0xXeMhoJ+sQaGWlvl9qOhjC8cJy1ygKvAdp8lWluHenqGhkyOkxb/5PS1nuJPO+TWUMc0mvxnvMyKyHlj8QI/GtPlMZHxYbHMjY2JiMjquDnQMTU2ohWJi4hhKuY3VVDBCHhuVDWtBjx3jDNbyXkqnnldY78TN0nW7GO8MiDeVPpN+cQrMnAle5Izjrq6vI7luGT3jS8vSte7WQvWClPdF/u8iwPzmUvRSkaFo6A6mbXm5uYzZ8789a9//ctf/rK1tVWVMQFgr5qamk6cOHHu3LnmZg6RrDeJ6Um/iLXWYYiISI/JKn5/7J5IwQce/UTgnZsWJ7k11LO0tWfbwmERMXdHDRlXOyx+T/pLdY3RaJfZ4XHReowaEVFXx6Xjst2okeRTTsd50mpAYSXSaonQ9I3Jm8siIu3vjKadYACgtDzVDFYzZ7qu9gKZsmj+0w3KpgxqHYtdrnieHZ6lo0K9q9rDZ3Nzc1tbW1tb7u58AABKSNy6mbYBNOQ4mX3+meVk2oV8zyORmzcc6UUMliMiMulwBLOuvVNGMOqyiF5XfEJrG/JM3Owkt4a6Fg1Lx9TY5d29n8ndoGNpu0FXZ8eH8/36114whFeSr/fVYCDcP8ZRMUA5SqTVQo5eiz8iorda20WWnZbOmxMT7XkaAiiPMulYlC7X7qlniwXWpsnA+ZxinqtRkY7zGtmpAFrwxZHqvtjnLb8qQU5UqHcs6wAA1FzoRvbJamnHn9270WmRwNK11KdbNkvOYWlVlAhN25wR0U9cKrVDp5XcGo6ACyZj+hv6nN2g2tWczFry8eJ8hwRWFVWrleBK2HBBq6pqvrfyAHZFnJ2dImINFNgEGnJY/BGxBpZcqSI9rmvTvZ1Ov4i+6LBZr5ZEJKcUtsRuhULZ/0Db2np2j1Yr2QCoQ6r7A6/IwPupfJfxyoB4c443SzYqtJYt+sngxb7dsp5dA64PZ7LTZ8rgVceiiDi0DQ7p6hp4f7s+QllR4SggswYAqLGQw+LXT0y0O53pV3eOP0sWCi11sHKlFQwiTlvv7sVIJCKiT3uqKYrcGupeOHDdtrL7MRoVkXGbbTbtUlgkvX6I6rbqhsOpD2bdcOovnW5YxDAVGxMRX8n9pMBzS6+XSIFjOhPTk37RT2RMQK1DtwOxnGXc2SLLy7kXdSJpt4j4nbmjWAOPXK3lNgDqjzKodSzKwPzu/szkiWoO7cXl+Q9HtSISD05+4PAuimQU80y36I0OuOY/NGlFJD55tc/r0EYla22acfTdAXn3ypXzIrL6yQeOPm00o2RBiahwBJBZAwDUVkJdFuvokCaYkViTe4lERqvUx3vPIKLl4K1Q29Aecmulyx0AR4XGvrBp3/6g2JrGL8QW0p4vFJuIIbWfNK3SqJa0GpA6y0Cmezudll5dzn7Qe7G8C6Z7TFbx58mcpQ/rKVkJIb0Q9o70V1YlGwB1RnVf7PNK9rlnGvuduAxedXj7tN7kla6uLpHFvAvINKb3XSIm+876M83Mna0rgw19jknFnjXszEzqT6PRaGq/qHX0DV7Zyk2e5Y8K9Y/MGgCgtloveZaGWiWUfiKaRJyWzvRMm6XTv/tBX8ZhaeXKfSBJhBw2i6UzVl450lRuzTZ9iQpvqEMGy4gnIy/mM8uYx7P7e191R32BPQ7asb2ftJxKo8DzpnXodiDWa3F29sozLQ3aVmrtd8kGQB3ZXhiW59wzjX3mjn0mebKBRiPui9rFLtdo3qlKY7Tbs68ld5R+oswUnt009vcHHH152hSJCnWOzBoAoMZyfsv3uB49cu18CjlOWqRomuteLCKRSPquTpFIRCRi6V3WZ14rIynX2uPyTCyXvxCN3Brq2UpQUdLqFURFZFVRdr9fXcnukV5SNBwWEWt3KvXWYfF7zmc3B5Cjx3U7ICctzk6HhsMEgOorZ2FYshaB6r7oWJSB+b1kurTtXRW1YbnakUZmDQBw6CSmeztvvrP7Mr9UoU4R0U+MjqYfRhucjPgl91rRDTU7Wi+9o3c6Y/dEykqVpeXWLpU1PnAonLf0d6yszM7uJs+iIiKB2dmOtFYd/ZaMdJnGdHns/OXk36vj5kCHZae6qFYj8YMNGTgqelxLE8uZu0LbdHrx5848CbW8mQuAiIio7otax2J5ZTqVyaInnqmqImLMLs4TX14U6UhrExdjdr2CzDZ7jAr1iMwaAODQSaaqkjtl7gX90h4oluFKqMsi7ZqenrQX/23qpDPftTKfT+7FIiLtew3YaZvWVHGjKnCwNEa7R+u2XT8/4kk9Eqjubp+ULDagMRo1itu2avLYZVbkgsmoDbrjdrtRRNRgVAyW/OXVAKRLFSfYXbiWfKmTXd0gWTy7aG1QADv2st9SGezzSqGNoCKiTGr7vAPz8cw6n8onXpGBK8a0NtkJs1Ttzys7A7ML9OgjswYAqNzp06dVVdVkv83L4+uvvz5z5kzZA6fOoensvSkRsQaKbpa5F4uI/p2Sq9rKlgg5LH4Rq2kvW3Rah0atTovTEpE9peSAWov6zLroVGzBrhE1GAhLx1gZP/uV2eHoBdPOx/jKsNl2ftNjlPhKmSMASFu4JoHbrp6dgtO9MjF67VKbyL1bNotT9HqJ7PYJOU5a/GLNOCMhdisUyvPPrq2th5PT8FxJ7reULtcVUdIPNhAR0WavK1PdH3ily/VhWrJLVQa1fV4ZmE+WHjDOzA94+/q00QHX+6PJ2qDBq32OxfRsXLKNQ3txuWCbPUWFelW1zNrGxsba2toPP/zw9OnTao0JAHt1/Pjx06dPNzfz2uAZ+Zd/+ZePPvro3/7t315//fUizeLx+H/+539eurSnvZI910atyxZ/RMQ/6dDJtULFOkNBf75qauXafSBRg8HY8rI/EhERvTWw17NvelwBq9/irzAMoCY09oXYeZvVrGsK9PeLL2yY8pc+/kV1j/v6xzY1sr330+iZ628y2y5vjqyyZA3Yi9ah20uyWyu0dej2kjhsTqfF7xQR0VsnllyaGyctRRdcR/zOvJOPNfDIRWYNz5P48qKIyKKjry/7qy5X3Ji5rOxqngPWVqMiItFVVZIJL+NMfF6u9nkdfV7H9kAD8x9mLGIzzmzF2wevOgq22UNUqF/Vefjc2Ni4f//+q6++2tLS0tjYWJUxAWCvnj59+uDBg/v37585c4bk2rPxq1/96tixYx999NH9+/eLNDt16tSvfvWrf/7nfy5v1EQidMM26Y9ERG8NLF2TWzcmU6VC9Xpr+zs6k0az+ya+ZGItEQrdExGR4M2ISPZuzawHEr1eb50YLZjFK47cGuqRxjgyNhU1D/t8ImJYCboVkynnVJk0qts6LFOxzASc0TM35RYlGAgbLH4eEoBcPa5Hj/J+0Tp0+9FQ+kfX7SFXIpHYre+T0bPH9SggvWrb7se0kj97vHXZDYBDyjiztZX1caa8nhr7na2csp8a+50tkyrpU6DGOHNna0aSlUSlwC6N9GqjuW32EBXqV3WePB88ePDaa6+98sorVRkNACrT2NjY0tKyubm5trb22muv1Tqc54Ver9frq3cCTHKfi4jeOhHwpBJcQ66eIZckEqFbt4I3b970+yM7b+JDjkm/WAPFinLeC1q2s136zJblPJBIziNHsSeQMkcEDgFVVeLB2fGALxwWMfRPzY2YtPHg9fFh8/CwiIgYDAaRjo4OEZELFy6n8m1qXDqmxkzJLS2zUZELyeGMdrtiawobpkisAfuXUzR7V2J6cvkdD2vRgINRIHdWxsEn5bTBkdXwqBpvKL744ov29vampqb9DwUA+7S5uXn37t0333yz1oFgbxKJ0D1p62mVRKLYI0Wefom9NMfh9sUXX7z99tu1juLoU2xNZp+IiMHQbxkbsWcf86KqajweX12dXVkRiUajItKRUdlAdXfrhsMiYkge0SYiiq3b7OuY2/QY0+8i6RdwsD777LNz587VOgocsJDDIddcFS2sxuGxsbFx+vTphoaGWgcC1Lf19fWHDx8eP3681oFUL7PG72AAhwdPF0Cd4hfFM6Kq6gG8XVfVrJf9ORdwkJj7gHpBZg2oisOTWeMcIgAAgOfMwexZyRmUtBoAADj6qDYAAAAAAAAAVILMGgAAAAAAAFAJdoOiOFVVy9kxoqqqxONizD4C+XBQbN3jknHyMgDgUGpsbNzc3KQmErBXm5ubtQ4BQLkaGho+//zzX/7yl7UOBKhv9+/ff/HFF2sdhQiZNRSnuq264fQ6X6rivj67kvw7WSssHA7vNO/PrAjWPR4t+04dYwu7XXcqjpVnty5ZQeFw1FL2eACAWvnpT3+6trb2i1/8otaBAHXmkBzhDKAcL7744kcfffT48eNaBwLUtxMnTgwMDKyvr9c6EDJrKEpj908FdObuC9upq/jssM8nBoNBRDo6OkQuWMbGzotWq81zGHI4LIb+jo6Sd4lGfblpNMPUnN+kzbgUjwdFTNqMi/Gg1Rwo5z8lPGztztewg7VsAHB4tLS03L9/v6mp6dSpU6xcA8qxubm5tra2trZ25syZWscCoCzr6+u///3vax0FcBQchrSakFlDKcnc2rDVbdpZFtY/l7a8rLiOMU8ZTRWbz5znslaj0aiKzTouyfVsatA6vDJm92iSi9oClpIr1TIYOvIm+S6cL38IAMABa25uPnPmzF//+te//OUvW1tbtQ4HqANNTU0nTpw4d+5cczM/7AEAqAEmYJSisS/MrXSv1ujmRo9/tVvX7Y4tmIKBcP+YsbK0mojBMsLaNACoA83NzW1tbW1tbbUOBAAAACiNzBrKYPQspK0885m7o4Y8rYrsq1Tdtusr2RcvXB6xF694kOrW0d+xct0WiIZFZm222e0LNrkw4jHt7b8EAAAAAACgasisYc8MefZVRqO+YjUC4is+X7S/vyOjQ/TCiL3EVlHT5cupzZqrs1GfoX/u8uX0r7X5+kiBCgjDuqbhrEsZFRcAAAAAAAD2hswaClJsTWZf8s/tFJS6GhWDxe8xiZpRsECxNflkylRsAVrWbkzF5hsvFYAaj2//ubriCxv6s1N38bhaKLkmhv6psctFzlBbHTdnJ9oAAAAAAAD2gswaCjJ6YrERkfh1XVZ9gbjbah6WqZ2TzlT3uE/656p9ilk8vjo7uyIiEvX5wob+flmZnV3Z/tAhInIhcw1bhgsmY9G9prPVjRYAAAAAADx3yKyhCI1GIxJPuxBfCUvHmNG+EJNuna57ZW7BY1Td1uGwYcpf9W2VWqPdYxRVsel8hqm0ggUjF7qtAbns9xg1Iqq75NI3AAAAAACAA9FY6wBQT9TVqBguaEVEY1+ITYnP3NTdrRsO98/tsVBnmbdT3LZundknEh7WNe3QDUuHRcZ13Ta3olb/rgAAAAAAAOVhzRrKpwYDYekYS+XQNHb/VEA3HBbD1EgZ69XCgeu2tPKg0ajIheI9gtfHAzIWi61areLfTd2p7m6rmDwek+K+Pn5dCpVNCOepWJCtv3TYAAAAAAAAhZBZQ9mU62m7PlXFZjX7woapqY7AcGpfaOGu2gv9WVmsjo7+C0XqC4iImDwLdhFRV5MfVXe3NSASDocNU3Pitl0/P+JZsKvu7tz8mcY0Nldi8GRYBesfAAAAAAAAlERmDWXaLVOgKu7r48O+sKF/LuYxasRuutCtMzdJ8lNeGrvHs98ANPaFBfv2B8VmjsqIFEjmqcHZWUmWIlUVRbYrGaiKOy52ozH5t806e3mhaI0DAAAAAACAYsisoTjVPe4TEbPtwlRH/9SIUbF1m31hQ//UnN9u3NkXuhCTbp1ZVyy5VjHN+Y6wWdcdMKRdC4fD0j9X6E7K9WFfdGok+afZLHObqfV0qwFzQGJGu0ZEo70gPrPt8maxpXYAAAAAAABFkFlDEao7WZ9g7sK4eTjQPzUmYhwZm7usNWbnzzT2hdh5RbIvR1cVpfRtVqMiHYW/Nno2YyPZpQo0mkJ5td3FdSKivWCQ4VnFYzSKiMZkMQwHgqrdrhHR2Mf6h83j7hHjQRRfAAAAAAAAzwEyayhIsemGw4apmMeoEWNMunXDZt+wiMFgkPHx/F3GZ8f86avWwsPj44b8TdOEw3kya1kVDwqKhiWjikHGaXCpZNqqmsz5aUwWw/DwdcXuMYqI0TPX32S2uk0HUtgUAAAAAAAceWTWUJD2Qv9UzJPKOmnsC5t2VVGCs7PF8l0XtBlJqv7ihQ1SFFuTeV+Rpg+VtmBNRERzvkPCK3ERjYiIxjTWH1gVNfXRODJl0G0vYgMAAAAAANibhkePHu1/lC+++OLtt9/e/zg4SlRViYvWWHDXZrGWqqLEc7ec5u+c1VRV1cI7RfHc+Oyzz86dO1frKAAAAAAARxyZNQBHEJk1AAAAAMAz0FjrAAAAAAAAAIC6RGYNAAAAAAAAqER1MmuNjY2bm5tVGQoA9on/OwIAAAAAPBvVyaz99Kc/XVtbq8pQALBPDx8+PH78eK2jAAAAAAAcfdXJrLW0tKytra2trbFUBEANbW5u/v3vf//73/9++vTpWscCAAAAADj6qlMbVEQ2Njb++te/PnjwYGtrqyoDAsBeNTU1nThx4ty5c83NzbWOBQAAAABw9FUtswYAAAAAAAA8V6gNCgAAAAAAAFSCzBoAAAAAAABQCTJrAAAAAAAAQCXIrAEAAAAAAACVILMGAAAAAAAAVILMGgAAAAAAAFAJMmsAAAAAAABAJcisAQAAAAAAAJUgswYAAAAAAABUgswaAAAAAAAAUAkyawAAAAAAAEAlyKwBAAAAAAAAlSCzBgAAAAAAAFSi8fvvv691DAAAAAAAAECd+f777xsfP35c6zAAAAAAAACAOvPNN980fvvtt7UOAwAAAAAAAKgz//jHP1izBgAAAAAAAOzZ48ePG7/99tuvvvqq1pEAAAAAAAAAdeOrr7769ttvG1999dW7d+/+3//9X63jAQAAAAAAAOrA+vr63bt3X3311cYXXnjh1KlTJNcAAAAAAACAktbX11dWVk6dOvXCCy80NjQ0nDp16unTpwsLC19++WWtYwMAAAAAAAAOqS+//PK///u/nz59eurUqYaGhmYRaWhoOHny5LFjx+7du/e///u/L7300okTJ06cOPGzn/2s1tECAAAAAAAAtbS+vv748eNvvvnmm2+++cc//nH27NkXXnihoaFBRP4/OoOzbRFkqaQAAAAASUVORK5CYII=;" vertex="1" parent="1">
                    <mxGeometry x="190" y="210" width="1449.21" height="790" as="geometry"/>
                </mxCell>
                <mxCell id="5" value="" style="rounded=0;whiteSpace=wrap;html=1;fillColor=none;strokeWidth=6;strokeColor=#FF0000;dashed=1;" vertex="1" parent="1">
                    <mxGeometry x="200" y="230" width="350" height="470" as="geometry"/>
                </mxCell>
                <mxCell id="6" value="" style="rounded=0;whiteSpace=wrap;html=1;fillColor=none;strokeWidth=6;strokeColor=#FF0000;dashed=1;" vertex="1" parent="1">
                    <mxGeometry x="200" y="720" width="350" height="260" as="geometry"/>
                </mxCell>
                <mxCell id="7" value="" style="rounded=0;whiteSpace=wrap;html=1;fillColor=none;strokeWidth=6;strokeColor=#FF0000;dashed=1;" vertex="1" parent="1">
                    <mxGeometry x="560" y="230" width="1050" height="750" as="geometry"/>
                </mxCell>
                <mxCell id="8" value="视图（方法）" style="text;html=1;align=right;verticalAlign=middle;whiteSpace=wrap;rounded=0;fontSize=36;fontColor=light-dark(#ff0000, #ededed);fontStyle=1;fontFamily=Helvetica;" vertex="1" parent="1">
                    <mxGeometry x="340" y="230" width="210" height="80" as="geometry"/>
                </mxCell>
                <mxCell id="9" value="结果保存" style="text;html=1;align=right;verticalAlign=middle;whiteSpace=wrap;rounded=0;fontSize=36;fontColor=light-dark(#ff0000, #ededed);fontStyle=1;fontFamily=Helvetica;" vertex="1" parent="1">
                    <mxGeometry x="320" y="720" width="210" height="80" as="geometry"/>
                </mxCell>
                <mxCell id="10" value="结果可视化" style="text;html=1;align=center;verticalAlign=middle;whiteSpace=wrap;rounded=0;fontSize=36;fontColor=light-dark(#ff0000, #ededed);fontStyle=1;fontFamily=Helvetica;" vertex="1" parent="1">
                    <mxGeometry x="1400" y="260" width="210" height="80" as="geometry"/>
                </mxCell>
            </root>
        </mxGraphModel>
    </diagram>
</mxfile>